{
.appVersion = "113";
DisplayStrings = (
WEND,
JOKE69,
FLUX,
"GÖRY",
VABE,
"ÆTHER",
O0123456789ZT,
"G&T/space P&Q/space Q&A/space T&C",
"NOA#0123",
"X.:;Y£$/euro ¥M"
);
date = "2021-03-23 15:45:08 +0000";
designer = "David Jones";
familyName = "Avimode LAB 20220209";
featurePrefixes = (
{
automatic = 1;
code = "languagesystem DFLT dflt;\012languagesystem latn dflt;\012languagesystem latn NLD;\012languagesystem latn ROM;\012languagesystem latn MOL;\012";
name = Languagesystems;
}
);
features = (
{
automatic = 1;
code = "feature locl;\012";
name = aalt;
},
{
automatic = 1;
code = "script latn;\012language NLD;\012sub Iacute J by Iacute_J.loclNLD;\012language ROM;\012sub Scedilla by Scommaaccent;\012sub Tcedilla by Tcommaaccent;\012language MOL;\012sub Scedilla by Scommaaccent;\012sub Tcedilla by Tcommaaccent;\012";
name = locl;
},
{
automatic = 1;

glyphs = (
{
glyphname = A;
lastChange = "2021-11-17 10:43:08 +0000";
layers = (
{
anchors = (
{
name = bottom;
position = "{224, 0}";
},
{
name = ogonek;
position = "{403, 10}";
},
{
name = top;
position = "{224, 600}";
}
);
layerId = "23C4FCBD-6BD7-473B-9A50-F233A862C235";
paths = (
{
closed = 1;
nodes = (
"424 0 LINE",
"424 536 LINE",
"360 600 LINE",
"44 600 LINE",
"44 412 LINE",
"203 412 LINE",
"208 419 OFFCURVE",
"215 424 OFFCURVE",
"224 424 CURVE SMOOTH",
"237 424 OFFCURVE",
"248 413 OFFCURVE",
"248 400 CURVE SMOOTH",
"248 387 OFFCURVE",
"237 376 OFFCURVE",
"224 376 CURVE SMOOTH",
"215 376 OFFCURVE",
"208 381 OFFCURVE",
"203 388 CURVE",
"88 388 LINE",
"24 324 LINE",
"24 65 LINE",
"89 0 LINE"
);
},
{
closed = 1;
nodes = (
"159 207 OFFCURVE",
"170 218 OFFCURVE",
"183 218 CURVE SMOOTH",
"192 218 OFFCURVE",
"199 213 OFFCURVE",
"204 206 CURVE",
"254 206 LINE",
"259 213 OFFCURVE",
"266 218 OFFCURVE",
"275 218 CURVE SMOOTH",
"288 218 OFFCURVE",
"299 207 OFFCURVE",
"299 194 CURVE SMOOTH",
"299 181 OFFCURVE",
"288 170 OFFCURVE",
"275 170 CURVE SMOOTH",
"266 170 OFFCURVE",
"259 175 OFFCURVE",
"254 182 CURVE",
"204 182 LINE",
"199 175 OFFCURVE",
"192 170 OFFCURVE",
"183 170 CURVE SMOOTH",
"170 170 OFFCURVE",
"159 181 OFFCURVE",
"159 194 CURVE SMOOTH"
);
},
{
closed = 1;
nodes = (
"171 187 OFFCURVE",
"176 182 OFFCURVE",
"183 182 CURVE SMOOTH",
"190 182 OFFCURVE",
"195 187 OFFCURVE",
"195 194 CURVE SMOOTH",
"195 201 OFFCURVE",
"190 206 OFFCURVE",
"183 206 CURVE SMOOTH",
"176 206 OFFCURVE",
"171 201 OFFCURVE",
"171 194 CURVE SMOOTH"
);
},
{
closed = 1;
nodes = (
"212 393 OFFCURVE",
"217 388 OFFCURVE",
"224 388 CURVE SMOOTH",
"231 388 OFFCURVE",
"236 393 OFFCURVE",
"236 400 CURVE SMOOTH",
"236 407 OFFCURVE",
"231 412 OFFCURVE",
"224 412 CURVE SMOOTH",
"217 412 OFFCURVE",
"212 407 OFFCURVE",
"212 400 CURVE SMOOTH"
);
},
{
closed = 1;
nodes = (
"263 187 OFFCURVE",
"268 182 OFFCURVE",
"275 182 CURVE SMOOTH",
"282 182 OFFCURVE",
"287 187 OFFCURVE",
"287 194 CURVE SMOOTH",
"287 201 OFFCURVE",
"282 206 OFFCURVE",
"275 206 CURVE SMOOTH",
"268 206 OFFCURVE",
"263 201 OFFCURVE",
"263 194 CURVE SMOOTH"
);
}
);
width = 448;
}
);
leftKerningGroup = A;
rightKerningGroup = A;
unicode = 0041;
},
{
glyphname = AE;
lastChange = "2021-11-17 10:43:17 +0000";
layers = (
{
anchors = (
{
name = bottom;
position = "{358, 0}";
},
{
name = top;
position = "{358, 600}";
}
);
layerId = "23C4FCBD-6BD7-473B-9A50-F233A862C235";
paths = (
{
closed = 1;
nodes = (
"89 0 LINE",
"692 0 LINE",
"692 219 LINE",
"484 219 LINE",
"479 211 OFFCURVE",
"470 205 OFFCURVE",
"460 205 CURVE SMOOTH",
"445 205 OFFCURVE",
"432 218 OFFCURVE",
"432 233 CURVE SMOOTH",
"432 248 OFFCURVE",
"445 261 OFFCURVE",
"460 261 CURVE SMOOTH",
"470 261 OFFCURVE",
"479 255 OFFCURVE",
"484 247 CURVE",
"628 247 LINE",
"628 388 LINE",
"481 388 LINE",
"476 381 OFFCURVE",
"469 376 OFFCURVE",
"460 376 CURVE SMOOTH",
"447 376 OFFCURVE",
"436 387 OFFCURVE",
"436 400 CURVE SMOOTH",
"436 413 OFFCURVE",
"447 424 OFFCURVE",
"460 424 CURVE SMOOTH",
"469 424 OFFCURVE",
"476 419 OFFCURVE",
"481 412 CURVE",
"660 412 LINE",
"660 600 LINE",
"44 600 LINE",
"44 412 LINE",
"203 412 LINE",
"208 419 OFFCURVE",
"215 424 OFFCURVE",
"224 424 CURVE SMOOTH",
"237 424 OFFCURVE",
"248 413 OFFCURVE",
"248 400 CURVE SMOOTH",
"248 387 OFFCURVE",
"237 376 OFFCURVE",
"224 376 CURVE SMOOTH",
"215 376 OFFCURVE",
"208 381 OFFCURVE",
"203 388 CURVE",
"88 388 LINE",
"24 324 LINE",
"24 65 LINE"
);
},
{
closed = 1;
nodes = (
"159 207 OFFCURVE",
"170 218 OFFCURVE",
"183 218 CURVE SMOOTH",
"192 218 OFFCURVE",
"199 213 OFFCURVE",
"204 206 CURVE",
"254 206 LINE",
"259 213 OFFCURVE",
"266 218 OFFCURVE",
"275 218 CURVE SMOOTH",
"288 218 OFFCURVE",
"299 207 OFFCURVE",
"299 194 CURVE SMOOTH",
"299 181 OFFCURVE",
"288 170 OFFCURVE",
"275 170 CURVE SMOOTH",
"266 170 OFFCURVE",
"259 175 OFFCURVE",
"254 182 CURVE",
"204 182 LINE",
"199 175 OFFCURVE",
"192 170 OFFCURVE",
"183 170 CURVE SMOOTH",
"170 170 OFFCURVE",
"159 181 OFFCURVE",
"159 194 CURVE SMOOTH"
);
},
{
closed = 1;
nodes = (
"171 187 OFFCURVE",
"176 182 OFFCURVE",
"183 182 CURVE SMOOTH",
"190 182 OFFCURVE",
"195 187 OFFCURVE",
"195 194 CURVE SMOOTH",
"195 201 OFFCURVE",
"190 206 OFFCURVE",
"183 206 CURVE SMOOTH",
"176 206 OFFCURVE",
"171 201 OFFCURVE",
"171 194 CURVE SMOOTH"
);
},
{
closed = 1;
nodes = (
"212 393 OFFCURVE",
"217 388 OFFCURVE",
"224 388 CURVE SMOOTH",
"231 388 OFFCURVE",
"236 393 OFFCURVE",
"236 400 CURVE SMOOTH",
"236 407 OFFCURVE",
"231 412 OFFCURVE",
"224 412 CURVE SMOOTH",
"217 412 OFFCURVE",
"212 407 OFFCURVE",
"212 400 CURVE SMOOTH"
);
},
{
closed = 1;
nodes = (
"263 187 OFFCURVE",
"268 182 OFFCURVE",
"275 182 CURVE SMOOTH",
"282 182 OFFCURVE",
"287 187 OFFCURVE",
"287 194 CURVE SMOOTH",
"287 201 OFFCURVE",
"282 206 OFFCURVE",
"275 206 CURVE SMOOTH",
"268 206 OFFCURVE",
"263 201 OFFCURVE",
"263 194 CURVE SMOOTH"
);
},
{
closed = 1;
nodes = (
"446 225 OFFCURVE",
"452 219 OFFCURVE",
"460 219 CURVE SMOOTH",
"468 219 OFFCURVE",
"474 225 OFFCURVE",
"474 233 CURVE SMOOTH",
"474 241 OFFCURVE",
"468 247 OFFCURVE",
"460 247 CURVE SMOOTH",
"452 247 OFFCURVE",
"446 241 OFFCURVE",
"446 233 CURVE SMOOTH"
);
},
{
closed = 1;
nodes = (
"448 393 OFFCURVE",
"453 388 OFFCURVE",
"460 388 CURVE SMOOTH",
"467 388 OFFCURVE",
"472 393 OFFCURVE",
"472 400 CURVE SMOOTH",
"472 407 OFFCURVE",
"467 412 OFFCURVE",
"460 412 CURVE SMOOTH",
"453 412 OFFCURVE",
"448 407 OFFCURVE",
"448 400 CURVE SMOOTH"
);
}
);
width = 716;
}
);
leftKerningGroup = A;
rightKerningGroup = E;
unicode = 00C6;
},
{
glyphname = B;
lastChange = "2021-11-17 13:56:10 +0000";
layers = (
{
anchors = (
{
name = bottom;
position = "{240, 0}";
},
{
name = top;
position = "{240, 600}";
}
);
layerId = "23C4FCBD-6BD7-473B-9A50-F233A862C235";
paths = (
{
closed = 1;
nodes = (
"392 0 LINE",
"456 64 LINE",
"456 255 LINE",
"392 320 LINE",
"424 352 LINE",
"424 536 LINE",
"360 600 LINE",
"24 600 LINE",
"24 0 LINE"
);
},
{
closed = 1;
nodes = (
"157 172 OFFCURVE",
"144 185 OFFCURVE",
"144 200 CURVE SMOOTH",
"144 215 OFFCURVE",
"157 228 OFFCURVE",
"172 228 CURVE SMOOTH",
"182 228 OFFCURVE",
"191 222 OFFCURVE",
"196 214 CURVE",
"308 214 LINE",
"313 222 OFFCURVE",
"322 228 OFFCURVE",
"332 228 CURVE SMOOTH",
"347 228 OFFCURVE",
"360 215 OFFCURVE",
"360 200 CURVE SMOOTH",
"360 185 OFFCURVE",
"347 172 OFFCURVE",
"332 172 CURVE SMOOTH",
"322 172 OFFCURVE",
"313 178 OFFCURVE",
"308 186 CURVE",
"196 186 LINE",
"191 178 OFFCURVE",
"182 172 OFFCURVE",
"172 172 CURVE SMOOTH"
);
},
{
closed = 1;
nodes = (
"157 386 OFFCURVE",
"146 397 OFFCURVE",
"146 410 CURVE SMOOTH",
"146 423 OFFCURVE",
"157 434 OFFCURVE",
"170 434 CURVE SMOOTH",
"179 434 OFFCURVE",
"186 429 OFFCURVE",
"191 422 CURVE",
"269 422 LINE",
"274 429 OFFCURVE",
"281 434 OFFCURVE",
"290 434 CURVE SMOOTH",
"303 434 OFFCURVE",
"314 423 OFFCURVE",
"314 410 CURVE SMOOTH",
"314 397 OFFCURVE",
"303 386 OFFCURVE",
"290 386 CURVE SMOOTH",
"281 386 OFFCURVE",
"274 391 OFFCURVE",
"269 398 CURVE",
"191 398 LINE",
"186 391 OFFCURVE",
"179 386 OFFCURVE",
"170 386 CURVE SMOOTH"
);
},
{
closed = 1;
nodes = (
"177 398 OFFCURVE",
"182 403 OFFCURVE",
"182 410 CURVE SMOOTH",
"182 417 OFFCURVE",
"177 422 OFFCURVE",
"170 422 CURVE SMOOTH",
"163 422 OFFCURVE",
"158 417 OFFCURVE",
"158 410 CURVE SMOOTH",
"158 403 OFFCURVE",
"163 398 OFFCURVE",
"170 398 CURVE SMOOTH"
);
},
{
closed = 1;
nodes = (
"297 398 OFFCURVE",
"302 403 OFFCURVE",
"302 410 CURVE SMOOTH",
"302 417 OFFCURVE",
"297 422 OFFCURVE",
"290 422 CURVE SMOOTH",
"283 422 OFFCURVE",
"278 417 OFFCURVE",
"278 410 CURVE SMOOTH",
"278 403 OFFCURVE",
"283 398 OFFCURVE",
"290 398 CURVE SMOOTH"
);
},
{
closed = 1;
nodes = (
"180 186 OFFCURVE",
"186 192 OFFCURVE",
"186 200 CURVE SMOOTH",
"186 208 OFFCURVE",
"180 214 OFFCURVE",
"172 214 CURVE SMOOTH",
"164 214 OFFCURVE",
"158 208 OFFCURVE",
"158 200 CURVE SMOOTH",
"158 192 OFFCURVE",
"164 186 OFFCURVE",
"172 186 CURVE SMOOTH"
);
},
{
closed = 1;
nodes = (
"340 186 OFFCURVE",
"346 192 OFFCURVE",
"346 200 CURVE SMOOTH",
"346 208 OFFCURVE",
"340 214 OFFCURVE",
"332 214 CURVE SMOOTH",
"324 214 OFFCURVE",
"318 208 OFFCURVE",
"318 200 CURVE SMOOTH",
"318 192 OFFCURVE",
"324 186 OFFCURVE",
"332 186 CURVE SMOOTH"
);
}
);
width = 480;
}
);
rightKerningGroup = B;
unicode = 0042;
},
{
glyphname = C;
lastChange = "2021-09-01 20:32:19 +0000";
layers = (
{
anchors = (
{
name = bottom;
position = "{240, 0}";
},
{
name = top;
position = "{240, 600}";
}
);
layerId = "23C4FCBD-6BD7-473B-9A50-F233A862C235";
paths = (
{
closed = 1;
nodes = (
"252 234 LINE",
"259 229 OFFCURVE",
"264 222 OFFCURVE",
"264 213 CURVE SMOOTH",
"264 200 OFFCURVE",
"253 189 OFFCURVE",
"240 189 CURVE SMOOTH",
"227 189 OFFCURVE",
"216 200 OFFCURVE",
"216 213 CURVE SMOOTH",
"216 222 OFFCURVE",
"221 229 OFFCURVE",
"228 234 CURVE",
"228 379 LINE",
"221 384 OFFCURVE",
"216 391 OFFCURVE",
"216 400 CURVE SMOOTH",
"216 413 OFFCURVE",
"227 424 OFFCURVE",
"240 424 CURVE SMOOTH",
"253 424 OFFCURVE",
"264 413 OFFCURVE",
"264 400 CURVE SMOOTH",
"264 391 OFFCURVE",
"259 384 OFFCURVE",
"252 379 CURVE",
"252 316 LINE",
"456 316 LINE",
"456 536 LINE",
"392 600 LINE",
"88 600 LINE",
"24 536 LINE",
"24 64 LINE",
"88 0 LINE",
"392 0 LINE",
"456 64 LINE",
"456 292 LINE",
"252 292 LINE"
);
},
{
closed = 1;
nodes = (
"247 388 OFFCURVE",
"252 393 OFFCURVE",
"252 400 CURVE SMOOTH",
"252 407 OFFCURVE",
"247 412 OFFCURVE",
"240 412 CURVE SMOOTH",
"233 412 OFFCURVE",
"228 407 OFFCURVE",
"228 400 CURVE SMOOTH",
"228 393 OFFCURVE",
"233 388 OFFCURVE",
"240 388 CURVE SMOOTH"
);
},
{
closed = 1;
nodes = (
"248 199 OFFCURVE",
"254 205 OFFCURVE",
"254 213 CURVE SMOOTH",
"254 221 OFFCURVE",
"248 227 OFFCURVE",
"240 227 CURVE SMOOTH",
"232 227 OFFCURVE",
"226 221 OFFCURVE",
"226 213 CURVE SMOOTH",
"226 205 OFFCURVE",
"232 199 OFFCURVE",
"240 199 CURVE SMOOTH"
);
}
);
width = 480;
}
);
unicode = 0043;
},
{
glyphname = D;
lastChange = "2021-09-01 20:32:24 +0000";
layers = (
{
anchors = (
{
name = bottom;
position = "{240, 0}";
},
{
name = center;
position = "{240, 300}";
},
{
name = top;
position = "{240, 600}";
}
);
layerId = "23C4FCBD-6BD7-473B-9A50-F233A862C235";
paths = (
{
closed = 1;
nodes = (
"392 0 LINE",
"424 32 LINE",
"456 64 LINE",
"456 98 LINE",
"456 502 LINE",
"456 536 LINE",
"424 568 LINE",
"392 600 LINE",
"24 600 LINE",
"24 0 LINE"
);
},
{
closed = 1;
nodes = (
"231 388 OFFCURVE",
"236 393 OFFCURVE",
"236 400 CURVE SMOOTH",
"236 407 OFFCURVE",
"231 412 OFFCURVE",
"224 412 CURVE SMOOTH",
"217 412 OFFCURVE",
"212 407 OFFCURVE",
"212 400 CURVE SMOOTH",
"212 393 OFFCURVE",
"217 388 OFFCURVE",
"224 388 CURVE SMOOTH"
);
},
{
closed = 1;
nodes = (
"232 219 OFFCURVE",
"238 225 OFFCURVE",
"238 233 CURVE SMOOTH",
"238 241 OFFCURVE",
"232 247 OFFCURVE",
"224 247 CURVE SMOOTH",
"216 247 OFFCURVE",
"210 241 OFFCURVE",
"210 233 CURVE SMOOTH",
"210 225 OFFCURVE",
"216 219 OFFCURVE",
"224 219 CURVE SMOOTH"
);
},
{
closed = 1;
nodes = (
"200 242 OFFCURVE",
"205 249 OFFCURVE",
"212 254 CURVE",
"212 379 LINE",
"205 384 OFFCURVE",
"200 391 OFFCURVE",
"200 400 CURVE SMOOTH",
"200 413 OFFCURVE",
"211 424 OFFCURVE",
"224 424 CURVE SMOOTH",
"237 424 OFFCURVE",
"248 413 OFFCURVE",
"248 400 CURVE SMOOTH",
"248 391 OFFCURVE",
"243 384 OFFCURVE",
"236 379 CURVE",
"236 254 LINE",
"243 249 OFFCURVE",
"248 242 OFFCURVE",
"248 233 CURVE SMOOTH",
"248 220 OFFCURVE",
"237 209 OFFCURVE",
"224 209 CURVE SMOOTH",
"211 209 OFFCURVE",
"200 220 OFFCURVE",
"200 233 CURVE SMOOTH"
);
}
);
width = 480;
}
);
unicode = 0044;
},
{
glyphname = Eth;
lastChange = "2021-03-25 11:30:18 +0000";
layers = (
{
layerId = "23C4FCBD-6BD7-473B-9A50-F233A862C235";
paths = (
{
closed = 1;
nodes = (
"112 200 LINE",
"112 0 LINE",
"480 0 LINE",
"544 64 LINE",
"544 536 LINE",
"480 600 LINE",
"112 600 LINE",
"112 400 LINE",
"12 400 LINE",
"12 200 LINE"
);
},
{
closed = 1;
nodes = (
"245 213 OFFCURVE",
"256 224 OFFCURVE",
"269 224 CURVE SMOOTH",
"278 224 OFFCURVE",
"285 219 OFFCURVE",
"290 212 CURVE",
"316 212 LINE",
"316 388 LINE",
"290 388 LINE",
"285 381 OFFCURVE",
"278 376 OFFCURVE",
"269 376 CURVE SMOOTH",
"256 376 OFFCURVE",
"245 387 OFFCURVE",
"245 400 CURVE SMOOTH",
"245 413 OFFCURVE",
"256 424 OFFCURVE",
"269 424 CURVE SMOOTH",
"278 424 OFFCURVE",
"285 419 OFFCURVE",
"290 412 CURVE",
"340 412 LINE",
"340 188 LINE",
"290 188 LINE",
"285 181 OFFCURVE",
"278 176 OFFCURVE",
"269 176 CURVE SMOOTH",
"256 176 OFFCURVE",
"245 187 OFFCURVE",
"245 200 CURVE SMOOTH"
);
},
{
closed = 1;
nodes = (
"257 193 OFFCURVE",
"262 188 OFFCURVE",
"269 188 CURVE SMOOTH",
"276 188 OFFCURVE",
"281 193 OFFCURVE",
"281 200 CURVE SMOOTH",
"281 207 OFFCURVE",
"276 212 OFFCURVE",
"269 212 CURVE SMOOTH",
"262 212 OFFCURVE",
"257 207 OFFCURVE",
"257 200 CURVE SMOOTH"
);
},
{
closed = 1;
nodes = (
"257 393 OFFCURVE",
"262 388 OFFCURVE",
"269 388 CURVE SMOOTH",
"276 388 OFFCURVE",
"281 393 OFFCURVE",
"281 400 CURVE SMOOTH",
"281 407 OFFCURVE",
"276 412 OFFCURVE",
"269 412 CURVE SMOOTH",
"262 412 OFFCURVE",
"257 407 OFFCURVE",
"257 400 CURVE SMOOTH"
);
}
);
width = 568;
}
);
unicode = 00D0;
},
{
glyphname = E;
lastChange = "2021-11-17 13:59:50 +0000";
layers = (
{
anchors = (
{
name = bottom;
position = "{240, 0}";
},
{
name = ogonek;
position = "{432, 10}";
},
{
name = top;
position = "{240, 600}";
},
{
name = topleft;
position = "{20, 600}";
}
);
guideLines = (
{
angle = 180;
position = "{193, 400}";
},
{
angle = -45;
position = "{24, 600}";
}
);
layerId = "23C4FCBD-6BD7-473B-9A50-F233A862C235";
paths = (
{
closed = 1;
nodes = (
"456 0 LINE",
"456 219 LINE",
"248 219 LINE",
"243 211 OFFCURVE",
"234 205 OFFCURVE",
"224 205 CURVE SMOOTH",
"209 205 OFFCURVE",
"196 218 OFFCURVE",
"196 233 CURVE SMOOTH",
"196 248 OFFCURVE",
"209 261 OFFCURVE",
"224 261 CURVE SMOOTH",
"234 261 OFFCURVE",
"243 255 OFFCURVE",
"248 247 CURVE",
"392 247 LINE",
"392 388 LINE",
"245 388 LINE",
"240 381 OFFCURVE",
"233 376 OFFCURVE",
"224 376 CURVE SMOOTH",
"211 376 OFFCURVE",
"200 387 OFFCURVE",
"200 400 CURVE SMOOTH",
"200 413 OFFCURVE",
"211 424 OFFCURVE",
"224 424 CURVE SMOOTH",
"233 424 OFFCURVE",
"240 419 OFFCURVE",
"245 412 CURVE",
"424 412 LINE",
"424 600 LINE",
"24 600 LINE",
"24 0 LINE"
);
},
{
closed = 1;
nodes = (
"231 388 OFFCURVE",
"236 393 OFFCURVE",
"236 400 CURVE SMOOTH",
"236 407 OFFCURVE",
"231 412 OFFCURVE",
"224 412 CURVE SMOOTH",
"217 412 OFFCURVE",
"212 407 OFFCURVE",
"212 400 CURVE",
"212 393 OFFCURVE",
"217 388 OFFCURVE",
"224 388 CURVE SMOOTH"
);
},
{
closed = 1;
nodes = (
"232 219 OFFCURVE",
"238 225 OFFCURVE",
"238 233 CURVE SMOOTH",
"238 241 OFFCURVE",
"232 247 OFFCURVE",
"224 247 CURVE SMOOTH",
"216 247 OFFCURVE",
"210 241 OFFCURVE",
"210 233 CURVE SMOOTH",
"210 225 OFFCURVE",
"216 219 OFFCURVE",
"224 219 CURVE SMOOTH"
);
}
);
width = 480;
}
);
rightKerningGroup = E;
unicode = 0045;
},
{
glyphname = F;
lastChange = "2021-09-01 20:32:32 +0000";
layers = (
{
anchors = (
{
name = bottom;
position = "{224, 0}";
},
{
name = top;
position = "{224, 600}";
}
);
layerId = "23C4FCBD-6BD7-473B-9A50-F233A862C235";
paths = (
{
closed = 1;
nodes = (
"224 0 LINE",
"224 238 LINE",
"392 238 LINE",
"392 388 LINE",
"245 388 LINE",
"240 381 OFFCURVE",
"233 376 OFFCURVE",
"224 376 CURVE SMOOTH",
"211 376 OFFCURVE",
"200 387 OFFCURVE",
"200 400 CURVE SMOOTH",
"200 413 OFFCURVE",
"211 424 OFFCURVE",
"224 424 CURVE SMOOTH",
"233 424 OFFCURVE",
"240 419 OFFCURVE",
"245 412 CURVE",
"424 412 LINE",
"424 600 LINE",
"24 600 LINE",
"24 0 LINE"
);
},
{
closed = 1;
nodes = (
"231 388 OFFCURVE",
"236 393 OFFCURVE",
"236 400 CURVE SMOOTH",
"236 407 OFFCURVE",
"231 412 OFFCURVE",
"224 412 CURVE SMOOTH",
"217 412 OFFCURVE",
"212 407 OFFCURVE",
"212 400 CURVE SMOOTH",
"212 393 OFFCURVE",
"217 388 OFFCURVE",
"224 388 CURVE SMOOTH"
);
}
);
width = 448;
}
);
unicode = 0046;
},
{
glyphname = G;
lastChange = "2021-09-01 20:32:38 +0000";
layers = (
{
anchors = (
{
name = bottom;
position = "{240, 0}";
},
{
name = top;
position = "{240, 600}";
}
);
layerId = "23C4FCBD-6BD7-473B-9A50-F233A862C235";
paths = (
{
closed = 1;
nodes = (
"88 0 LINE",
"456 0 LINE",
"456 312 LINE",
"252 312 LINE",
"252 206 LINE",
"260 198 LINE",
"297 198 LINE",
"302 205 OFFCURVE",
"309 210 OFFCURVE",
"318 210 CURVE SMOOTH",
"331 210 OFFCURVE",
"342 199 OFFCURVE",
"342 186 CURVE SMOOTH",
"342 173 OFFCURVE",
"331 162 OFFCURVE",
"318 162 CURVE SMOOTH",
"309 162 OFFCURVE",
"302 167 OFFCURVE",
"297 174 CURVE",
"250 174 LINE",
"228 196 LINE",
"228 399 LINE",
"221 404 OFFCURVE",
"216 411 OFFCURVE",
"216 420 CURVE SMOOTH",
"216 433 OFFCURVE",
"227 444 OFFCURVE",
"240 444 CURVE SMOOTH",
"253 444 OFFCURVE",
"264 433 OFFCURVE",
"264 420 CURVE SMOOTH",
"264 411 OFFCURVE",
"259 404 OFFCURVE",
"252 399 CURVE",
"252 336 LINE",
"456 336 LINE",
"456 536 LINE",
"392 600 LINE",
"88 600 LINE",
"24 536 LINE",
"24 64 LINE"
);
},
{
closed = 1;
nodes = (
"228 413 OFFCURVE",
"233 408 OFFCURVE",
"240 408 CURVE SMOOTH",
"247 408 OFFCURVE",
"252 413 OFFCURVE",
"252 420 CURVE SMOOTH",
"252 427 OFFCURVE",
"247 432 OFFCURVE",
"240 432 CURVE SMOOTH",
"233 432 OFFCURVE",
"228 427 OFFCURVE",
"228 420 CURVE SMOOTH"
);
},
{
closed = 1;
nodes = (
"304 178 OFFCURVE",
"310 172 OFFCURVE",
"318 172 CURVE SMOOTH",
"326 172 OFFCURVE",
"332 178 OFFCURVE",
"332 186 CURVE SMOOTH",
"332 194 OFFCURVE",
"326 200 OFFCURVE",
"318 200 CURVE SMOOTH",
"310 200 OFFCURVE",
"304 194 OFFCURVE",
"304 186 CURVE SMOOTH"
);
}
);
width = 480;
}
);
unicode = 0047;
},
{
glyphname = H;
lastChange = "2021-11-01 16:32:20 +0000";
layers = (
{
anchors = (
{
name = bottom;
position = "{124, 0}";
},
{
name = center;
position = "{224, 486}";
},
{
name = top;
position = "{224, 600}";
},
{
name = topleft;
position = "{20, 600}";
}
);
layerId = "23C4FCBD-6BD7-473B-9A50-F233A862C235";
paths = (
{
closed = 1;
nodes = (
"212 398 OFFCURVE",
"217 393 OFFCURVE",
"224 393 CURVE SMOOTH",
"231 393 OFFCURVE",
"236 398 OFFCURVE",
"236 405 CURVE SMOOTH",
"236 412 OFFCURVE",
"231 417 OFFCURVE",
"224 417 CURVE SMOOTH",
"217 417 OFFCURVE",
"212 412 OFFCURVE",
"212 405 CURVE SMOOTH"
);
},
{
closed = 1;
nodes = (
"212 218 OFFCURVE",
"217 213 OFFCURVE",
"224 213 CURVE SMOOTH",
"231 213 OFFCURVE",
"236 218 OFFCURVE",
"236 225 CURVE SMOOTH",
"236 232 OFFCURVE",
"231 237 OFFCURVE",
"224 237 CURVE SMOOTH",
"217 237 OFFCURVE",
"212 232 OFFCURVE",
"212 225 CURVE SMOOTH"
);
},
{
closed = 1;
nodes = (
"212 0 LINE",
"212 204 LINE",
"205 209 OFFCURVE",
"200 216 OFFCURVE",
"200 225 CURVE SMOOTH",
"200 238 OFFCURVE",
"211 249 OFFCURVE",
"224 249 CURVE SMOOTH",
"237 249 OFFCURVE",
"248 238 OFFCURVE",
"248 225 CURVE SMOOTH",
"248 216 OFFCURVE",
"243 209 OFFCURVE",
"236 204 CURVE",
"236 0 LINE",
"424 0 LINE",
"424 600 LINE",
"236 600 LINE",
"236 426 LINE",
"243 421 OFFCURVE",
"248 414 OFFCURVE",
"248 405 CURVE SMOOTH",
"248 392 OFFCURVE",
"237 381 OFFCURVE",
"224 381 CURVE SMOOTH",
"211 381 OFFCURVE",
"200 392 OFFCURVE",
"200 405 CURVE SMOOTH",
"200 414 OFFCURVE",
"205 421 OFFCURVE",
"212 426 CURVE",
"212 600 LINE",
"24 600 LINE",
"24 0 LINE"
);
}
);
width = 448;
}
);
unicode = 0048;
},
{
glyphname = I;
lastChange = "2021-11-25 15:23:06 +0000";
layers = (
{
anchors = (
{
name = bottom;
position = "{124, 0}";
},
{
name = ogonek;
position = "{223, 10}";
},
{
name = top;
position = "{124, 600}";
},
{
name = topleft;
position = "{20, 600}";
}
);
layerId = "23C4FCBD-6BD7-473B-9A50-F233A862C235";
paths = (
{
closed = 1;
nodes = (
"132 586 OFFCURVE",
"138 592 OFFCURVE",
"138 600 CURVE SMOOTH",
"138 608 OFFCURVE",
"132 614 OFFCURVE",
"124 614 CURVE SMOOTH",
"116 614 OFFCURVE",
"110 608 OFFCURVE",
"110 600 CURVE SMOOTH",
"110 592 OFFCURVE",
"116 586 OFFCURVE",
"124 586 CURVE SMOOTH"
);
},
{
closed = 1;
nodes = (
"224 0 LINE",
"224 600 LINE",
"152 600 LINE",
"152 585 OFFCURVE",
"139 572 OFFCURVE",
"124 572 CURVE SMOOTH",
"109 572 OFFCURVE",
"96 585 OFFCURVE",
"96 600 CURVE",
"24 600 LINE",
"24 0 LINE"
);
}
);
width = 248;
}
);
unicode = 0049;
},
{
glyphname = J;
lastChange = "2021-11-17 11:12:31 +0000";
layers = (
{
anchors = (
{
name = bottom;
position = "{240, 0}";
},
{
name = top;
position = "{298, 600}";
}
);
layerId = "23C4FCBD-6BD7-473B-9A50-F233A862C235";
paths = (
{
closed = 1;
nodes = (
"24 64 LINE",
"88 0 LINE",
"392 0 LINE",
"456 64 LINE",
"456 600 LINE",
"140 600 LINE",
"140 412 LINE",
"219 412 LINE",
"224 419 OFFCURVE",
"231 424 OFFCURVE",
"240 424 CURVE SMOOTH",
"253 424 OFFCURVE",
"264 413 OFFCURVE",
"264 400 CURVE SMOOTH",
"264 391 OFFCURVE",
"259 384 OFFCURVE",
"252 379 CURVE",
"252 254 LINE",
"259 249 OFFCURVE",
"264 242 OFFCURVE",
"264 233 CURVE SMOOTH",
"264 220 OFFCURVE",
"253 209 OFFCURVE",
"240 209 CURVE SMOOTH",
"227 209 OFFCURVE",
"216 220 OFFCURVE",
"216 233 CURVE SMOOTH",
"216 242 OFFCURVE",
"221 249 OFFCURVE",
"228 254 CURVE",
"228 320 LINE",
"24 288 LINE"
);
},
{
closed = 1;
nodes = (
"226 225 OFFCURVE",
"232 219 OFFCURVE",
"240 219 CURVE SMOOTH",
"248 219 OFFCURVE",
"254 225 OFFCURVE",
"254 233 CURVE SMOOTH",
"254 241 OFFCURVE",
"248 247 OFFCURVE",
"240 247 CURVE SMOOTH",
"232 247 OFFCURVE",
"226 241 OFFCURVE",
"226 233 CURVE SMOOTH"
);
},
{
closed = 1;
nodes = (
"228 393 OFFCURVE",
"233 388 OFFCURVE",
"240 388 CURVE SMOOTH",
"247 388 OFFCURVE",
"252 393 OFFCURVE",
"252 400 CURVE SMOOTH",
"252 407 OFFCURVE",
"247 412 OFFCURVE",
"240 412 CURVE SMOOTH",
"233 412 OFFCURVE",
"228 407 OFFCURVE",
"228 400 CURVE SMOOTH"
);
}
);
width = 480;
}
);
leftKerningGroup = J;
unicode = 004A;
},
{
glyphname = K;
lastChange = "2021-09-01 21:11:14 +0000";
layers = (
{
anchors = (
{
name = bottom;
position = "{224, 0}";
},
{
name = top;
position = "{224, 600}";
}
);
guideLines = (
{
angle = 44.9701;
position = "{360, 318}";
}
);
layerId = "23C4FCBD-6BD7-473B-9A50-F233A862C235";
paths = (
{
closed = 1;
nodes = (
"196 0 LINE",
"196 141 LINE",
"189 146 OFFCURVE",
"184 153 OFFCURVE",
"184 162 CURVE SMOOTH",
"184 175 OFFCURVE",
"195 186 OFFCURVE",
"208 186 CURVE SMOOTH",
"221 186 OFFCURVE",
"232 175 OFFCURVE",
"232 162 CURVE SMOOTH",
"232 153 OFFCURVE",
"227 146 OFFCURVE",
"220 141 CURVE",
"220 0 LINE",
"424 0 LINE",
"424 254 LINE",
"360 318 LINE",
"424 382 LINE",
"424 600 LINE",
"296 600 LINE",
"224 418 LINE",
"229 411 OFFCURVE",
"231 402 OFFCURVE",
"227 394 CURVE",
"222 382 OFFCURVE",
"208 376 OFFCURVE",
"196 381 CURVE SMOOTH",
"184 386 OFFCURVE",
"178 400 OFFCURVE",
"183 412 CURVE",
"186 420 OFFCURVE",
"193 425 OFFCURVE",
"202 427 CURVE",
"271 600 LINE",
"24 600 LINE",
"24 0 LINE"
);
},
{
closed = 1;
nodes = (
"193 396 OFFCURVE",
"198 391 OFFCURVE",
"205 391 CURVE SMOOTH",
"212 391 OFFCURVE",
"217 396 OFFCURVE",
"217 403 CURVE SMOOTH",
"217 410 OFFCURVE",
"212 415 OFFCURVE",
"205 415 CURVE SMOOTH",
"198 415 OFFCURVE",
"193 410 OFFCURVE",
"193 403 CURVE SMOOTH"
);
},
{
closed = 1;
nodes = (
"196 155 OFFCURVE",
"201 150 OFFCURVE",
"208 150 CURVE SMOOTH",
"215 150 OFFCURVE",
"220 155 OFFCURVE",
"220 162 CURVE SMOOTH",
"220 169 OFFCURVE",
"215 174 OFFCURVE",
"208 174 CURVE SMOOTH",
"201 174 OFFCURVE",
"196 169 OFFCURVE",
"196 162 CURVE SMOOTH"
);
}
);
width = 448;
}
);
unicode = 004B;
},
{
glyphname = L;
lastChange = "2021-11-17 14:14:44 +0000";
layers = (
{
anchors = (
{
name = bottom;
position = "{224, 0}";
},
{
name = center;
position = "{134, 410}";
},
{
name = top;
position = "{124, 600}";
},
{
name = topright;
position = "{428, 600}";
}
);
layerId = "23C4FCBD-6BD7-473B-9A50-F233A862C235";
paths = (
{
closed = 1;
nodes = (
"424 0 LINE",
"424 219 LINE",
"241 219 LINE",
"213 191 LINE",
"214 189 OFFCURVE",
"214 187 OFFCURVE",
"214 185 CURVE",
"214 172 OFFCURVE",
"203 161 OFFCURVE",
"190 161 CURVE SMOOTH",
"177 161 OFFCURVE",
"166 172 OFFCURVE",
"166 185 CURVE SMOOTH",
"166 198 OFFCURVE",
"177 209 OFFCURVE",
"190 209 CURVE",
"192 209 OFFCURVE",
"194 209 OFFCURVE",
"196 208 CURVE",
"224 236 LINE",
"224 600 LINE",
"24 600 LINE",
"24 0 LINE"
);
},
{
closed = 1;
nodes = (
"178 178 OFFCURVE",
"183 173 OFFCURVE",
"190 173 CURVE SMOOTH",
"197 173 OFFCURVE",
"202 178 OFFCURVE",
"202 185 CURVE SMOOTH",
"202 192 OFFCURVE",
"197 197 OFFCURVE",
"190 197 CURVE SMOOTH",
"183 197 OFFCURVE",
"178 192 OFFCURVE",
"178 185 CURVE SMOOTH"
);
}
);
width = 448;
}
);
rightKerningGroup = L;
unicode = 004C;
},
{
glyphname = M;
lastChange = "2021-09-01 20:37:44 +0000";
layers = (
{
anchors = (
{
name = bottom;
position = "{380, 0}";
},
{
name = top;
position = "{380, 600}";
}
);
guideLines = (
{
angle = 45;
position = "{506, 350}";
}
);
layerId = "23C4FCBD-6BD7-473B-9A50-F233A862C235";
paths = (
{
closed = 1;
nodes = (
"24 600 LINE",
"316 600 LINE",
"380 536 LINE",
"444 600 LINE",
"736 600 LINE",
"736 0 LINE",
"392 0 LINE",
"392 219 LINE",
"500 327 LINE",
"508 325 OFFCURVE",
"517 327 OFFCURVE",
"523 333 CURVE SMOOTH",
"532 342 OFFCURVE",
"532 358 OFFCURVE",
"523 367 CURVE SMOOTH",
"514 376 OFFCURVE",
"498 376 OFFCURVE",
"489 367 CURVE SMOOTH",
"483 361 OFFCURVE",
"481 352 OFFCURVE",
"483 344 CURVE",
"380 241 LINE",
"277 344 LINE",
"279 352 OFFCURVE",
"277 361 OFFCURVE",
"271 367 CURVE SMOOTH",
"262 376 OFFCURVE",
"246 376 OFFCURVE",
"237 367 CURVE SMOOTH",
"228 358 OFFCURVE",
"228 342 OFFCURVE",
"237 333 CURVE SMOOTH",
"243 327 OFFCURVE",
"252 325 OFFCURVE",
"260 327 CURVE",
"368 219 LINE",
"368 0 LINE",
"24 0 LINE"
);
},
{
closed = 1;
nodes = (
"242 343 OFFCURVE",
"247 338 OFFCURVE",
"254 338 CURVE SMOOTH",
"261 338 OFFCURVE",
"266 343 OFFCURVE",
"266 350 CURVE SMOOTH",
"266 357 OFFCURVE",
"261 362 OFFCURVE",
"254 362 CURVE SMOOTH",
"247 362 OFFCURVE",
"242 357 OFFCURVE",
"242 350 CURVE SMOOTH"
);
},
{
closed = 1;
nodes = (
"494 343 OFFCURVE",
"499 338 OFFCURVE",
"506 338 CURVE SMOOTH",
"513 338 OFFCURVE",
"518 343 OFFCURVE",
"518 350 CURVE SMOOTH",
"518 357 OFFCURVE",
"513 362 OFFCURVE",
"506 362 CURVE SMOOTH",
"499 362 OFFCURVE",
"494 357 OFFCURVE",
"494 350 CURVE SMOOTH"
);
}
);
width = 760;
}
);
unicode = 004D;
},
{
glyphname = N;
lastChange = "2021-09-01 20:37:59 +0000";
layers = (
{
anchors = (
{
name = bottom;
position = "{224, 0}";
},
{
name = top;
position = "{224, 600}";
}
);
guideLines = (
{
angle = -68.1365;
position = "{224, 600}";
}
);
layerId = "23C4FCBD-6BD7-473B-9A50-F233A862C235";
paths = (
{
closed = 1;
nodes = (
"213 0 LINE",
"152 176 LINE",
"144 179 OFFCURVE",
"137 184 OFFCURVE",
"134 192 CURVE",
"130 205 OFFCURVE",
"137 218 OFFCURVE",
"149 223 CURVE",
"162 227 OFFCURVE",
"176 220 OFFCURVE",
"180 208 CURVE SMOOTH",
"183 199 OFFCURVE",
"180 191 OFFCURVE",
"175 184 CURVE",
"239 0 LINE",
"424 0 LINE",
"424 600 LINE",
"237.119 600 LINE",
"294 457 LINE",
"303 455 OFFCURVE",
"310 450 OFFCURVE",
"313 442 CURVE",
"318 430 OFFCURVE",
"312 416 OFFCURVE",
"300 411 CURVE SMOOTH",
"288 406 OFFCURVE",
"274 412 OFFCURVE",
"269 424 CURVE",
"265 432 OFFCURVE",
"267 441 OFFCURVE",
"272 448 CURVE",
"211.539 600 LINE",
"24 600 LINE",
"24 0 LINE"
);
},
{
closed = 1;
nodes = (
"145 193 OFFCURVE",
"150 188 OFFCURVE",
"157 188 CURVE SMOOTH",
"164 188 OFFCURVE",
"169 193 OFFCURVE",
"169 200 CURVE SMOOTH",
"169 207 OFFCURVE",
"164 212 OFFCURVE",
"157 212 CURVE SMOOTH",
"150 212 OFFCURVE",
"145 207 OFFCURVE",
"145 200 CURVE SMOOTH"
);
},
{
closed = 1;
nodes = (
"279 426 OFFCURVE",
"284 421 OFFCURVE",
"291 421 CURVE SMOOTH",
"298 421 OFFCURVE",
"303 426 OFFCURVE",
"303 433 CURVE SMOOTH",
"303 440 OFFCURVE",
"298 445 OFFCURVE",
"291 445 CURVE SMOOTH",
"284 445 OFFCURVE",
"279 440 OFFCURVE",
"279 433 CURVE SMOOTH"
);
}
);
width = 448;
}
);
unicode = 004E;
},
{
glyphname = O;
lastChange = "2021-09-01 19:48:10 +0000";
layers = (
{
anchors = (
{
name = bottom;
position = "{240, 0}";
},
{
name = center;
position = "{240, 300}";
},
{
name = ogonek;
position = "{432, 10}";
},
{
name = top;
position = "{240, 600}";
},
{
name = topleft;
position = "{20, 600}";
},
{
name = topright;
position = "{460, 600}";
}
);
layerId = "23C4FCBD-6BD7-473B-9A50-F233A862C235";
paths = (
{
closed = 1;
nodes = (
"392 0 LINE",
"456 64 LINE",
"456 536 LINE",
"392 600 LINE",
"88 600 LINE",
"24 536 LINE",
"24 64 LINE",
"88 0 LINE"
);
},
{
closed = 1;
nodes = (
"247 388 OFFCURVE",
"252 393 OFFCURVE",
"252 400 CURVE SMOOTH",
"252 407 OFFCURVE",
"247 412 OFFCURVE",
"240 412 CURVE SMOOTH",
"233 412 OFFCURVE",
"228 407 OFFCURVE",
"228 400 CURVE SMOOTH",
"228 393 OFFCURVE",
"233 388 OFFCURVE",
"240 388 CURVE SMOOTH"
);
},
{
closed = 1;
nodes = (
"248 219 OFFCURVE",
"254 225 OFFCURVE",
"254 233 CURVE SMOOTH",
"254 241 OFFCURVE",
"248 247 OFFCURVE",
"240 247 CURVE SMOOTH",
"232 247 OFFCURVE",
"226 241 OFFCURVE",
"226 233 CURVE SMOOTH",
"226 225 OFFCURVE",
"232 219 OFFCURVE",
"240 219 CURVE SMOOTH"
);
},
{
closed = 1;
nodes = (
"216 242 OFFCURVE",
"221 249 OFFCURVE",
"228 254 CURVE",
"228 379 LINE",
"221 384 OFFCURVE",
"216 391 OFFCURVE",
"216 400 CURVE SMOOTH",
"216 413 OFFCURVE",
"227 424 OFFCURVE",
"240 424 CURVE SMOOTH",
"253 424 OFFCURVE",
"264 413 OFFCURVE",
"264 400 CURVE SMOOTH",
"264 391 OFFCURVE",
"259 384 OFFCURVE",
"252 379 CURVE",
"252 254 LINE",
"259 249 OFFCURVE",
"264 242 OFFCURVE",
"264 233 CURVE SMOOTH",
"264 220 OFFCURVE",
"253 209 OFFCURVE",
"240 209 CURVE SMOOTH",
"227 209 OFFCURVE",
"216 220 OFFCURVE",
"216 233 CURVE SMOOTH"
);
}
);
width = 480;
}
);
unicode = 004F;
},
{
glyphname = Oslash;
lastChange = "2021-10-14 14:06:17 +0000";
layers = (
{
anchors = (
{
name = bottom;
position = "{240, 0}";
},
{
name = top;
position = "{240, 600}";
}
);
guideLines = (
{
angle = 252.7775;
position = "{333, 286}";
}
);
layerId = "23C4FCBD-6BD7-473B-9A50-F233A862C235";
paths = (
{
closed = 1;
nodes = (
"215 391 OFFCURVE",
"204 402 OFFCURVE",
"204 415 CURVE SMOOTH",
"204 428 OFFCURVE",
"215 439 OFFCURVE",
"228 439 CURVE SMOOTH",
"241 439 OFFCURVE",
"252 428 OFFCURVE",
"252 415 CURVE SMOOTH",
"252 402 OFFCURVE",
"241 391 OFFCURVE",
"228 391 CURVE SMOOTH"
);
},
{
closed = 1;
nodes = (
"235 403 OFFCURVE",
"240 408 OFFCURVE",
"240 415 CURVE SMOOTH",
"240 422 OFFCURVE",
"235 427 OFFCURVE",
"228 427 CURVE SMOOTH",
"221 427 OFFCURVE",
"216 422 OFFCURVE",
"216 415 CURVE SMOOTH",
"216 408 OFFCURVE",
"221 403 OFFCURVE",
"228 403 CURVE SMOOTH"
);
},
{
closed = 1;
nodes = (
"259 209 OFFCURVE",
"248 220 OFFCURVE",
"248 233 CURVE SMOOTH",
"248 246 OFFCURVE",
"259 257 OFFCURVE",
"272 257 CURVE SMOOTH",
"285 257 OFFCURVE",
"296 246 OFFCURVE",
"296 233 CURVE SMOOTH",
"296 220 OFFCURVE",
"285 209 OFFCURVE",
"272 209 CURVE SMOOTH"
);
},
{
closed = 1;
nodes = (
"279 221 OFFCURVE",
"284 226 OFFCURVE",
"284 233 CURVE SMOOTH",
"284 240 OFFCURVE",
"279 245 OFFCURVE",
"272 245 CURVE SMOOTH",
"265 245 OFFCURVE",
"260 240 OFFCURVE",
"260 233 CURVE SMOOTH",
"260 226 OFFCURVE",
"265 221 OFFCURVE",
"272 221 CURVE SMOOTH"
);
},
{
closed = 1;
nodes = (
"392 0 LINE",
"456 64 LINE",
"456 536 LINE",
"392 600 LINE",
"88 600 LINE",
"24 536 LINE",
"24 64 LINE",
"88 0 LINE"
);
},
{
closed = 1;
nodes = (
"108 128 LINE",
"24 -72 LINE",
"144 -72 LINE",
"228 128 LINE"
);
},
{
closed = 1;
nodes = (
"372 472 LINE",
"456 672 LINE",
"336 672 LINE",
"252 472 LINE"
);
}
);
width = 480;
}
);
unicode = 00D8;
},
{
glyphname = OE;
lastChange = "2021-08-09 19:31:28 +0000";
layers = (
{
layerId = "23C4FCBD-6BD7-473B-9A50-F233A862C235";
paths = (
{
closed = 1;
nodes = (
"247 388 OFFCURVE",
"252 393 OFFCURVE",
"252 400 CURVE SMOOTH",
"252 407 OFFCURVE",
"247 412 OFFCURVE",
"240 412 CURVE SMOOTH",
"233 412 OFFCURVE",
"228 407 OFFCURVE",
"228 400 CURVE SMOOTH",
"228 393 OFFCURVE",
"233 388 OFFCURVE",
"240 388 CURVE SMOOTH"
);
},
{
closed = 1;
nodes = (
"248 219 OFFCURVE",
"254 225 OFFCURVE",
"254 233 CURVE SMOOTH",
"254 241 OFFCURVE",
"248 247 OFFCURVE",
"240 247 CURVE SMOOTH",
"232 247 OFFCURVE",
"226 241 OFFCURVE",
"226 233 CURVE SMOOTH",
"226 225 OFFCURVE",
"232 219 OFFCURVE",
"240 219 CURVE SMOOTH"
);
},
{
closed = 1;
nodes = (
"216 242 OFFCURVE",
"221 249 OFFCURVE",
"228 254 CURVE",
"228 379 LINE",
"221 384 OFFCURVE",
"216 391 OFFCURVE",
"216 400 CURVE SMOOTH",
"216 413 OFFCURVE",
"227 424 OFFCURVE",
"240 424 CURVE SMOOTH",
"253 424 OFFCURVE",
"264 413 OFFCURVE",
"264 400 CURVE SMOOTH",
"264 391 OFFCURVE",
"259 384 OFFCURVE",
"252 379 CURVE",
"252 254 LINE",
"259 249 OFFCURVE",
"264 242 OFFCURVE",
"264 233 CURVE SMOOTH",
"264 220 OFFCURVE",
"253 209 OFFCURVE",
"240 209 CURVE SMOOTH",
"227 209 OFFCURVE",
"216 220 OFFCURVE",
"216 233 CURVE SMOOTH"
);
},
{
closed = 1;
nodes = (
"481 388 OFFCURVE",
"486 393 OFFCURVE",
"486 400 CURVE SMOOTH",
"486 407 OFFCURVE",
"481 412 OFFCURVE",
"474 412 CURVE SMOOTH",
"467 412 OFFCURVE",
"462 407 OFFCURVE",
"462 400 CURVE",
"462 393 OFFCURVE",
"467 388 OFFCURVE",
"474 388 CURVE SMOOTH"
);
},
{
closed = 1;
nodes = (
"482 219 OFFCURVE",
"488 225 OFFCURVE",
"488 233 CURVE SMOOTH",
"488 241 OFFCURVE",
"482 247 OFFCURVE",
"474 247 CURVE SMOOTH",
"466 247 OFFCURVE",
"460 241 OFFCURVE",
"460 233 CURVE SMOOTH",
"460 225 OFFCURVE",
"466 219 OFFCURVE",
"474 219 CURVE SMOOTH"
);
},
{
closed = 1;
nodes = (
"88 0 LINE",
"706 0 LINE",
"706 219 LINE",
"498 219 LINE",
"493 211 OFFCURVE",
"484 205 OFFCURVE",
"474 205 CURVE SMOOTH",
"459 205 OFFCURVE",
"446 218 OFFCURVE",
"446 233 CURVE SMOOTH",
"446 248 OFFCURVE",
"459 261 OFFCURVE",
"474 261 CURVE SMOOTH",
"484 261 OFFCURVE",
"493 255 OFFCURVE",
"498 247 CURVE",
"642 247 LINE",
"642 388 LINE",
"495 388 LINE",
"490 381 OFFCURVE",
"483 376 OFFCURVE",
"474 376 CURVE SMOOTH",
"461 376 OFFCURVE",
"450 387 OFFCURVE",
"450 400 CURVE SMOOTH",
"450 413 OFFCURVE",
"461 424 OFFCURVE",
"474 424 CURVE SMOOTH",
"483 424 OFFCURVE",
"490 419 OFFCURVE",
"495 412 CURVE",
"674 412 LINE",
"674 600 LINE",
"88 600 LINE",
"24 536 LINE",
"24 64 LINE"
);
}
);
width = 730;
}
);
unicode = 0152;
},
{
glyphname = P;
lastChange = "2021-09-01 20:38:13 +0000";
layers = (
{
anchors = (
{
name = bottom;
position = "{224, 0}";
},
{
name = top;
position = "{224, 600}";
}
);
layerId = "23C4FCBD-6BD7-473B-9A50-F233A862C235";
paths = (
{
closed = 1;
nodes = (
"189 388 OFFCURVE",
"194 393 OFFCURVE",
"194 400 CURVE SMOOTH",
"194 407 OFFCURVE",
"189 412 OFFCURVE",
"182 412 CURVE SMOOTH",
"175 412 OFFCURVE",
"170 407 OFFCURVE",
"170 400 CURVE SMOOTH",
"170 393 OFFCURVE",
"175 388 OFFCURVE",
"182 388 CURVE SMOOTH"
);
},
{
closed = 1;
nodes = (
"424 264 LINE",
"424 536 LINE",
"360 600 LINE",
"24 600 LINE",
"24 0 LINE",
"224 0 LINE",
"224 172 LINE",
"224 200 LINE",
"248 200 LINE",
"360 200 LINE"
);
},
{
closed = 1;
nodes = (
"158 413 OFFCURVE",
"169 424 OFFCURVE",
"182 424 CURVE SMOOTH",
"191 424 OFFCURVE",
"198 419 OFFCURVE",
"203 412 CURVE",
"251 412 LINE",
"256 419 OFFCURVE",
"263 424 OFFCURVE",
"272 424 CURVE SMOOTH",
"285 424 OFFCURVE",
"296 413 OFFCURVE",
"296 400 CURVE SMOOTH",
"296 387 OFFCURVE",
"285 376 OFFCURVE",
"272 376 CURVE SMOOTH",
"263 376 OFFCURVE",
"256 381 OFFCURVE",
"251 388 CURVE",
"203 388 LINE",
"198 381 OFFCURVE",
"191 376 OFFCURVE",
"182 376 CURVE SMOOTH",
"169 376 OFFCURVE",
"158 387 OFFCURVE",
"158 400 CURVE SMOOTH"
);
},
{
closed = 1;
nodes = (
"279 388 OFFCURVE",
"284 393 OFFCURVE",
"284 400 CURVE SMOOTH",
"284 407 OFFCURVE",
"279 412 OFFCURVE",
"272 412 CURVE SMOOTH",
"265 412 OFFCURVE",
"260 407 OFFCURVE",
"260 400 CURVE SMOOTH",
"260 393 OFFCURVE",
"265 388 OFFCURVE",
"272 388 CURVE SMOOTH"
);
}
);
width = 448;
}
);
unicode = 0050;
},
{
glyphname = Thorn;
lastChange = "2021-03-25 11:11:19 +0000";
layers = (
{
layerId = "23C4FCBD-6BD7-473B-9A50-F233A862C235";
paths = (
{
closed = 1;
nodes = (
"189 288 OFFCURVE",
"194 293 OFFCURVE",
"194 300 CURVE SMOOTH",
"194 307 OFFCURVE",
"189 312 OFFCURVE",
"182 312 CURVE SMOOTH",
"175 312 OFFCURVE",
"170 307 OFFCURVE",
"170 300 CURVE SMOOTH",
"170 293 OFFCURVE",
"175 288 OFFCURVE",
"182 288 CURVE SMOOTH"
);
},
{
closed = 1;
nodes = (
"424 164 LINE",
"424 436 LINE",
"360 500 LINE",
"224 500 LINE",
"224 600 LINE",
"24 600 LINE",
"24 0 LINE",
"224 0 LINE",
"224 100 LINE",
"360 100 LINE"
);
},
{
closed = 1;
nodes = (
"158 313 OFFCURVE",
"169 324 OFFCURVE",
"182 324 CURVE SMOOTH",
"191 324 OFFCURVE",
"198 319 OFFCURVE",
"203 312 CURVE",
"251 312 LINE",
"256 319 OFFCURVE",
"263 324 OFFCURVE",
"272 324 CURVE SMOOTH",
"285 324 OFFCURVE",
"296 313 OFFCURVE",
"296 300 CURVE SMOOTH",
"296 287 OFFCURVE",
"285 276 OFFCURVE",
"272 276 CURVE SMOOTH",
"263 276 OFFCURVE",
"256 281 OFFCURVE",
"251 288 CURVE",
"203 288 LINE",
"198 281 OFFCURVE",
"191 276 OFFCURVE",
"182 276 CURVE SMOOTH",
"169 276 OFFCURVE",
"158 287 OFFCURVE",
"158 300 CURVE SMOOTH"
);
},
{
closed = 1;
nodes = (
"279 288 OFFCURVE",
"284 293 OFFCURVE",
"284 300 CURVE SMOOTH",
"284 307 OFFCURVE",
"279 312 OFFCURVE",
"272 312 CURVE SMOOTH",
"265 312 OFFCURVE",
"260 307 OFFCURVE",
"260 300 CURVE SMOOTH",
"260 293 OFFCURVE",
"265 288 OFFCURVE",
"272 288 CURVE SMOOTH"
);
}
);
width = 448;
}
);
unicode = 00DE;
},
{
glyphname = Q;
lastChange = "2021-03-24 21:55:22 +0000";
layers = (
{
layerId = "23C4FCBD-6BD7-473B-9A50-F233A862C235";
paths = (
{
closed = 1;
nodes = (
"88 0 LINE",
"456 0 LINE",
"456 536 LINE",
"392 600 LINE",
"88 600 LINE",
"24 536 LINE",
"24 64 LINE"
);
},
{
closed = 1;
nodes = (
"216 242 OFFCURVE",
"221 249 OFFCURVE",
"228 254 CURVE",
"228 379 LINE",
"221 384 OFFCURVE",
"216 391 OFFCURVE",
"216 400 CURVE SMOOTH",
"216 413 OFFCURVE",
"227 424 OFFCURVE",
"240 424 CURVE SMOOTH",
"253 424 OFFCURVE",
"264 413 OFFCURVE",
"264 400 CURVE SMOOTH",
"264 391 OFFCURVE",
"259 384 OFFCURVE",
"252 379 CURVE",
"252 254 LINE",
"259 249 OFFCURVE",
"264 242 OFFCURVE",
"264 233 CURVE SMOOTH",
"264 231 OFFCURVE",
"264 228 OFFCURVE",
"263 226 CURVE",
"343 146 LINE",
"345 147 OFFCURVE",
"348 147 OFFCURVE",
"350 147 CURVE SMOOTH",
"363 147 OFFCURVE",
"374 136 OFFCURVE",
"374 123 CURVE SMOOTH",
"374 110 OFFCURVE",
"363 99 OFFCURVE",
"350 99 CURVE SMOOTH",
"337 99 OFFCURVE",
"326 110 OFFCURVE",
"326 123 CURVE SMOOTH",
"326 125 OFFCURVE",
"326 128 OFFCURVE",
"327 130 CURVE",
"247 210 LINE",
"245 209 OFFCURVE",
"242 209 OFFCURVE",
"240 209 CURVE SMOOTH",
"227 209 OFFCURVE",
"216 220 OFFCURVE",
"216 233 CURVE SMOOTH"
);
},
{
closed = 1;
nodes = (
"226 225 OFFCURVE",
"232 219 OFFCURVE",
"240 219 CURVE SMOOTH",
"248 219 OFFCURVE",
"254 225 OFFCURVE",
"254 233 CURVE SMOOTH",
"254 241 OFFCURVE",
"248 247 OFFCURVE",
"240 247 CURVE SMOOTH",
"232 247 OFFCURVE",
"226 241 OFFCURVE",
"226 233 CURVE SMOOTH"
);
},
{
closed = 1;
nodes = (
"228 393 OFFCURVE",
"233 388 OFFCURVE",
"240 388 CURVE SMOOTH",
"247 388 OFFCURVE",
"252 393 OFFCURVE",
"252 400 CURVE SMOOTH",
"252 407 OFFCURVE",
"247 412 OFFCURVE",
"240 412 CURVE SMOOTH",
"233 412 OFFCURVE",
"228 407 OFFCURVE",
"228 400 CURVE SMOOTH"
);
},
{
closed = 1;
nodes = (
"336 115 OFFCURVE",
"342 109 OFFCURVE",
"350 109 CURVE SMOOTH",
"358 109 OFFCURVE",
"364 115 OFFCURVE",
"364 123 CURVE SMOOTH",
"364 131 OFFCURVE",
"358 137 OFFCURVE",
"350 137 CURVE SMOOTH",
"342 137 OFFCURVE",
"336 131 OFFCURVE",
"336 123 CURVE SMOOTH"
);
}
);
width = 480;
}
);
unicode = 0051;
},
{
glyphname = R;
lastChange = "2021-09-01 20:38:19 +0000";
layers = (
{
anchors = (
{
name = bottom;
position = "{224, 0}";
},
{
name = top;
position = "{224, 600}";
}
);
layerId = "23C4FCBD-6BD7-473B-9A50-F233A862C235";
paths = (
{
closed = 1;
nodes = (
"200 0 LINE",
"200 184 LINE",
"193 189 OFFCURVE",
"188 196 OFFCURVE",
"188 205 CURVE SMOOTH",
"188 218 OFFCURVE",
"199 229 OFFCURVE",
"212 229 CURVE SMOOTH",
"225 229 OFFCURVE",
"236 218 OFFCURVE",
"236 205 CURVE SMOOTH",
"236 196 OFFCURVE",
"231 189 OFFCURVE",
"224 184 CURVE",
"224 0 LINE",
"424 0 LINE",
"424 214 LINE",
"360 278 LINE",
"424 342 LINE",
"424 536 LINE",
"360 600 LINE",
"24 600 LINE",
"24 0 LINE"
);
},
{
closed = 1;
nodes = (
"158 433 OFFCURVE",
"169 444 OFFCURVE",
"182 444 CURVE SMOOTH",
"191 444 OFFCURVE",
"198 439 OFFCURVE",
"203 432 CURVE",
"251 432 LINE",
"256 439 OFFCURVE",
"263 444 OFFCURVE",
"272 444 CURVE SMOOTH",
"285 444 OFFCURVE",
"296 433 OFFCURVE",
"296 420 CURVE SMOOTH",
"296 407 OFFCURVE",
"285 396 OFFCURVE",
"272 396 CURVE SMOOTH",
"263 396 OFFCURVE",
"256 401 OFFCURVE",
"251 408 CURVE",
"203 408 LINE",
"198 401 OFFCURVE",
"191 396 OFFCURVE",
"182 396 CURVE SMOOTH",
"169 396 OFFCURVE",
"158 407 OFFCURVE",
"158 420 CURVE SMOOTH"
);
},
{
closed = 1;
nodes = (
"170 413 OFFCURVE",
"175 408 OFFCURVE",
"182 408 CURVE SMOOTH",
"189 408 OFFCURVE",
"194 413 OFFCURVE",
"194 420 CURVE SMOOTH",
"194 427 OFFCURVE",
"189 432 OFFCURVE",
"182 432 CURVE SMOOTH",
"175 432 OFFCURVE",
"170 427 OFFCURVE",
"170 420 CURVE SMOOTH"
);
},
{
closed = 1;
nodes = (
"260 413 OFFCURVE",
"265 408 OFFCURVE",
"272 408 CURVE SMOOTH",
"279 408 OFFCURVE",
"284 413 OFFCURVE",
"284 420 CURVE SMOOTH",
"284 427 OFFCURVE",
"279 432 OFFCURVE",
"272 432 CURVE SMOOTH",
"265 432 OFFCURVE",
"260 427 OFFCURVE",
"260 420 CURVE SMOOTH"
);
},
{
closed = 1;
nodes = (
"219 193 OFFCURVE",
"224 198 OFFCURVE",
"224 205 CURVE SMOOTH",
"224 212 OFFCURVE",
"219 217 OFFCURVE",
"212 217 CURVE SMOOTH",
"205 217 OFFCURVE",
"200 212 OFFCURVE",
"200 205 CURVE SMOOTH",
"200 198 OFFCURVE",
"205 193 OFFCURVE",
"212 193 CURVE SMOOTH"
);
}
);
width = 448;
}
);
unicode = 0052;
},
{
glyphname = S;
lastChange = "2021-11-17 16:55:27 +0000";
layers = (
{
anchors = (
{
name = bottom;
position = "{240, 0}";
},
{
name = top;
position = "{240, 600}";
}
);
guideLines = (
{
angle = 162.314;
position = "{244, 203}";
}
);
layerId = "23C4FCBD-6BD7-473B-9A50-F233A862C235";
paths = (
{
closed = 1;
nodes = (
"424 0 LINE",
"456 32 LINE",
"456 364 LINE",
"210 442 LINE",
"203 437 OFFCURVE",
"195 434 OFFCURVE",
"187 437 CURVE",
"174 441 OFFCURVE",
"167 455 OFFCURVE",
"171 467 CURVE SMOOTH",
"175 480 OFFCURVE",
"189 487 OFFCURVE",
"201 483 CURVE SMOOTH",
"210 480 OFFCURVE",
"215 473 OFFCURVE",
"218 465 CURVE",
"424 399 LINE",
"424 600 LINE",
"57 600 LINE",
"24 567 LINE",
"24 288 LINE",
"225 224 LINE",
"233 230 OFFCURVE",
"243 233 OFFCURVE",
"252 230 CURVE SMOOTH",
"267 225 OFFCURVE",
"275 209 OFFCURVE",
"271 195 CURVE",
"266 180 OFFCURVE",
"250 172 OFFCURVE",
"236 176 CURVE SMOOTH",
"226 179 OFFCURVE",
"219 188 OFFCURVE",
"217 197 CURVE",
"24 258 LINE",
"24 0 LINE"
);
},
{
closed = 1;
nodes = (
"182 453 OFFCURVE",
"187 448 OFFCURVE",
"194 448 CURVE SMOOTH",
"201 448 OFFCURVE",
"206 453 OFFCURVE",
"206 460 CURVE SMOOTH",
"206 467 OFFCURVE",
"201 472 OFFCURVE",
"194 472 CURVE SMOOTH",
"187 472 OFFCURVE",
"182 467 OFFCURVE",
"182 460 CURVE SMOOTH"
);
},
{
closed = 1;
nodes = (
"230 195 OFFCURVE",
"236 189 OFFCURVE",
"244 189 CURVE SMOOTH",
"252 189 OFFCURVE",
"258 195 OFFCURVE",
"258 203 CURVE SMOOTH",
"258 211 OFFCURVE",
"252 217 OFFCURVE",
"244 217 CURVE SMOOTH",
"236 217 OFFCURVE",
"230 211 OFFCURVE",
"230 203 CURVE SMOOTH"
);
}
);
width = 480;
}
);
rightKerningGroup = S;
unicode = 0053;
},
{
glyphname = Germandbls;
lastChange = "2021-11-25 21:19:06 +0000";
layers = (
{
guideLines = (
{
angle = -27.0778;
position = "{355, 300}";
},
{
angle = 91.8126;
position = "{319, 282}";
}
);
layerId = "23C4FCBD-6BD7-473B-9A50-F233A862C235";
paths = (
{
closed = 1;
nodes = (
"188 433 OFFCURVE",
"193 428 OFFCURVE",
"200 428 CURVE SMOOTH",
"207 428 OFFCURVE",
"212 433 OFFCURVE",
"212 440 CURVE SMOOTH",
"212 447 OFFCURVE",
"207 452 OFFCURVE",
"200 452 CURVE SMOOTH",
"193 452 OFFCURVE",
"188 447 OFFCURVE",
"188 440 CURVE SMOOTH"
);
},
{
closed = 1;
nodes = (
"314 433 OFFCURVE",
"319 428 OFFCURVE",
"326 428 CURVE SMOOTH",
"333 428 OFFCURVE",
"338 433 OFFCURVE",
"338 440 CURVE SMOOTH",
"338 447 OFFCURVE",
"333 452 OFFCURVE",
"326 452 CURVE SMOOTH",
"319 452 OFFCURVE",
"314 447 OFFCURVE",
"314 440 CURVE SMOOTH"
);
},
{
closed = 1;
nodes = (
"343 112 OFFCURVE",
"348 117 OFFCURVE",
"348 124 CURVE SMOOTH",
"348 131 OFFCURVE",
"343 136 OFFCURVE",
"336 136 CURVE SMOOTH",
"329 136 OFFCURVE",
"324 131 OFFCURVE",
"324 124 CURVE SMOOTH",
"324 117 OFFCURVE",
"329 112 OFFCURVE",
"336 112 CURVE SMOOTH"
);
},
{
closed = 1;
nodes = (
"344 279 LINE",
"340 276 OFFCURVE",
"336 275 OFFCURVE",
"331 275 CURVE SMOOTH",
"318 275 OFFCURVE",
"307 286 OFFCURVE",
"307 299 CURVE SMOOTH",
"307 312 OFFCURVE",
"318 323 OFFCURVE",
"331 323 CURVE SMOOTH",
"344 323 OFFCURVE",
"355 312 OFFCURVE",
"355 300 CURVE",
"464 244 LINE",
"464 568 LINE",
"432 600 LINE",
"88 600 LINE",
"24 536 LINE",
"24 0 LINE",
"188 0 LINE",
"188 419 LINE",
"181 424 OFFCURVE",
"176 431 OFFCURVE",
"176 440 CURVE SMOOTH",
"176 453 OFFCURVE",
"187 464 OFFCURVE",
"200 464 CURVE SMOOTH",
"209 464 OFFCURVE",
"216 459 OFFCURVE",
"221 452 CURVE",
"305 452 LINE",
"310 459 OFFCURVE",
"317 464 OFFCURVE",
"326 464 CURVE SMOOTH",
"339 464 OFFCURVE",
"350 453 OFFCURVE",
"350 440 CURVE SMOOTH",
"350 427 OFFCURVE",
"339 416 OFFCURVE",
"326 416 CURVE SMOOTH",
"317 416 OFFCURVE",
"310 421 OFFCURVE",
"305 428 CURVE",
"224 428 LINE",
"212 416 LINE",
"212 201 LINE",
"323 144 LINE",
"327 147 OFFCURVE",
"331 148 OFFCURVE",
"336 148 CURVE SMOOTH",
"349 148 OFFCURVE",
"360 137 OFFCURVE",
"360 124 CURVE SMOOTH",
"360 111 OFFCURVE",
"349 100 OFFCURVE",
"336 100 CURVE SMOOTH",
"323 100 OFFCURVE",
"312 111 OFFCURVE",
"312 123 CURVE",
"212 175 LINE",
"212 0 LINE",
"432 0 LINE",
"464 32 LINE",
"464 218 LINE"
);
},
{
closed = 1;
nodes = (
"324 311 OFFCURVE",
"319 306 OFFCURVE",
"319 299 CURVE SMOOTH",
"319 292 OFFCURVE",
"324 287 OFFCURVE",
"331 287 CURVE SMOOTH",
"338 287 OFFCURVE",
"343 292 OFFCURVE",
"343 299 CURVE SMOOTH",
"343 306 OFFCURVE",
"338 311 OFFCURVE",
"331 311 CURVE SMOOTH"
);
}
);
width = 488;
}
);
unicode = 1E9E;
},
{
glyphname = T;
lastChange = "2021-11-17 16:58:04 +0000";
layers = (
{
anchors = (
{
name = bottom;
position = "{240, 0}";
},
{
name = center;
position = "{240, 250}";
},
{
name = top;
position = "{240, 600}";
}
);
layerId = "23C4FCBD-6BD7-473B-9A50-F233A862C235";
paths = (
{
closed = 1;
nodes = (
"340 0 LINE",
"340 412 LINE",
"456 412 LINE",
"456 600 LINE",
"24 600 LINE",
"24 412 LINE",
"140 412 LINE",
"140 0 LINE"
);
}
);
width = 480;
}
);
leftKerningGroup = T;
rightKerningGroup = T;
unicode = 0054;
},
{
glyphname = U;
lastChange = "2021-09-01 19:48:24 +0000";
layers = (
{
anchors = (
{
name = bottom;
position = "{240, 0}";
},
{
name = ogonek;
position = "{432, 10}";
},
{
name = top;
position = "{240, 600}";
},
{
name = topright;
position = "{460, 600}";
}
);
layerId = "23C4FCBD-6BD7-473B-9A50-F233A862C235";
paths = (
{
closed = 1;
nodes = (
"392 0 LINE",
"456 64 LINE",
"456 600 LINE",
"24 600 LINE",
"24 64 LINE",
"88 0 LINE"
);
},
{
closed = 1;
nodes = (
"248 194 OFFCURVE",
"254 200 OFFCURVE",
"254 208 CURVE SMOOTH",
"254 216 OFFCURVE",
"248 222 OFFCURVE",
"240 222 CURVE SMOOTH",
"232 222 OFFCURVE",
"226 216 OFFCURVE",
"226 208 CURVE SMOOTH",
"226 200 OFFCURVE",
"232 194 OFFCURVE",
"240 194 CURVE SMOOTH"
);
},
{
closed = 1;
nodes = (
"216 217 OFFCURVE",
"221 224 OFFCURVE",
"228 229 CURVE",
"228 600 LINE",
"252 600 LINE",
"252 229 LINE",
"259 224 OFFCURVE",
"264 217 OFFCURVE",
"264 208 CURVE SMOOTH",
"264 195 OFFCURVE",
"253 184 OFFCURVE",
"240 184 CURVE SMOOTH",
"227 184 OFFCURVE",
"216 195 OFFCURVE",
"216 208 CURVE SMOOTH"
);
}
);
width = 480;
}
);
unicode = 0055;
},
{
glyphname = V;
lastChange = "2021-10-13 14:34:21 +0000";
layers = (
{
layerId = "23C4FCBD-6BD7-473B-9A50-F233A862C235";
paths = (
{
closed = 1;
nodes = (
"224 0 LINE",
"440 216 LINE",
"440 600 LINE",
"24 600 LINE",
"24 0 LINE"
);
},
{
closed = 1;
nodes = (
"240 214 OFFCURVE",
"246 220 OFFCURVE",
"246 228 CURVE SMOOTH",
"246 236 OFFCURVE",
"240 242 OFFCURVE",
"232 242 CURVE SMOOTH",
"224 242 OFFCURVE",
"218 236 OFFCURVE",
"218 228 CURVE SMOOTH",
"218 220 OFFCURVE",
"224 214 OFFCURVE",
"232 214 CURVE SMOOTH"
);
},
{
closed = 1;
nodes = (
"208 237 OFFCURVE",
"213 244 OFFCURVE",
"220 249 CURVE",
"220 600 LINE",
"244 600 LINE",
"244 249 LINE",
"251 244 OFFCURVE",
"256 237 OFFCURVE",
"256 228 CURVE SMOOTH",
"256 215 OFFCURVE",
"245 204 OFFCURVE",
"232 204 CURVE SMOOTH",
"219 204 OFFCURVE",
"208 215 OFFCURVE",
"208 228 CURVE SMOOTH"
);
}
);
width = 464;
}
);
unicode = 0056;
},
{
glyphname = W;
lastChange = "2021-10-13 14:34:30 +0000";
layers = (
{
anchors = (
{
name = bottom;
position = "{391, 0}";
},
{
name = top;
position = "{391, 600}";
}
);
guideLines = (
{
angle = 68.459;
position = "{285, 524}";
},
{
angle = -68.459;
position = "{495, 524}";
}
);
layerId = "23C4FCBD-6BD7-473B-9A50-F233A862C235";
paths = (
{
closed = 1;
nodes = (
"227 386 OFFCURVE",
"222 391 OFFCURVE",
"215 391 CURVE SMOOTH",
"208 391 OFFCURVE",
"203 386 OFFCURVE",
"203 379 CURVE SMOOTH",
"203 372 OFFCURVE",
"208 367 OFFCURVE",
"215 367 CURVE SMOOTH",
"222 367 OFFCURVE",
"227 372 OFFCURVE",
"227 379 CURVE SMOOTH"
);
},
{
closed = 1;
nodes = (
"577 386 OFFCURVE",
"572 391 OFFCURVE",
"565 391 CURVE SMOOTH",
"558 391 OFFCURVE",
"553 386 OFFCURVE",
"553 379 CURVE SMOOTH",
"553 372 OFFCURVE",
"558 367 OFFCURVE",
"565 367 CURVE SMOOTH",
"572 367 OFFCURVE",
"577 372 OFFCURVE",
"577 379 CURVE SMOOTH"
);
},
{
closed = 1;
nodes = (
"756 600 LINE",
"756 67 LINE",
"689 0 LINE",
"454 0 LINE",
"390 64 LINE",
"326 0 LINE",
"91 0 LINE",
"24 67 LINE",
"24 600 LINE",
"290 600 LINE",
"212 403 LINE",
"203 401 OFFCURVE",
"196 396 OFFCURVE",
"193 388 CURVE",
"188 376 OFFCURVE",
"194 362 OFFCURVE",
"206 357 CURVE SMOOTH",
"218 352 OFFCURVE",
"232 358 OFFCURVE",
"237 370 CURVE",
"241 378 OFFCURVE",
"239 387 OFFCURVE",
"234 394 CURVE",
"315 600 LINE",
"465 600 LINE",
"546 394 LINE",
"541 387 OFFCURVE",
"539 378 OFFCURVE",
"543 370 CURVE",
"548 358 OFFCURVE",
"562 352 OFFCURVE",
"574 357 CURVE SMOOTH",
"586 362 OFFCURVE",
"592 376 OFFCURVE",
"587 388 CURVE",
"584 396 OFFCURVE",
"577 401 OFFCURVE",
"568 403 CURVE",
"490 600 LINE"
);
}
);
width = 780;
}
);
unicode = 0057;
},
{
glyphname = X;
lastChange = "2021-09-01 19:48:59 +0000";
layers = (
{
anchors = (
{
name = bottom;
position = "{240, 0}";
},
{
name = top;
position = "{240, 600}";
}
);
layerId = "23C4FCBD-6BD7-473B-9A50-F233A862C235";
paths = (
{
closed = 1;
nodes = (
"228 0 LINE",
"228 141 LINE",
"221 146 OFFCURVE",
"216 153 OFFCURVE",
"216 162 CURVE SMOOTH",
"216 175 OFFCURVE",
"227 186 OFFCURVE",
"240 186 CURVE SMOOTH",
"253 186 OFFCURVE",
"264 175 OFFCURVE",
"264 162 CURVE SMOOTH",
"264 153 OFFCURVE",
"259 146 OFFCURVE",
"252 141 CURVE",
"252 0 LINE",
"456 0 LINE",
"456 254 LINE",
"392 318 LINE",
"456 382 LINE",
"456 600 LINE",
"252 600 LINE",
"252 459 LINE",
"259 454 OFFCURVE",
"264 447 OFFCURVE",
"264 438 CURVE SMOOTH",
"264 425 OFFCURVE",
"253 414 OFFCURVE",
"240 414 CURVE SMOOTH",
"227 414 OFFCURVE",
"216 425 OFFCURVE",
"216 438 CURVE SMOOTH",
"216 447 OFFCURVE",
"221 454 OFFCURVE",
"228 459 CURVE",
"228 600 LINE",
"24 600 LINE",
"24 382 LINE",
"88 318 LINE",
"24 254 LINE",
"24 0 LINE"
);
},
{
closed = 1;
nodes = (
"228 155 OFFCURVE",
"233 150 OFFCURVE",
"240 150 CURVE SMOOTH",
"247 150 OFFCURVE",
"252 155 OFFCURVE",
"252 162 CURVE SMOOTH",
"252 169 OFFCURVE",
"247 174 OFFCURVE",
"240 174 CURVE SMOOTH",
"233 174 OFFCURVE",
"228 169 OFFCURVE",
"228 162 CURVE SMOOTH"
);
},
{
closed = 1;
nodes = (
"228 431 OFFCURVE",
"233 426 OFFCURVE",
"240 426 CURVE SMOOTH",
"247 426 OFFCURVE",
"252 431 OFFCURVE",
"252 438 CURVE SMOOTH",
"252 445 OFFCURVE",
"247 450 OFFCURVE",
"240 450 CURVE SMOOTH",
"233 450 OFFCURVE",
"228 445 OFFCURVE",
"228 438 CURVE SMOOTH"
);
}
);
width = 480;
}
);
unicode = 0058;
},
{
glyphname = Y;
lastChange = "2021-09-01 19:49:10 +0000";
layers = (
{
anchors = (
{
name = bottom;
position = "{224, 0}";
},
{
name = top;
position = "{224, 600}";
},
{
name = topleft;
position = "{20, 600}";
}
);
layerId = "23C4FCBD-6BD7-473B-9A50-F233A862C235";
paths = (
{
closed = 1;
nodes = (
"360 0 LINE",
"424 64 LINE",
"424 600 LINE",
"236 600 LINE",
"236 416 LINE",
"243 411 OFFCURVE",
"248 404 OFFCURVE",
"248 395 CURVE SMOOTH",
"248 382 OFFCURVE",
"237 371 OFFCURVE",
"224 371 CURVE SMOOTH",
"211 371 OFFCURVE",
"200 382 OFFCURVE",
"200 395 CURVE SMOOTH",
"200 404 OFFCURVE",
"205 411 OFFCURVE",
"212 416 CURVE",
"212 600 LINE",
"24 600 LINE",
"24 265 LINE",
"77 212 LINE",
"203 212 LINE",
"208 219 OFFCURVE",
"215 224 OFFCURVE",
"224 224 CURVE SMOOTH",
"237 224 OFFCURVE",
"248 213 OFFCURVE",
"248 200 CURVE SMOOTH",
"248 187 OFFCURVE",
"237 176 OFFCURVE",
"224 176 CURVE SMOOTH",
"215 176 OFFCURVE",
"208 181 OFFCURVE",
"203 188 CURVE",
"24 188 LINE",
"24 0 LINE"
);
},
{
closed = 1;
nodes = (
"212 388 OFFCURVE",
"217 383 OFFCURVE",
"224 383 CURVE SMOOTH",
"231 383 OFFCURVE",
"236 388 OFFCURVE",
"236 395 CURVE SMOOTH",
"236 402 OFFCURVE",
"231 407 OFFCURVE",
"224 407 CURVE SMOOTH",
"217 407 OFFCURVE",
"212 402 OFFCURVE",
"212 395 CURVE SMOOTH"
);
},
{
closed = 1;
nodes = (
"231 188 OFFCURVE",
"236 193 OFFCURVE",
"236 200 CURVE SMOOTH",
"236 207 OFFCURVE",
"231 212 OFFCURVE",
"224 212 CURVE SMOOTH",
"217 212 OFFCURVE",
"212 207 OFFCURVE",
"212 200 CURVE SMOOTH",
"212 193 OFFCURVE",
"217 188 OFFCURVE",
"224 188 CURVE SMOOTH"
);
}
);
width = 448;
}
);
unicode = 0059;
},
{
glyphname = Z;
lastChange = "2021-09-01 20:38:41 +0000";
layers = (
{
anchors = (
{
name = bottom;
position = "{240, 0}";
},
{
name = center;
position = "{240, 300}";
},
{
name = top;
position = "{240, 600}";
}
);
guideLines = (
{
angle = 16.9908;
position = "{164, 382}";
}
);
layerId = "23C4FCBD-6BD7-473B-9A50-F233A862C235";
paths = (
{
closed = 1;
nodes = (
"456 0 LINE",
"456 268 LINE",
"253 207 LINE",
"251 198 OFFCURVE",
"244 189 OFFCURVE",
"234 186 CURVE SMOOTH",
"220 182 OFFCURVE",
"204 190 OFFCURVE",
"199 205 CURVE",
"195 219 OFFCURVE",
"203 235 OFFCURVE",
"218 240 CURVE SMOOTH",
"227 243 OFFCURVE",
"237 240 OFFCURVE",
"245 234 CURVE",
"456 298 LINE",
"456 600 LINE",
"423 600 LINE",
"24 600 LINE",
"24 339 LINE",
"272 415 LINE",
"275 423 OFFCURVE",
"280 430 OFFCURVE",
"289 433 CURVE SMOOTH",
"301 437 OFFCURVE",
"315 430 OFFCURVE",
"319 417 CURVE SMOOTH",
"323 405 OFFCURVE",
"316 391 OFFCURVE",
"303 387 CURVE",
"295 384 OFFCURVE",
"287 387 OFFCURVE",
"280 392 CURVE",
"24 314 LINE",
"24 0 LINE",
"56 0 LINE"
);
},
{
closed = 1;
nodes = (
"234 199 OFFCURVE",
"240 205 OFFCURVE",
"240 213 CURVE SMOOTH",
"240 221 OFFCURVE",
"234 227 OFFCURVE",
"226 227 CURVE SMOOTH",
"218 227 OFFCURVE",
"212 221 OFFCURVE",
"212 213 CURVE SMOOTH",
"212 205 OFFCURVE",
"218 199 OFFCURVE",
"226 199 CURVE SMOOTH"
);
},
{
closed = 1;
nodes = (
"303 398 OFFCURVE",
"308 403 OFFCURVE",
"308 410 CURVE SMOOTH",
"308 417 OFFCURVE",
"303 422 OFFCURVE",
"296 422 CURVE SMOOTH",
"289 422 OFFCURVE",
"284 417 OFFCURVE",
"284 410 CURVE SMOOTH",
"284 403 OFFCURVE",
"289 398 OFFCURVE",
"296 398 CURVE SMOOTH"
);
}
);
width = 480;
}
);
unicode = 005A;
},
{
glyphname = A.001;
lastChange = "2021-09-01 20:07:46 +0000";
layers = (
{
anchors = (
{
name = bottom;
position = "{240, 0}";
},
{
name = ogonek;
position = "{432, 10}";
},
{
name = top;
position = "{240, 600}";
}
);
layerId = "23C4FCBD-6BD7-473B-9A50-F233A862C235";
paths = (
{
closed = 1;
nodes = (
"247 388 OFFCURVE",
"252 393 OFFCURVE",
"252 400 CURVE SMOOTH",
"252 407 OFFCURVE",
"247 412 OFFCURVE",
"240 412 CURVE SMOOTH",
"233 412 OFFCURVE",
"228 407 OFFCURVE",
"228 400 CURVE SMOOTH",
"228 393 OFFCURVE",
"233 388 OFFCURVE",
"240 388 CURVE SMOOTH"
);
},
{
closed = 1;
nodes = (
"248 284 OFFCURVE",
"254 290 OFFCURVE",
"254 298 CURVE SMOOTH",
"254 306 OFFCURVE",
"248 312 OFFCURVE",
"240 312 CURVE SMOOTH",
"232 312 OFFCURVE",
"226 306 OFFCURVE",
"226 298 CURVE SMOOTH",
"226 290 OFFCURVE",
"232 284 OFFCURVE",
"240 284 CURVE SMOOTH"
);
},
{
closed = 1;
nodes = (
"252 319 LINE",
"259 314 OFFCURVE",
"264 307 OFFCURVE",
"264 298 CURVE SMOOTH",
"264 285 OFFCURVE",
"253 274 OFFCURVE",
"240 274 CURVE SMOOTH",
"227 274 OFFCURVE",
"216 285 OFFCURVE",
"216 298 CURVE SMOOTH",
"216 307 OFFCURVE",
"221 314 OFFCURVE",
"228 319 CURVE",
"228 379 LINE",
"221 384 OFFCURVE",
"216 391 OFFCURVE",
"216 400 CURVE SMOOTH",
"216 413 OFFCURVE",
"227 424 OFFCURVE",
"240 424 CURVE SMOOTH",
"253 424 OFFCURVE",
"264 413 OFFCURVE",
"264 400 CURVE SMOOTH",
"264 391 OFFCURVE",
"259 384 OFFCURVE",
"252 379 CURVE"
);
},
{
closed = 1;
nodes = (
"247 124 OFFCURVE",
"252 129 OFFCURVE",
"252 136 CURVE SMOOTH",
"252 143 OFFCURVE",
"247 148 OFFCURVE",
"240 148 CURVE SMOOTH",
"233 148 OFFCURVE",
"228 143 OFFCURVE",
"228 136 CURVE SMOOTH",
"228 129 OFFCURVE",
"233 124 OFFCURVE",
"240 124 CURVE SMOOTH"
);
},
{
closed = 1;
nodes = (
"221 120 OFFCURVE",
"216 127 OFFCURVE",
"216 136 CURVE SMOOTH",
"216 149 OFFCURVE",
"227 160 OFFCURVE",
"240 160 CURVE SMOOTH",
"253 160 OFFCURVE",
"264 149 OFFCURVE",
"264 136 CURVE SMOOTH",
"264 127 OFFCURVE",
"259 120 OFFCURVE",
"252 115 CURVE",
"252 0 LINE",
"456 0 LINE",
"456 536 LINE",
"392 600 LINE",
"88 600 LINE",
"24 536 LINE",
"24 0 LINE",
"228 0 LINE",
"228 115 LINE"
);
}
);
width = 480;
}
);
},
{
glyphname = Eth.E;
lastChange = "2021-11-17 19:45:56 +0000";
layers = (
{
layerId = "23C4FCBD-6BD7-473B-9A50-F233A862C235";
paths = (
{
closed = 1;
nodes = (
"112 212 LINE",
"112 0 LINE",
"480 0 LINE",
"544 64 LINE",
"544 536 LINE",
"480 600 LINE",
"112 600 LINE",
"112 388 LINE",
"24 388 LINE",
"24 212 LINE"
);
},
{
closed = 1;
nodes = (
"245 213 OFFCURVE",
"256 224 OFFCURVE",
"269 224 CURVE SMOOTH",
"278 224 OFFCURVE",
"285 219 OFFCURVE",
"290 212 CURVE",
"316 212 LINE",
"316 388 LINE",
"290 388 LINE",
"285 381 OFFCURVE",
"278 376 OFFCURVE",
"269 376 CURVE SMOOTH",
"256 376 OFFCURVE",
"245 387 OFFCURVE",
"245 400 CURVE SMOOTH",
"245 413 OFFCURVE",
"256 424 OFFCURVE",
"269 424 CURVE SMOOTH",
"278 424 OFFCURVE",
"285 419 OFFCURVE",
"290 412 CURVE",
"340 412 LINE",
"340 188 LINE",
"290 188 LINE",
"285 181 OFFCURVE",
"278 176 OFFCURVE",
"269 176 CURVE SMOOTH",
"256 176 OFFCURVE",
"245 187 OFFCURVE",
"245 200 CURVE SMOOTH"
);
},
{
closed = 1;
nodes = (
"257 193 OFFCURVE",
"262 188 OFFCURVE",
"269 188 CURVE SMOOTH",
"276 188 OFFCURVE",
"281 193 OFFCURVE",
"281 200 CURVE SMOOTH",
"281 207 OFFCURVE",
"276 212 OFFCURVE",
"269 212 CURVE SMOOTH",
"262 212 OFFCURVE",
"257 207 OFFCURVE",
"257 200 CURVE SMOOTH"
);
},
{
closed = 1;
nodes = (
"257 393 OFFCURVE",
"262 388 OFFCURVE",
"269 388 CURVE SMOOTH",
"276 388 OFFCURVE",
"281 393 OFFCURVE",
"281 400 CURVE SMOOTH",
"281 407 OFFCURVE",
"276 412 OFFCURVE",
"269 412 CURVE SMOOTH",
"262 412 OFFCURVE",
"257 407 OFFCURVE",
"257 400 CURVE SMOOTH"
);
}
);
width = 568;
}
);
},
{
glyphname = AE.Eth;
lastChange = "2021-11-18 13:52:51 +0000";
layers = (
{
anchors = (
{
name = bottom;
position = "{358, 0}";
},
{
name = top;
position = "{358, 600}";
}
);
layerId = "23C4FCBD-6BD7-473B-9A50-F233A862C235";
paths = (
{
closed = 1;
nodes = (
"89 0 LINE",
"360 0 LINE",
"360 600 LINE",
"44 600 LINE",
"44 412 LINE",
"203 412 LINE",
"208 419 OFFCURVE",
"215 424 OFFCURVE",
"224 424 CURVE SMOOTH",
"237 424 OFFCURVE",
"248 413 OFFCURVE",
"248 400 CURVE SMOOTH",
"248 387 OFFCURVE",
"237 376 OFFCURVE",
"224 376 CURVE SMOOTH",
"215 376 OFFCURVE",
"208 381 OFFCURVE",
"203 388 CURVE",
"88 388 LINE",
"24 324 LINE",
"24 65 LINE"
);
},
{
closed = 1;
nodes = (
"159 207 OFFCURVE",
"170 218 OFFCURVE",
"183 218 CURVE SMOOTH",
"192 218 OFFCURVE",
"199 213 OFFCURVE",
"204 206 CURVE",
"254 206 LINE",
"259 213 OFFCURVE",
"266 218 OFFCURVE",
"275 218 CURVE SMOOTH",
"288 218 OFFCURVE",
"299 207 OFFCURVE",
"299 194 CURVE SMOOTH",
"299 181 OFFCURVE",
"288 170 OFFCURVE",
"275 170 CURVE SMOOTH",
"266 170 OFFCURVE",
"259 175 OFFCURVE",
"254 182 CURVE",
"204 182 LINE",
"199 175 OFFCURVE",
"192 170 OFFCURVE",
"183 170 CURVE SMOOTH",
"170 170 OFFCURVE",
"159 181 OFFCURVE",
"159 194 CURVE SMOOTH"
);
},
{
closed = 1;
nodes = (
"171 187 OFFCURVE",
"176 182 OFFCURVE",
"183 182 CURVE SMOOTH",
"190 182 OFFCURVE",
"195 187 OFFCURVE",
"195 194 CURVE SMOOTH",
"195 201 OFFCURVE",
"190 206 OFFCURVE",
"183 206 CURVE SMOOTH",
"176 206 OFFCURVE",
"171 201 OFFCURVE",
"171 194 CURVE SMOOTH"
);
},
{
closed = 1;
nodes = (
"212 393 OFFCURVE",
"217 388 OFFCURVE",
"224 388 CURVE SMOOTH",
"231 388 OFFCURVE",
"236 393 OFFCURVE",
"236 400 CURVE SMOOTH",
"236 407 OFFCURVE",
"231 412 OFFCURVE",
"224 412 CURVE SMOOTH",
"217 412 OFFCURVE",
"212 407 OFFCURVE",
"212 400 CURVE SMOOTH"
);
},
{
closed = 1;
nodes = (
"263 187 OFFCURVE",
"268 182 OFFCURVE",
"275 182 CURVE SMOOTH",
"282 182 OFFCURVE",
"287 187 OFFCURVE",
"287 194 CURVE SMOOTH",
"287 201 OFFCURVE",
"282 206 OFFCURVE",
"275 206 CURVE SMOOTH",
"268 206 OFFCURVE",
"263 201 OFFCURVE",
"263 194 CURVE SMOOTH"
);
},
{
closed = 1;
nodes = (
"692 0 LINE",
"692 188 LINE",
"484 188 LINE",
"479 180 OFFCURVE",
"470 174 OFFCURVE",
"460 174 CURVE SMOOTH",
"445 174 OFFCURVE",
"432 187 OFFCURVE",
"432 202 CURVE SMOOTH",
"432 217 OFFCURVE",
"445 230 OFFCURVE",
"460 230 CURVE SMOOTH",
"470 230 OFFCURVE",
"479 224 OFFCURVE",
"484 216 CURVE",
"604 216 LINE",
"604 388 LINE",
"481 388 LINE",
"476 381 OFFCURVE",
"469 376 OFFCURVE",
"460 376 CURVE SMOOTH",
"447 376 OFFCURVE",
"436 387 OFFCURVE",
"436 400 CURVE SMOOTH",
"436 413 OFFCURVE",
"447 424 OFFCURVE",
"460 424 CURVE SMOOTH",
"469 424 OFFCURVE",
"476 419 OFFCURVE",
"481 412 CURVE",
"660 412 LINE",
"660 600 LINE",
"360 600 LINE",
"360 0 LINE"
);
},
{
closed = 1;
nodes = (
"467 388 OFFCURVE",
"472 393 OFFCURVE",
"472 400 CURVE SMOOTH",
"472 407 OFFCURVE",
"467 412 OFFCURVE",
"460 412 CURVE SMOOTH",
"453 412 OFFCURVE",
"448 407 OFFCURVE",
"448 400 CURVE",
"448 393 OFFCURVE",
"453 388 OFFCURVE",
"460 388 CURVE SMOOTH"
);
},
{
closed = 1;
nodes = (
"468 188 OFFCURVE",
"474 194 OFFCURVE",
"474 202 CURVE SMOOTH",
"474 210 OFFCURVE",
"468 216 OFFCURVE",
"460 216 CURVE SMOOTH",
"452 216 OFFCURVE",
"446 210 OFFCURVE",
"446 202 CURVE SMOOTH",
"446 194 OFFCURVE",
"452 188 OFFCURVE",
"460 188 CURVE SMOOTH"
);
}
);
width = 716;
}
);
leftKerningGroup = A;
rightKerningGroup = E.eth;
},
{
glyphname = E.Eth;
lastChange = "2021-11-18 14:14:59 +0000";
layers = (
{
anchors = (
{
name = bottom;
position = "{240, 0}";
},
{
name = ogonek;
position = "{432, 10}";
},
{
name = top;
position = "{240, 600}";
},
{
name = topleft;
position = "{20, 600}";
}
);
guideLines = (
{
angle = 180;
position = "{193, 400}";
},
{
angle = -45;
position = "{24, 600}";
}
);
layerId = "23C4FCBD-6BD7-473B-9A50-F233A862C235";
paths = (
{
closed = 1;
nodes = (
"456 0 LINE",
"456 188 LINE",
"248 188 LINE",
"243 180 OFFCURVE",
"234 174 OFFCURVE",
"224 174 CURVE SMOOTH",
"209 174 OFFCURVE",
"196 187 OFFCURVE",
"196 202 CURVE SMOOTH",
"196 217 OFFCURVE",
"209 230 OFFCURVE",
"224 230 CURVE SMOOTH",
"234 230 OFFCURVE",
"243 224 OFFCURVE",
"248 216 CURVE",
"368 216 LINE",
"368 388 LINE",
"245 388 LINE",
"240 381 OFFCURVE",
"233 376 OFFCURVE",
"224 376 CURVE SMOOTH",
"211 376 OFFCURVE",
"200 387 OFFCURVE",
"200 400 CURVE SMOOTH",
"200 413 OFFCURVE",
"211 424 OFFCURVE",
"224 424 CURVE SMOOTH",
"233 424 OFFCURVE",
"240 419 OFFCURVE",
"245 412 CURVE",
"424 412 LINE",
"424 600 LINE",
"24 600 LINE",
"24 0 LINE"
);
},
{
closed = 1;
nodes = (
"231 388 OFFCURVE",
"236 393 OFFCURVE",
"236 400 CURVE SMOOTH",
"236 407 OFFCURVE",
"231 412 OFFCURVE",
"224 412 CURVE SMOOTH",
"217 412 OFFCURVE",
"212 407 OFFCURVE",
"212 400 CURVE",
"212 393 OFFCURVE",
"217 388 OFFCURVE",
"224 388 CURVE SMOOTH"
);
},
{
closed = 1;
nodes = (
"232 188 OFFCURVE",
"238 194 OFFCURVE",
"238 202 CURVE SMOOTH",
"238 210 OFFCURVE",
"232 216 OFFCURVE",
"224 216 CURVE SMOOTH",
"216 216 OFFCURVE",
"210 210 OFFCURVE",
"210 202 CURVE SMOOTH",
"210 194 OFFCURVE",
"216 188 OFFCURVE",
"224 188 CURVE SMOOTH"
);
}
);
width = 480;
}
);
rightKerningGroup = E.eth;
},
{
glyphname = F.Eth;
lastChange = "2021-11-18 14:30:11 +0000";
layers = (
{
anchors = (
{
name = bottom;
position = "{224, 0}";
},
{
name = top;
position = "{224, 600}";
}
);
layerId = "23C4FCBD-6BD7-473B-9A50-F233A862C235";
paths = (
{
closed = 1;
nodes = (
"224 0 LINE",
"224 200 LINE",
"336 200 LINE",
"336 388 LINE",
"245 388 LINE",
"240 381 OFFCURVE",
"233 376 OFFCURVE",
"224 376 CURVE SMOOTH",
"211 376 OFFCURVE",
"200 387 OFFCURVE",
"200 400 CURVE SMOOTH",
"200 413 OFFCURVE",
"211 424 OFFCURVE",
"224 424 CURVE SMOOTH",
"233 424 OFFCURVE",
"240 419 OFFCURVE",
"245 412 CURVE",
"424 412 LINE",
"424 600 LINE",
"24 600 LINE",
"24 0 LINE"
);
},
{
closed = 1;
nodes = (
"231 388 OFFCURVE",
"236 393 OFFCURVE",
"236 400 CURVE SMOOTH",
"236 407 OFFCURVE",
"231 412 OFFCURVE",
"224 412 CURVE SMOOTH",
"217 412 OFFCURVE",
"212 407 OFFCURVE",
"212 400 CURVE SMOOTH",
"212 393 OFFCURVE",
"217 388 OFFCURVE",
"224 388 CURVE SMOOTH"
);
}
);
width = 448;
}
);
rightKerningGroup = F.eth;
},
{
glyphname = L.Eth;
lastChange = "2021-11-18 14:48:52 +0000";
layers = (
{
anchors = (
{
name = bottom;
position = "{224, 0}";
},
{
name = center;
position = "{134, 410}";
},
{
name = top;
position = "{124, 600}";
},
{
name = topright;
position = "{428, 600}";
}
);
layerId = "23C4FCBD-6BD7-473B-9A50-F233A862C235";
paths = (
{
closed = 1;
nodes = (
"424 0 LINE",
"424 200 LINE",
"241 200 LINE",
"213 172 LINE",
"214 170 OFFCURVE",
"214 168 OFFCURVE",
"214 166 CURVE",
"214 153 OFFCURVE",
"203 142 OFFCURVE",
"190 142 CURVE SMOOTH",
"177 142 OFFCURVE",
"166 153 OFFCURVE",
"166 166 CURVE SMOOTH",
"166 179 OFFCURVE",
"177 190 OFFCURVE",
"190 190 CURVE",
"192 190 OFFCURVE",
"194 190 OFFCURVE",
"196 189 CURVE",
"224 217 LINE",
"224 600 LINE",
"24 600 LINE",
"24 0 LINE"
);
},
{
closed = 1;
nodes = (
"178 159 OFFCURVE",
"183 154 OFFCURVE",
"190 154 CURVE SMOOTH",
"197 154 OFFCURVE",
"202 159 OFFCURVE",
"202 166 CURVE SMOOTH",
"202 173 OFFCURVE",
"197 178 OFFCURVE",
"190 178 CURVE SMOOTH",
"183 178 OFFCURVE",
"178 173 OFFCURVE",
"178 166 CURVE SMOOTH"
);
}
);
width = 448;
}
);
rightKerningGroup = L.eth;
},
{
glyphname = OE.Eth;
lastChange = "2021-11-18 14:14:59 +0000";
layers = (
{
layerId = "23C4FCBD-6BD7-473B-9A50-F233A862C235";
paths = (
{
closed = 1;
nodes = (
"247 388 OFFCURVE",
"252 393 OFFCURVE",
"252 400 CURVE SMOOTH",
"252 407 OFFCURVE",
"247 412 OFFCURVE",
"240 412 CURVE SMOOTH",
"233 412 OFFCURVE",
"228 407 OFFCURVE",
"228 400 CURVE SMOOTH",
"228 393 OFFCURVE",
"233 388 OFFCURVE",
"240 388 CURVE SMOOTH"
);
},
{
closed = 1;
nodes = (
"248 219 OFFCURVE",
"254 225 OFFCURVE",
"254 233 CURVE SMOOTH",
"254 241 OFFCURVE",
"248 247 OFFCURVE",
"240 247 CURVE SMOOTH",
"232 247 OFFCURVE",
"226 241 OFFCURVE",
"226 233 CURVE SMOOTH",
"226 225 OFFCURVE",
"232 219 OFFCURVE",
"240 219 CURVE SMOOTH"
);
},
{
closed = 1;
nodes = (
"216 242 OFFCURVE",
"221 249 OFFCURVE",
"228 254 CURVE",
"228 379 LINE",
"221 384 OFFCURVE",
"216 391 OFFCURVE",
"216 400 CURVE SMOOTH",
"216 413 OFFCURVE",
"227 424 OFFCURVE",
"240 424 CURVE SMOOTH",
"253 424 OFFCURVE",
"264 413 OFFCURVE",
"264 400 CURVE SMOOTH",
"264 391 OFFCURVE",
"259 384 OFFCURVE",
"252 379 CURVE",
"252 254 LINE",
"259 249 OFFCURVE",
"264 242 OFFCURVE",
"264 233 CURVE SMOOTH",
"264 220 OFFCURVE",
"253 209 OFFCURVE",
"240 209 CURVE SMOOTH",
"227 209 OFFCURVE",
"216 220 OFFCURVE",
"216 233 CURVE SMOOTH"
);
},
{
closed = 1;
nodes = (
"88 0 LINE",
"374 0 LINE",
"374 600 LINE",
"88 600 LINE",
"24 536 LINE",
"24 64 LINE"
);
},
{
closed = 1;
nodes = (
"706 0 LINE",
"706 188 LINE",
"498 188 LINE",
"493 180 OFFCURVE",
"484 174 OFFCURVE",
"474 174 CURVE SMOOTH",
"459 174 OFFCURVE",
"446 187 OFFCURVE",
"446 202 CURVE SMOOTH",
"446 217 OFFCURVE",
"459 230 OFFCURVE",
"474 230 CURVE SMOOTH",
"484 230 OFFCURVE",
"493 224 OFFCURVE",
"498 216 CURVE",
"618 216 LINE",
"618 388 LINE",
"495 388 LINE",
"490 381 OFFCURVE",
"483 376 OFFCURVE",
"474 376 CURVE SMOOTH",
"461 376 OFFCURVE",
"450 387 OFFCURVE",
"450 400 CURVE SMOOTH",
"450 413 OFFCURVE",
"461 424 OFFCURVE",
"474 424 CURVE SMOOTH",
"483 424 OFFCURVE",
"490 419 OFFCURVE",
"495 412 CURVE",
"674 412 LINE",
"674 600 LINE",
"274 600 LINE",
"274 0 LINE"
);
},
{
closed = 1;
nodes = (
"481 388 OFFCURVE",
"486 393 OFFCURVE",
"486 400 CURVE SMOOTH",
"486 407 OFFCURVE",
"481 412 OFFCURVE",
"474 412 CURVE SMOOTH",
"467 412 OFFCURVE",
"462 407 OFFCURVE",
"462 400 CURVE",
"462 393 OFFCURVE",
"467 388 OFFCURVE",
"474 388 CURVE SMOOTH"
);
},
{
closed = 1;
nodes = (
"482 188 OFFCURVE",
"488 194 OFFCURVE",
"488 202 CURVE SMOOTH",
"488 210 OFFCURVE",
"482 216 OFFCURVE",
"474 216 CURVE SMOOTH",
"466 216 OFFCURVE",
"460 210 OFFCURVE",
"460 202 CURVE SMOOTH",
"460 194 OFFCURVE",
"466 188 OFFCURVE",
"474 188 CURVE SMOOTH"
);
}
);
width = 730;
}
);
rightKerningGroup = E.eth;
},
{
glyphname = Eth.L;
lastChange = "2021-11-17 17:39:04 +0000";
layers = (
{
layerId = "23C4FCBD-6BD7-473B-9A50-F233A862C235";
paths = (
{
closed = 1;
nodes = (
"112 224 LINE",
"112 0 LINE",
"480 0 LINE",
"544 64 LINE",
"544 536 LINE",
"480 600 LINE",
"112 600 LINE",
"112 424 LINE",
"12 424 LINE",
"12 224 LINE"
);
},
{
closed = 1;
nodes = (
"245 225 OFFCURVE",
"256 236 OFFCURVE",
"269 236 CURVE SMOOTH",
"278 236 OFFCURVE",
"285 231 OFFCURVE",
"290 224 CURVE",
"316 224 LINE",
"316 400 LINE",
"290 400 LINE",
"285 393 OFFCURVE",
"278 388 OFFCURVE",
"269 388 CURVE SMOOTH",
"256 388 OFFCURVE",
"245 399 OFFCURVE",
"245 412 CURVE SMOOTH",
"245 425 OFFCURVE",
"256 436 OFFCURVE",
"269 436 CURVE SMOOTH",
"278 436 OFFCURVE",
"285 431 OFFCURVE",
"290 424 CURVE",
"340 424 LINE",
"340 200 LINE",
"290 200 LINE",
"285 193 OFFCURVE",
"278 188 OFFCURVE",
"269 188 CURVE SMOOTH",
"256 188 OFFCURVE",
"245 199 OFFCURVE",
"245 212 CURVE SMOOTH"
);
},
{
closed = 1;
nodes = (
"257 205 OFFCURVE",
"262 200 OFFCURVE",
"269 200 CURVE SMOOTH",
"276 200 OFFCURVE",
"281 205 OFFCURVE",
"281 212 CURVE SMOOTH",
"281 219 OFFCURVE",
"276 224 OFFCURVE",
"269 224 CURVE SMOOTH",
"262 224 OFFCURVE",
"257 219 OFFCURVE",
"257 212 CURVE SMOOTH"
);
},
{
closed = 1;
nodes = (
"257 405 OFFCURVE",
"262 400 OFFCURVE",
"269 400 CURVE SMOOTH",
"276 400 OFFCURVE",
"281 405 OFFCURVE",
"281 412 CURVE SMOOTH",
"281 419 OFFCURVE",
"276 424 OFFCURVE",
"269 424 CURVE SMOOTH",
"262 424 OFFCURVE",
"257 419 OFFCURVE",
"257 412 CURVE SMOOTH"
);
}
);
width = 568;
}
);
},
{
glyphname = Eth.T;
lastChange = "2021-11-17 19:18:29 +0000";
layers = (
{
layerId = "23C4FCBD-6BD7-473B-9A50-F233A862C235";
paths = (
{
closed = 1;
nodes = (
"112 200 LINE",
"112 0 LINE",
"480 0 LINE",
"544 64 LINE",
"544 536 LINE",
"480 600 LINE",
"112 600 LINE",
"112 388 LINE",
"24 388 LINE",
"24 200 LINE"
);
},
{
closed = 1;
nodes = (
"245 213 OFFCURVE",
"256 224 OFFCURVE",
"269 224 CURVE SMOOTH",
"278 224 OFFCURVE",
"285 219 OFFCURVE",
"290 212 CURVE",
"316 212 LINE",
"316 388 LINE",
"290 388 LINE",
"285 381 OFFCURVE",
"278 376 OFFCURVE",
"269 376 CURVE SMOOTH",
"256 376 OFFCURVE",
"245 387 OFFCURVE",
"245 400 CURVE SMOOTH",
"245 413 OFFCURVE",
"256 424 OFFCURVE",
"269 424 CURVE SMOOTH",
"278 424 OFFCURVE",
"285 419 OFFCURVE",
"290 412 CURVE",
"340 412 LINE",
"340 188 LINE",
"290 188 LINE",
"285 181 OFFCURVE",
"278 176 OFFCURVE",
"269 176 CURVE SMOOTH",
"256 176 OFFCURVE",
"245 187 OFFCURVE",
"245 200 CURVE SMOOTH"
);
},
{
closed = 1;
nodes = (
"257 193 OFFCURVE",
"262 188 OFFCURVE",
"269 188 CURVE SMOOTH",
"276 188 OFFCURVE",
"281 193 OFFCURVE",
"281 200 CURVE SMOOTH",
"281 207 OFFCURVE",
"276 212 OFFCURVE",
"269 212 CURVE SMOOTH",
"262 212 OFFCURVE",
"257 207 OFFCURVE",
"257 200 CURVE SMOOTH"
);
},
{
closed = 1;
nodes = (
"257 393 OFFCURVE",
"262 388 OFFCURVE",
"269 388 CURVE SMOOTH",
"276 388 OFFCURVE",
"281 393 OFFCURVE",
"281 400 CURVE SMOOTH",
"281 407 OFFCURVE",
"276 412 OFFCURVE",
"269 412 CURVE SMOOTH",
"262 412 OFFCURVE",
"257 407 OFFCURVE",
"257 400 CURVE SMOOTH"
);
}
);
width = 568;
}
);
},
{
export = 0;
glyphname = I.001;
lastChange = "2021-11-25 21:31:00 +0000";
layers = (
{
layerId = "23C4FCBD-6BD7-473B-9A50-F233A862C235";
paths = (
{
closed = 1;
nodes = (
"456 0 LINE",
"456 219 LINE",
"340 219 LINE",
"340 412 LINE",
"440 412 LINE",
"440 600 LINE",
"40 600 LINE",
"40 412 LINE",
"140 412 LINE",
"140 219 LINE",
"24 219 LINE",
"24 0 LINE"
);
},
{
closed = 1;
nodes = (
"216 228 OFFCURVE",
"221 235 OFFCURVE",
"228 240 CURVE",
"228 391 LINE",
"221 396 OFFCURVE",
"216 403 OFFCURVE",
"216 412 CURVE SMOOTH",
"216 425 OFFCURVE",
"227 436 OFFCURVE",
"240 436 CURVE SMOOTH",
"253 436 OFFCURVE",
"264 425 OFFCURVE",
"264 412 CURVE SMOOTH",
"264 403 OFFCURVE",
"259 396 OFFCURVE",
"252 391 CURVE",
"252 240 LINE",
"259 235 OFFCURVE",
"264 228 OFFCURVE",
"264 219 CURVE SMOOTH",
"264 206 OFFCURVE",
"253 195 OFFCURVE",
"240 195 CURVE SMOOTH",
"227 195 OFFCURVE",
"216 206 OFFCURVE",
"216 219 CURVE SMOOTH"
);
},
{
closed = 1;
nodes = (
"228 212 OFFCURVE",
"233 207 OFFCURVE",
"240 207 CURVE SMOOTH",
"247 207 OFFCURVE",
"252 212 OFFCURVE",
"252 219 CURVE SMOOTH",
"252 226 OFFCURVE",
"247 231 OFFCURVE",
"240 231 CURVE SMOOTH",
"233 231 OFFCURVE",
"228 226 OFFCURVE",
"228 219 CURVE SMOOTH"
);
},
{
closed = 1;
nodes = (
"228 405 OFFCURVE",
"233 400 OFFCURVE",
"240 400 CURVE SMOOTH",
"247 400 OFFCURVE",
"252 405 OFFCURVE",
"252 412 CURVE SMOOTH",
"252 419 OFFCURVE",
"247 424 OFFCURVE",
"240 424 CURVE SMOOTH",
"233 424 OFFCURVE",
"228 419 OFFCURVE",
"228 412 CURVE SMOOTH"
);
}
);
width = 480;
}
);
},
{
export = 0;
glyphname = L.001;
lastChange = "2021-11-25 21:28:53 +0000";
layers = (
{
layerId = "23C4FCBD-6BD7-473B-9A50-F233A862C235";
paths = (
{
closed = 1;
nodes = (
"424 0 LINE",
"424 219 LINE",
"248 219 LINE",
"243 211 OFFCURVE",
"234 205 OFFCURVE",
"224 205 CURVE SMOOTH",
"209 205 OFFCURVE",
"196 218 OFFCURVE",
"196 233 CURVE SMOOTH",
"196 248 OFFCURVE",
"209 261 OFFCURVE",
"224 261 CURVE",
"224 600 LINE",
"24 600 LINE",
"24 0 LINE"
);
},
{
closed = 1;
nodes = (
"232 219 OFFCURVE",
"238 225 OFFCURVE",
"238 233 CURVE SMOOTH",
"238 241 OFFCURVE",
"232 247 OFFCURVE",
"224 247 CURVE SMOOTH",
"216 247 OFFCURVE",
"210 241 OFFCURVE",
"210 233 CURVE SMOOTH",
"210 225 OFFCURVE",
"216 219 OFFCURVE",
"224 219 CURVE SMOOTH"
);
}
);
width = 448;
}
);
},
{
export = 0;
glyphname = Germandbls.002;
lastChange = "2021-11-25 21:29:17 +0000";
layers = (
{
guideLines = (
{
angle = -27.0778;
position = "{323, 144}";
}
);
layerId = "23C4FCBD-6BD7-473B-9A50-F233A862C235";
paths = (
{
closed = 1;
nodes = (
"188 0 LINE",
"188 419 LINE",
"181 424 OFFCURVE",
"176 431 OFFCURVE",
"176 440 CURVE SMOOTH",
"176 453 OFFCURVE",
"187 464 OFFCURVE",
"200 464 CURVE SMOOTH",
"209 464 OFFCURVE",
"216 459 OFFCURVE",
"221 452 CURVE",
"305 452 LINE",
"310 459 OFFCURVE",
"317 464 OFFCURVE",
"326 464 CURVE SMOOTH",
"339 464 OFFCURVE",
"350 453 OFFCURVE",
"350 440 CURVE SMOOTH",
"350 427 OFFCURVE",
"339 416 OFFCURVE",
"326 416 CURVE SMOOTH",
"319 416 OFFCURVE",
"314 419 OFFCURVE",
"309 423 CURVE",
"212 326 LINE",
"212 201 LINE",
"323 144 LINE",
"327 147 OFFCURVE",
"331 148 OFFCURVE",
"336 148 CURVE SMOOTH",
"349 148 OFFCURVE",
"360 137 OFFCURVE",
"360 124 CURVE SMOOTH",
"360 111 OFFCURVE",
"349 100 OFFCURVE",
"336 100 CURVE SMOOTH",
"323 100 OFFCURVE",
"312 111 OFFCURVE",
"312 123 CURVE",
"212 175 LINE",
"212 0 LINE",
"432 0 LINE",
"464 32 LINE",
"464 223 LINE",
"400 288 LINE",
"464 352 LINE",
"464 568 LINE",
"432 600 LINE",
"88 600 LINE",
"24 536 LINE",
"24 0 LINE"
);
},
{
closed = 1;
nodes = (
"188 433 OFFCURVE",
"193 428 OFFCURVE",
"200 428 CURVE SMOOTH",
"207 428 OFFCURVE",
"212 433 OFFCURVE",
"212 440 CURVE SMOOTH",
"212 447 OFFCURVE",
"207 452 OFFCURVE",
"200 452 CURVE SMOOTH",
"193 452 OFFCURVE",
"188 447 OFFCURVE",
"188 440 CURVE SMOOTH"
);
},
{
closed = 1;
nodes = (
"314 433 OFFCURVE",
"319 428 OFFCURVE",
"326 428 CURVE SMOOTH",
"333 428 OFFCURVE",
"338 433 OFFCURVE",
"338 440 CURVE SMOOTH",
"338 447 OFFCURVE",
"333 452 OFFCURVE",
"326 452 CURVE SMOOTH",
"319 452 OFFCURVE",
"314 447 OFFCURVE",
"314 440 CURVE SMOOTH"
);
},
{
closed = 1;
nodes = (
"343 112 OFFCURVE",
"348 117 OFFCURVE",
"348 124 CURVE SMOOTH",
"348 131 OFFCURVE",
"343 136 OFFCURVE",
"336 136 CURVE SMOOTH",
"329 136 OFFCURVE",
"324 131 OFFCURVE",
"324 124 CURVE SMOOTH",
"324 117 OFFCURVE",
"329 112 OFFCURVE",
"336 112 CURVE SMOOTH"
);
}
);
width = 488;
}
);
},
{
glyphname = idotless;
lastChange = "2021-11-25 15:26:13 +0000";
layers = (
{
layerId = "23C4FCBD-6BD7-473B-9A50-F233A862C235";
paths = (
{
closed = 1;
nodes = (
"224 0 LINE",
"224 600 LINE",
"24 600 LINE",
"24 0 LINE"
);
}
);
width = 248;
}
);
unicode = 0131;
},
{
glyphname = zero;
lastChange = "2021-08-05 19:21:22 +0000";
layers = (
{
layerId = "23C4FCBD-6BD7-473B-9A50-F233A862C235";
paths = (
{
closed = 1;
nodes = (
"392 0 LINE",
"456 64 LINE",
"456 536 LINE",
"392 600 LINE",
"88 600 LINE",
"24 536 LINE",
"24 64 LINE",
"88 0 LINE"
);
},
{
closed = 1;
nodes = (
"258 386 OFFCURVE",
"264 390 OFFCURVE",
"265 397 CURVE SMOOTH",
"266 404 OFFCURVE",
"262 410 OFFCURVE",
"255 411 CURVE SMOOTH",
"248 412 OFFCURVE",
"242 408 OFFCURVE",
"241 401 CURVE SMOOTH",
"240 394 OFFCURVE",
"244 388 OFFCURVE",
"251 387 CURVE SMOOTH"
);
},
{
closed = 1;
nodes = (
"233 219 OFFCURVE",
"240 224 OFFCURVE",
"241 232 CURVE SMOOTH",
"242 240 OFFCURVE",
"237 247 OFFCURVE",
"229 248 CURVE SMOOTH",
"221 249 OFFCURVE",
"214 244 OFFCURVE",
"213 236 CURVE SMOOTH",
"212 228 OFFCURVE",
"217 221 OFFCURVE",
"225 220 CURVE SMOOTH"
);
},
{
closed = 1;
nodes = (
"205 247 OFFCURVE",
"211 253 OFFCURVE",
"218 257 CURVE",
"238 380 LINE",
"232 386 OFFCURVE",
"228 394 OFFCURVE",
"229 403 CURVE SMOOTH",
"231 416 OFFCURVE",
"244 425 OFFCURVE",
"257 423 CURVE SMOOTH",
"270 421 OFFCURVE",
"279 408 OFFCURVE",
"277 395 CURVE SMOOTH",
"275 386 OFFCURVE",
"269 380 OFFCURVE",
"262 376 CURVE",
"242 253 LINE",
"248 247 OFFCURVE",
"252 239 OFFCURVE",
"251 230 CURVE SMOOTH",
"249 217 OFFCURVE",
"236 208 OFFCURVE",
"223 210 CURVE SMOOTH",
"210 212 OFFCURVE",
"201 225 OFFCURVE",
"203 238 CURVE SMOOTH"
);
}
);
width = 480;
}
);
unicode = 0030;
},
{
glyphname = one;
lastChange = "2021-08-05 19:24:37 +0000";
layers = (
{
layerId = "23C4FCBD-6BD7-473B-9A50-F233A862C235";
paths = (
{
closed = 1;
nodes = (
"344 0 LINE",
"344 600 LINE",
"89 600 LINE",
"24 535 LINE",
"24 412 LINE",
"144 412 LINE",
"144 0 LINE"
);
}
);
width = 368;
}
);
unicode = 0031;
},
{
glyphname = two;
lastChange = "2021-08-05 19:48:51 +0000";
layers = (
{
layerId = "23C4FCBD-6BD7-473B-9A50-F233A862C235";
paths = (
{
closed = 1;
nodes = (
"456 0 LINE",
"456 201 LINE",
"261 201 LINE",
"256 194 OFFCURVE",
"249 189 OFFCURVE",
"240 189 CURVE SMOOTH",
"227 189 OFFCURVE",
"216 200 OFFCURVE",
"216 213 CURVE SMOOTH",
"216 226 OFFCURVE",
"227 237 OFFCURVE",
"240 237 CURVE SMOOTH",
"249 237 OFFCURVE",
"256 232 OFFCURVE",
"261 225 CURVE",
"456 225 LINE",
"456 600 LINE",
"89 600 LINE",
"24 535 LINE",
"24 339 LINE",
"228 402 LINE",
"228 420 LINE",
"221 425 OFFCURVE",
"216 432 OFFCURVE",
"216 441 CURVE SMOOTH",
"216 454 OFFCURVE",
"227 465 OFFCURVE",
"240 465 CURVE SMOOTH",
"253 465 OFFCURVE",
"264 454 OFFCURVE",
"264 441 CURVE SMOOTH",
"264 432 OFFCURVE",
"259 425 OFFCURVE",
"252 420 CURVE",
"252 383 LINE",
"24 314 LINE",
"24 0 LINE"
);
},
{
closed = 1;
nodes = (
"226 205 OFFCURVE",
"232 199 OFFCURVE",
"240 199 CURVE SMOOTH",
"248 199 OFFCURVE",
"254 205 OFFCURVE",
"254 213 CURVE SMOOTH",
"254 221 OFFCURVE",
"248 227 OFFCURVE",
"240 227 CURVE SMOOTH",
"232 227 OFFCURVE",
"226 221 OFFCURVE",
"226 213 CURVE SMOOTH"
);
},
{
closed = 1;
nodes = (
"228 434 OFFCURVE",
"233 429 OFFCURVE",
"240 429 CURVE SMOOTH",
"247 429 OFFCURVE",
"252 434 OFFCURVE",
"252 441 CURVE SMOOTH",
"252 448 OFFCURVE",
"247 453 OFFCURVE",
"240 453 CURVE SMOOTH",
"233 453 OFFCURVE",
"228 448 OFFCURVE",
"228 441 CURVE SMOOTH"
);
}
);
width = 480;
}
);
unicode = 0032;
},
{
glyphname = three;
lastChange = "2021-08-05 20:06:09 +0000";
layers = (
{
layerId = "23C4FCBD-6BD7-473B-9A50-F233A862C235";
paths = (
{
closed = 1;
nodes = (
"283 425 OFFCURVE",
"278 420 OFFCURVE",
"278 413 CURVE SMOOTH",
"278 406 OFFCURVE",
"283 401 OFFCURVE",
"290 401 CURVE SMOOTH",
"297 401 OFFCURVE",
"302 406 OFFCURVE",
"302 413 CURVE SMOOTH",
"302 420 OFFCURVE",
"297 425 OFFCURVE",
"290 425 CURVE SMOOTH"
);
},
{
closed = 1;
nodes = (
"190 199 LINE",
"269 199 LINE",
"274 206 OFFCURVE",
"281 211 OFFCURVE",
"290 211 CURVE SMOOTH",
"303 211 OFFCURVE",
"314 200 OFFCURVE",
"314 187 CURVE SMOOTH",
"314 174 OFFCURVE",
"303 163 OFFCURVE",
"290 163 CURVE SMOOTH",
"281 163 OFFCURVE",
"274 168 OFFCURVE",
"269 175 CURVE",
"166 175 LINE",
"165 239 LINE",
"24 239 LINE",
"24 65 LINE",
"89 0 LINE",
"391 0 LINE",
"456 65 LINE",
"456 535 LINE",
"391 600 LINE",
"89 600 LINE",
"24 535 LINE",
"24 361 LINE",
"165 361 LINE",
"166 425 LINE",
"269 425 LINE",
"274 432 OFFCURVE",
"281 437 OFFCURVE",
"290 437 CURVE SMOOTH",
"303 437 OFFCURVE",
"314 426 OFFCURVE",
"314 413 CURVE SMOOTH",
"314 400 OFFCURVE",
"303 389 OFFCURVE",
"290 389 CURVE SMOOTH",
"281 389 OFFCURVE",
"274 394 OFFCURVE",
"269 401 CURVE",
"190 401 LINE"
);
},
{
closed = 1;
nodes = (
"297 175 OFFCURVE",
"302 180 OFFCURVE",
"302 187 CURVE SMOOTH",
"302 194 OFFCURVE",
"297 199 OFFCURVE",
"290 199 CURVE SMOOTH",
"283 199 OFFCURVE",
"278 194 OFFCURVE",
"278 187 CURVE SMOOTH",
"278 180 OFFCURVE",
"283 175 OFFCURVE",
"290 175 CURVE SMOOTH"
);
}
);
width = 480;
}
);
unicode = 0033;
},
{
glyphname = four;
lastChange = "2021-08-09 09:01:41 +0000";
layers = (
{
guideLines = (
{
angle = 49.4837;
position = "{24, 160}";
}
);
layerId = "23C4FCBD-6BD7-473B-9A50-F233A862C235";
paths = (
{
closed = 1;
nodes = (
"183 336 OFFCURVE",
"183 343 OFFCURVE",
"178 348 CURVE SMOOTH",
"173 353 OFFCURVE",
"166 353 OFFCURVE",
"161 348 CURVE SMOOTH",
"156 343 OFFCURVE",
"156 336 OFFCURVE",
"161 331 CURVE SMOOTH",
"166 326 OFFCURVE",
"173 326 OFFCURVE",
"178 331 CURVE SMOOTH"
);
},
{
closed = 1;
nodes = (
"293 446 OFFCURVE",
"293 454 OFFCURVE",
"289 459 CURVE SMOOTH",
"284 463 OFFCURVE",
"276 463 OFFCURVE",
"272 459 CURVE SMOOTH",
"267 454 OFFCURVE",
"267 446 OFFCURVE",
"272 442 CURVE SMOOTH",
"276 437 OFFCURVE",
"284 437 OFFCURVE",
"289 442 CURVE SMOOTH"
);
},
{
closed = 1;
nodes = (
"159 363 OFFCURVE",
"167 364 OFFCURVE",
"176 363 CURVE",
"257 444 LINE",
"255 452 OFFCURVE",
"257 461 OFFCURVE",
"263 467 CURVE SMOOTH",
"272 476 OFFCURVE",
"288 476 OFFCURVE",
"297 467 CURVE SMOOTH",
"306 458 OFFCURVE",
"306 442 OFFCURVE",
"297 433 CURVE SMOOTH",
"291 427 OFFCURVE",
"282 425 OFFCURVE",
"274 427 CURVE",
"193 346 LINE",
"194 337 OFFCURVE",
"193 329 OFFCURVE",
"187 323 CURVE SMOOTH",
"177 313 OFFCURVE",
"162 313 OFFCURVE",
"153 323 CURVE SMOOTH",
"143 332 OFFCURVE",
"143 347 OFFCURVE",
"153 357 CURVE SMOOTH"
);
},
{
closed = 1;
nodes = (
"220 160 LINE",
"220 0 LINE",
"400 0 LINE",
"400 160 LINE",
"500 160 LINE",
"500 360 LINE",
"400 360 LINE",
"400 600 LINE",
"154 600 LINE",
"24 470 LINE",
"24 160 LINE"
);
}
);
width = 524;
}
);
unicode = 0034;
},
{
glyphname = five;
lastChange = "2021-08-09 09:08:52 +0000";
layers = (
{
layerId = "23C4FCBD-6BD7-473B-9A50-F233A862C235";
paths = (
{
closed = 1;
nodes = (
"182 425 OFFCURVE",
"177 420 OFFCURVE",
"177 413 CURVE SMOOTH",
"177 406 OFFCURVE",
"182 401 OFFCURVE",
"189 401 CURVE SMOOTH",
"196 401 OFFCURVE",
"201 406 OFFCURVE",
"201 413 CURVE SMOOTH",
"201 420 OFFCURVE",
"196 425 OFFCURVE",
"189 425 CURVE SMOOTH"
);
},
{
closed = 1;
nodes = (
"228 180 OFFCURVE",
"233 175 OFFCURVE",
"240 175 CURVE SMOOTH",
"247 175 OFFCURVE",
"252 180 OFFCURVE",
"252 187 CURVE SMOOTH",
"252 194 OFFCURVE",
"247 199 OFFCURVE",
"240 199 CURVE SMOOTH",
"233 199 OFFCURVE",
"228 194 OFFCURVE",
"228 187 CURVE SMOOTH"
);
},
{
closed = 1;
nodes = (
"89 0 LINE",
"391 0 LINE",
"456 65 LINE",
"456 401 LINE",
"210 401 LINE",
"205 394 OFFCURVE",
"198 389 OFFCURVE",
"189 389 CURVE SMOOTH",
"176 389 OFFCURVE",
"165 400 OFFCURVE",
"165 413 CURVE SMOOTH",
"165 426 OFFCURVE",
"176 437 OFFCURVE",
"189 437 CURVE SMOOTH",
"198 437 OFFCURVE",
"205 432 OFFCURVE",
"210 425 CURVE",
"456 425 LINE",
"456 600 LINE",
"24 600 LINE",
"24 263 LINE",
"252 263 LINE",
"252 208 LINE",
"259 203 OFFCURVE",
"264 196 OFFCURVE",
"264 187 CURVE SMOOTH",
"264 174 OFFCURVE",
"253 163 OFFCURVE",
"240 163 CURVE SMOOTH",
"227 163 OFFCURVE",
"216 174 OFFCURVE",
"216 187 CURVE SMOOTH",
"216 196 OFFCURVE",
"221 203 OFFCURVE",
"228 208 CURVE",
"228 239 LINE",
"24 239 LINE",
"24 65 LINE"
);
}
);
width = 480;
}
);
unicode = 0035;
},
{
glyphname = six;
lastChange = "2021-08-09 09:18:22 +0000";
layers = (
{
layerId = "23C4FCBD-6BD7-473B-9A50-F233A862C235";
paths = (
{
closed = 1;
nodes = (
"233 425 OFFCURVE",
"228 420 OFFCURVE",
"228 413 CURVE SMOOTH",
"228 406 OFFCURVE",
"233 401 OFFCURVE",
"240 401 CURVE SMOOTH",
"247 401 OFFCURVE",
"252 406 OFFCURVE",
"252 413 CURVE SMOOTH",
"252 420 OFFCURVE",
"247 425 OFFCURVE",
"240 425 CURVE SMOOTH"
);
},
{
closed = 1;
nodes = (
"228 170 OFFCURVE",
"233 165 OFFCURVE",
"240 165 CURVE SMOOTH",
"247 165 OFFCURVE",
"252 170 OFFCURVE",
"252 177 CURVE SMOOTH",
"252 184 OFFCURVE",
"247 189 OFFCURVE",
"240 189 CURVE SMOOTH",
"233 189 OFFCURVE",
"228 184 OFFCURVE",
"228 177 CURVE SMOOTH"
);
},
{
closed = 1;
nodes = (
"88 0 LINE",
"392 0 LINE",
"456 64 LINE",
"456 337 LINE",
"392 401 LINE",
"261 401 LINE",
"256 394 OFFCURVE",
"249 389 OFFCURVE",
"240 389 CURVE SMOOTH",
"227 389 OFFCURVE",
"216 400 OFFCURVE",
"216 413 CURVE SMOOTH",
"216 426 OFFCURVE",
"227 437 OFFCURVE",
"240 437 CURVE SMOOTH",
"249 437 OFFCURVE",
"256 432 OFFCURVE",
"261 425 CURVE",
"456 425 LINE",
"456 600 LINE",
"88 600 LINE",
"24 536 LINE",
"24 64 LINE"
);
},
{
closed = 1;
nodes = (
"228 274 OFFCURVE",
"233 269 OFFCURVE",
"240 269 CURVE SMOOTH",
"247 269 OFFCURVE",
"252 274 OFFCURVE",
"252 281 CURVE SMOOTH",
"252 288 OFFCURVE",
"247 293 OFFCURVE",
"240 293 CURVE SMOOTH",
"233 293 OFFCURVE",
"228 288 OFFCURVE",
"228 281 CURVE SMOOTH"
);
},
{
closed = 1;
nodes = (
"216 186 OFFCURVE",
"221 193 OFFCURVE",
"228 198 CURVE",
"228 260 LINE",
"221 265 OFFCURVE",
"216 272 OFFCURVE",
"216 281 CURVE SMOOTH",
"216 294 OFFCURVE",
"227 305 OFFCURVE",
"240 305 CURVE SMOOTH",
"253 305 OFFCURVE",
"264 294 OFFCURVE",
"264 281 CURVE SMOOTH",
"264 272 OFFCURVE",
"259 265 OFFCURVE",
"252 260 CURVE",
"252 198 LINE",
"259 193 OFFCURVE",
"264 186 OFFCURVE",
"264 177 CURVE SMOOTH",
"264 164 OFFCURVE",
"253 153 OFFCURVE",
"240 153 CURVE SMOOTH",
"227 153 OFFCURVE",
"216 164 OFFCURVE",
"216 177 CURVE SMOOTH"
);
}
);
width = 480;
}
);
unicode = 0036;
},
{
glyphname = seven;
lastChange = "2021-08-09 10:10:54 +0000";
layers = (
{
layerId = "23C4FCBD-6BD7-473B-9A50-F233A862C235";
paths = (
{
closed = 1;
nodes = (
"219 424 LINE",
"224 431 OFFCURVE",
"231 436 OFFCURVE",
"240 436 CURVE SMOOTH",
"253 436 OFFCURVE",
"264 425 OFFCURVE",
"264 412 CURVE SMOOTH",
"264 399 OFFCURVE",
"253 388 OFFCURVE",
"240 388 CURVE SMOOTH",
"233.262 388 OFFCURVE",
"227.645 390.803 OFFCURVE",
"223.149 395.149 CURVE",
"140 312 LINE",
"140 0 LINE",
"340 0 LINE",
"340 237 LINE",
"456 353 LINE",
"456 600 LINE",
"24 600 LINE",
"24 424 LINE"
);
},
{
closed = 1;
nodes = (
"233 424 OFFCURVE",
"228 419 OFFCURVE",
"228 412 CURVE SMOOTH",
"228 405 OFFCURVE",
"233 400 OFFCURVE",
"240 400 CURVE SMOOTH",
"247 400 OFFCURVE",
"252 405 OFFCURVE",
"252 412 CURVE SMOOTH",
"252 419 OFFCURVE",
"247 424 OFFCURVE",
"240 424 CURVE SMOOTH"
);
}
);
width = 480;
}
);
unicode = 0037;
},
{
glyphname = eight;
lastChange = "2021-08-09 10:24:27 +0000";
layers = (
{
layerId = "23C4FCBD-6BD7-473B-9A50-F233A862C235";
paths = (
{
closed = 1;
nodes = (
"206 447 OFFCURVE",
"201 452 OFFCURVE",
"194 452 CURVE SMOOTH",
"187 452 OFFCURVE",
"182 447 OFFCURVE",
"182 440 CURVE SMOOTH",
"182 433 OFFCURVE",
"187 428 OFFCURVE",
"194 428 CURVE SMOOTH",
"201 428 OFFCURVE",
"206 433 OFFCURVE",
"206 440 CURVE SMOOTH"
);
},
{
closed = 1;
nodes = (
"265 452 LINE",
"270 459 OFFCURVE",
"277 464 OFFCURVE",
"286 464 CURVE SMOOTH",
"299 464 OFFCURVE",
"310 453 OFFCURVE",
"310 440 CURVE SMOOTH",
"310 427 OFFCURVE",
"299 416 OFFCURVE",
"286 416 CURVE SMOOTH",
"277 416 OFFCURVE",
"270 421 OFFCURVE",
"265 428 CURVE",
"215 428 LINE",
"210 421 OFFCURVE",
"203 416 OFFCURVE",
"194 416 CURVE SMOOTH",
"181 416 OFFCURVE",
"170 427 OFFCURVE",
"170 440 CURVE SMOOTH",
"170 453 OFFCURVE",
"181 464 OFFCURVE",
"194 464 CURVE SMOOTH",
"203 464 OFFCURVE",
"210 459 OFFCURVE",
"215 452 CURVE"
);
},
{
closed = 1;
nodes = (
"201 177 OFFCURVE",
"196 182 OFFCURVE",
"189 182 CURVE SMOOTH",
"182 182 OFFCURVE",
"177 177 OFFCURVE",
"177 170 CURVE SMOOTH",
"177 163 OFFCURVE",
"182 158 OFFCURVE",
"189 158 CURVE SMOOTH",
"196 158 OFFCURVE",
"201 163 OFFCURVE",
"201 170 CURVE SMOOTH"
);
},
{
closed = 1;
nodes = (
"392 0 LINE",
"456 64 LINE",
"456 246 LINE",
"392 310 LINE",
"456 369 LINE",
"456 536 LINE",
"392 600 LINE",
"88 600 LINE",
"24 536 LINE",
"24 374 LINE",
"88 310 LINE",
"24 254 LINE",
"24 64 LINE",
"88 0 LINE"
);
},
{
closed = 1;
nodes = (
"279 163 OFFCURVE",
"284 158 OFFCURVE",
"291 158 CURVE SMOOTH",
"298 158 OFFCURVE",
"303 163 OFFCURVE",
"303 170 CURVE SMOOTH",
"303 177 OFFCURVE",
"298 182 OFFCURVE",
"291 182 CURVE SMOOTH",
"284 182 OFFCURVE",
"279 177 OFFCURVE",
"279 170 CURVE SMOOTH"
);
},
{
closed = 1;
nodes = (
"165 183 OFFCURVE",
"176 194 OFFCURVE",
"189 194 CURVE SMOOTH",
"198 194 OFFCURVE",
"205 189 OFFCURVE",
"210 182 CURVE",
"270 182 LINE",
"275 189 OFFCURVE",
"282 194 OFFCURVE",
"291 194 CURVE SMOOTH",
"304 194 OFFCURVE",
"315 183 OFFCURVE",
"315 170 CURVE SMOOTH",
"315 157 OFFCURVE",
"304 146 OFFCURVE",
"291 146 CURVE SMOOTH",
"282 146 OFFCURVE",
"275 151 OFFCURVE",
"270 158 CURVE",
"210 158 LINE",
"205 151 OFFCURVE",
"198 146 OFFCURVE",
"189 146 CURVE SMOOTH",
"176 146 OFFCURVE",
"165 157 OFFCURVE",
"165 170 CURVE SMOOTH"
);
},
{
closed = 1;
nodes = (
"298 447 OFFCURVE",
"293 452 OFFCURVE",
"286 452 CURVE SMOOTH",
"279 452 OFFCURVE",
"274 447 OFFCURVE",
"274 440 CURVE SMOOTH",
"274 433 OFFCURVE",
"279 428 OFFCURVE",
"286 428 CURVE SMOOTH",
"293 428 OFFCURVE",
"298 433 OFFCURVE",
"298 440 CURVE SMOOTH"
);
}
);
width = 480;
}
);
unicode = 0038;
},
{
glyphname = nine;
lastChange = "2021-08-09 10:29:48 +0000";
layers = (
{
layerId = "23C4FCBD-6BD7-473B-9A50-F233A862C235";
paths = (
{
closed = 1;
nodes = (
"247 175 OFFCURVE",
"252 180 OFFCURVE",
"252 187 CURVE SMOOTH",
"252 194 OFFCURVE",
"247 199 OFFCURVE",
"240 199 CURVE SMOOTH",
"233 199 OFFCURVE",
"228 194 OFFCURVE",
"228 187 CURVE SMOOTH",
"228 180 OFFCURVE",
"233 175 OFFCURVE",
"240 175 CURVE SMOOTH"
);
},
{
closed = 1;
nodes = (
"252 450 OFFCURVE",
"247 455 OFFCURVE",
"240 455 CURVE SMOOTH",
"233 455 OFFCURVE",
"228 450 OFFCURVE",
"228 443 CURVE SMOOTH",
"228 436 OFFCURVE",
"233 431 OFFCURVE",
"240 431 CURVE SMOOTH",
"247 431 OFFCURVE",
"252 436 OFFCURVE",
"252 443 CURVE SMOOTH"
);
},
{
closed = 1;
nodes = (
"392 600 LINE",
"88 600 LINE",
"24 536 LINE",
"24 263 LINE",
"88 199 LINE",
"219 199 LINE",
"224 206 OFFCURVE",
"231 211 OFFCURVE",
"240 211 CURVE SMOOTH",
"253 211 OFFCURVE",
"264 200 OFFCURVE",
"264 187 CURVE SMOOTH",
"264 174 OFFCURVE",
"253 163 OFFCURVE",
"240 163 CURVE",
"240 0 LINE",
"456 0 LINE",
"456 536 LINE"
);
},
{
closed = 1;
nodes = (
"252 346 OFFCURVE",
"247 351 OFFCURVE",
"240 351 CURVE SMOOTH",
"233 351 OFFCURVE",
"228 346 OFFCURVE",
"228 339 CURVE SMOOTH",
"228 332 OFFCURVE",
"233 327 OFFCURVE",
"240 327 CURVE SMOOTH",
"247 327 OFFCURVE",
"252 332 OFFCURVE",
"252 339 CURVE SMOOTH"
);
},
{
closed = 1;
nodes = (
"264 434 OFFCURVE",
"259 427 OFFCURVE",
"252 422 CURVE",
"252 360 LINE",
"259 355 OFFCURVE",
"264 348 OFFCURVE",
"264 339 CURVE SMOOTH",
"264 326 OFFCURVE",
"253 315 OFFCURVE",
"240 315 CURVE SMOOTH",
"227 315 OFFCURVE",
"216 326 OFFCURVE",
"216 339 CURVE SMOOTH",
"216 348 OFFCURVE",
"221 355 OFFCURVE",
"228 360 CURVE",
"228 422 LINE",
"221 427 OFFCURVE",
"216 434 OFFCURVE",
"216 443 CURVE SMOOTH",
"216 456 OFFCURVE",
"227 467 OFFCURVE",
"240 467 CURVE SMOOTH",
"253 467 OFFCURVE",
"264 456 OFFCURVE",
"264 443 CURVE SMOOTH"
);
}
);
width = 480;
}
);
unicode = 0039;
},
{
glyphname = four.001;
layers = (
{
layerId = "23C4FCBD-6BD7-473B-9A50-F233A862C235";
paths = (
{
closed = 1;
nodes = (
"228 0 LINE",
"456 0 LINE",
"456 460 LINE",
"252 460 LINE",
"252 360 LINE",
"259 355 OFFCURVE",
"264 348 OFFCURVE",
"264 339 CURVE SMOOTH",
"264 326 OFFCURVE",
"253 315 OFFCURVE",
"240 315 CURVE SMOOTH",
"227 315 OFFCURVE",
"216 326 OFFCURVE",
"216 339 CURVE SMOOTH",
"216 348 OFFCURVE",
"221 355 OFFCURVE",
"228 360 CURVE",
"228 600 LINE",
"89 600 LINE",
"24 535 LINE",
"24 181 LINE",
"228 181 LINE"
);
},
{
closed = 1;
nodes = (
"252 346 OFFCURVE",
"247 351 OFFCURVE",
"240 351 CURVE SMOOTH",
"233 351 OFFCURVE",
"228 346 OFFCURVE",
"228 339 CURVE SMOOTH",
"228 332 OFFCURVE",
"233 327 OFFCURVE",
"240 327 CURVE SMOOTH",
"247 327 OFFCURVE",
"252 332 OFFCURVE",
"252 339 CURVE SMOOTH"
);
}
);
width = 480;
}
);
},
{
glyphname = period;
lastChange = "2021-10-06 13:22:13 +0000";
layers = (
{
layerId = "23C4FCBD-6BD7-473B-9A50-F233A862C235";
paths = (
{
closed = 1;
nodes = (
"240 0 LINE",
"240 200 LINE",
"40 200 LINE",
"40 0 LINE"
);
}
);
width = 280;
}
);
unicode = 002E;
},
{
glyphname = comma;
lastChange = "2021-10-06 13:22:17 +0000";
layers = (
{
layerId = "23C4FCBD-6BD7-473B-9A50-F233A862C235";
paths = (
{
closed = 1;
nodes = (
"176 -200 LINE",
"240 -136 LINE",
"240 200 LINE",
"40 200 LINE",
"40 12 LINE",
"119 12 LINE",
"124 19 OFFCURVE",
"131 24 OFFCURVE",
"140 24 CURVE SMOOTH",
"153 24 OFFCURVE",
"164 13 OFFCURVE",
"164 0 CURVE SMOOTH",
"164 -13 OFFCURVE",
"153 -24 OFFCURVE",
"140 -24 CURVE SMOOTH",
"131 -24 OFFCURVE",
"124 -19 OFFCURVE",
"119 -12 CURVE",
"40 -91 LINE",
"40 -200 LINE"
);
},
{
closed = 1;
nodes = (
"147 -12 OFFCURVE",
"152 -7 OFFCURVE",
"152 0 CURVE SMOOTH",
"152 7 OFFCURVE",
"147 12 OFFCURVE",
"140 12 CURVE SMOOTH",
"133 12 OFFCURVE",
"128 7 OFFCURVE",
"128 0 CURVE SMOOTH",
"128 -7 OFFCURVE",
"133 -12 OFFCURVE",
"140 -12 CURVE SMOOTH"
);
}
);
width = 280;
}
);
unicode = 002C;
},
{
glyphname = colon;
lastChange = "2022-02-09 14:02:56 +0000";
layers = (
{
components = (
{
name = period;
}
);
layerId = "23C4FCBD-6BD7-473B-9A50-F233A862C235";
paths = (
{
closed = 1;
nodes = (
"240 336 LINE",
"240 536 LINE",
"40 536 LINE",
"40 336 LINE"
);
}
);
width = 280;
}
);
unicode = 003A;
},
{
glyphname = semicolon;
lastChange = "2022-02-09 14:03:51 +0000";
layers = (
{
components = (
{
name = comma;
}
);
layerId = "23C4FCBD-6BD7-473B-9A50-F233A862C235";
paths = (
{
closed = 1;
nodes = (
"240 336 LINE",
"240 536 LINE",
"40 536 LINE",
"40 336 LINE"
);
}
);
width = 280;
}
);
unicode = 003B;
},
{
glyphname = exclam;
lastChange = "2021-10-06 13:22:29 +0000";
layers = (
{
layerId = "23C4FCBD-6BD7-473B-9A50-F233A862C235";
paths = (
{
closed = 1;
nodes = (
"240 0 LINE",
"240 200 LINE",
"40 200 LINE",
"40 0 LINE"
);
},
{
closed = 1;
nodes = (
"240 224 LINE",
"240 600 LINE",
"40 600 LINE",
"40 224 LINE"
);
}
);
width = 280;
}
);
unicode = 0021;
},
{
glyphname = question;
lastChange = "2021-08-09 19:48:14 +0000";
layers = (
{
layerId = "23C4FCBD-6BD7-473B-9A50-F233A862C235";
paths = (
{
closed = 1;
nodes = (
"169 357 LINE",
"217 405 LINE",
"216 413 OFFCURVE",
"217 422 OFFCURVE",
"223 428 CURVE",
"233 437 OFFCURVE",
"248 437 OFFCURVE",
"257 428 CURVE",
"267 419 OFFCURVE",
"267 403 OFFCURVE",
"257 394 CURVE",
"251 388 OFFCURVE",
"243 386 OFFCURVE",
"234 388 CURVE",
"140 294 LINE",
"140 156 LINE",
"340 156 LINE",
"340 263 LINE",
"392 263 LINE",
"456 327 LINE",
"456 536 LINE",
"392 600 LINE",
"88 600 LINE",
"24 536 LINE",
"24 357 LINE"
);
},
{
closed = 1;
nodes = (
"340 0 LINE",
"340 132 LINE",
"140 132 LINE",
"140 0 LINE"
);
},
{
closed = 1;
nodes = (
"228 404 OFFCURVE",
"233 399 OFFCURVE",
"240 399 CURVE SMOOTH",
"247 399 OFFCURVE",
"252 404 OFFCURVE",
"252 411 CURVE SMOOTH",
"252 418 OFFCURVE",
"247 423 OFFCURVE",
"240 423 CURVE SMOOTH",
"233 423 OFFCURVE",
"228 418 OFFCURVE",
"228 411 CURVE SMOOTH"
);
}
);
width = 480;
}
);
unicode = 003F;
},
{
glyphname = bullet;
lastChange = "2021-10-06 10:50:50 +0000";
layers = (
{
guideLines = (
{
angle = 120.1414;
position = "{386, 390}";
},
{
angle = 239.8586;
position = "{76, 390}";
}
);
layerId = "23C4FCBD-6BD7-473B-9A50-F233A862C235";
paths = (
{
closed = 1;
nodes = (
"128 121 LINE",
"334 121 LINE",
"438 300 LINE",
"334 479 LINE",
"128 479 LINE",
"24 300 LINE"
);
}
);
width = 462;
}
);
unicode = 2022;
},
{
glyphname = asterisk;
lastChange = "2021-08-20 22:18:45 +0000";
layers = (
{
layerId = "23C4FCBD-6BD7-473B-9A50-F233A862C235";
paths = (
{
closed = 1;
nodes = (
"114 254 LINE",
"159 332 LINE",
"156 335 OFFCURVE",
"155 340 OFFCURVE",
"155 344 CURVE SMOOTH",
"155 357 OFFCURVE",
"166 368 OFFCURVE",
"179 368 CURVE SMOOTH",
"192 368 OFFCURVE",
"203 357 OFFCURVE",
"203 344 CURVE SMOOTH",
"203 331 OFFCURVE",
"192 320 OFFCURVE",
"179 320 CURVE",
"134 242 LINE",
"314 242 LINE",
"269 320 LINE",
"256 320 OFFCURVE",
"245 331 OFFCURVE",
"245 344 CURVE SMOOTH",
"245 357 OFFCURVE",
"256 368 OFFCURVE",
"269 368 CURVE SMOOTH",
"282 368 OFFCURVE",
"293 357 OFFCURVE",
"293 344 CURVE SMOOTH",
"293 340 OFFCURVE",
"292 335 OFFCURVE",
"289 332 CURVE",
"334 254 LINE",
"424 409 LINE",
"334 409 LINE",
"329 402 OFFCURVE",
"322 397 OFFCURVE",
"313 397 CURVE SMOOTH",
"300 397 OFFCURVE",
"289 408 OFFCURVE",
"289 421 CURVE SMOOTH",
"289 434 OFFCURVE",
"300 445 OFFCURVE",
"313 445 CURVE SMOOTH",
"322 445 OFFCURVE",
"329 440 OFFCURVE",
"334 433 CURVE",
"424 433 LINE",
"334 588 LINE",
"290 511 LINE",
"292 508 OFFCURVE",
"293 503 OFFCURVE",
"293 499 CURVE SMOOTH",
"293 486 OFFCURVE",
"282 475 OFFCURVE",
"269 475 CURVE SMOOTH",
"256 475 OFFCURVE",
"245 486 OFFCURVE",
"245 499 CURVE SMOOTH",
"245 512 OFFCURVE",
"256 523 OFFCURVE",
"269 523 CURVE",
"314 600 LINE",
"134 600 LINE",
"178 523 LINE",
"192 523 OFFCURVE",
"203 512 OFFCURVE",
"203 499 CURVE SMOOTH",
"203 486 OFFCURVE",
"192 475 OFFCURVE",
"179 475 CURVE SMOOTH",
"166 475 OFFCURVE",
"155 486 OFFCURVE",
"155 499 CURVE SMOOTH",
"155 503 OFFCURVE",
"156 507 OFFCURVE",
"158 511 CURVE",
"114 588 LINE",
"24 433 LINE",
"114 433 LINE",
"119 440 OFFCURVE",
"126 445 OFFCURVE",
"135 445 CURVE SMOOTH",
"148 445 OFFCURVE",
"159 434 OFFCURVE",
"159 421 CURVE SMOOTH",
"159 408 OFFCURVE",
"148 397 OFFCURVE",
"135 397 CURVE SMOOTH",
"126 397 OFFCURVE",
"119 402 OFFCURVE",
"114 409 CURVE",
"24 409 LINE"
);
},
{
closed = 1;
nodes = (
"186 487 OFFCURVE",
"191 492 OFFCURVE",
"191 499 CURVE SMOOTH",
"191 506 OFFCURVE",
"186 511 OFFCURVE",
"179 511 CURVE SMOOTH",
"172 511 OFFCURVE",
"167 506 OFFCURVE",
"167 499 CURVE SMOOTH",
"167 492 OFFCURVE",
"172 487 OFFCURVE",
"179 487 CURVE SMOOTH"
);
},
{
closed = 1;
nodes = (
"276 487 OFFCURVE",
"281 492 OFFCURVE",
"281 499 CURVE SMOOTH",
"281 506 OFFCURVE",
"276 511 OFFCURVE",
"269 511 CURVE SMOOTH",
"262 511 OFFCURVE",
"257 506 OFFCURVE",
"257 499 CURVE SMOOTH",
"257 492 OFFCURVE",
"262 487 OFFCURVE",
"269 487 CURVE SMOOTH"
);
},
{
closed = 1;
nodes = (
"320 409 OFFCURVE",
"325 414 OFFCURVE",
"325 421 CURVE SMOOTH",
"325 428 OFFCURVE",
"320 433 OFFCURVE",
"313 433 CURVE SMOOTH",
"306 433 OFFCURVE",
"301 428 OFFCURVE",
"301 421 CURVE SMOOTH",
"301 414 OFFCURVE",
"306 409 OFFCURVE",
"313 409 CURVE SMOOTH"
);
},
{
closed = 1;
nodes = (
"142 409 OFFCURVE",
"147 414 OFFCURVE",
"147 421 CURVE SMOOTH",
"147 428 OFFCURVE",
"142 433 OFFCURVE",
"135 433 CURVE SMOOTH",
"128 433 OFFCURVE",
"123 428 OFFCURVE",
"123 421 CURVE SMOOTH",
"123 414 OFFCURVE",
"128 409 OFFCURVE",
"135 409 CURVE SMOOTH"
);
},
{
closed = 1;
nodes = (
"186 332 OFFCURVE",
"191 337 OFFCURVE",
"191 344 CURVE SMOOTH",
"191 351 OFFCURVE",
"186 356 OFFCURVE",
"179 356 CURVE SMOOTH",
"172 356 OFFCURVE",
"167 351 OFFCURVE",
"167 344 CURVE SMOOTH",
"167 337 OFFCURVE",
"172 332 OFFCURVE",
"179 332 CURVE SMOOTH"
);
},
{
closed = 1;
nodes = (
"276 332 OFFCURVE",
"281 337 OFFCURVE",
"281 344 CURVE SMOOTH",
"281 351 OFFCURVE",
"276 356 OFFCURVE",
"269 356 CURVE SMOOTH",
"262 356 OFFCURVE",
"257 351 OFFCURVE",
"257 344 CURVE SMOOTH",
"257 337 OFFCURVE",
"262 332 OFFCURVE",
"269 332 CURVE SMOOTH"
);
}
);
width = 448;
}
);
unicode = 002A;
},
{
glyphname = numbersign;
lastChange = "2021-10-04 13:21:31 +0000";
layers = (
{
guideLines = (
{
angle = 68.1;
position = "{324, 300}";
},
{
angle = 68.1;
position = "{570, 465}";
}
);
layerId = "23C4FCBD-6BD7-473B-9A50-F233A862C235";
paths = (
{
closed = 1;
nodes = (
"190 0 LINE",
"238 120 LINE",
"235 124 OFFCURVE",
"233 129 OFFCURVE",
"233 135 CURVE SMOOTH",
"233 148 OFFCURVE",
"244 159 OFFCURVE",
"257 159 CURVE SMOOTH",
"270 159 OFFCURVE",
"281 148 OFFCURVE",
"281 135 CURVE SMOOTH",
"281 123 OFFCURVE",
"272 114 OFFCURVE",
"261 111 CURVE",
"217 0 LINE",
"383 0 LINE",
"437 135 LINE",
"624 135 LINE",
"624 288 LINE",
"527 288 LINE",
"522 281 OFFCURVE",
"515 276 OFFCURVE",
"506 276 CURVE SMOOTH",
"493 276 OFFCURVE",
"482 287 OFFCURVE",
"482 300 CURVE SMOOTH",
"482 313 OFFCURVE",
"493 324 OFFCURVE",
"506 324 CURVE SMOOTH",
"515 324 OFFCURVE",
"522 319 OFFCURVE",
"527 312 CURVE",
"624 312 LINE",
"624 465 LINE",
"570 465 LINE",
"624 600 LINE",
"458 600 LINE",
"409 479 LINE",
"412 475 OFFCURVE",
"414 470 OFFCURVE",
"414 465 CURVE SMOOTH",
"414 452 OFFCURVE",
"403 441 OFFCURVE",
"390 441 CURVE SMOOTH",
"377 441 OFFCURVE",
"366 452 OFFCURVE",
"366 465 CURVE SMOOTH",
"366 477 OFFCURVE",
"375 487 OFFCURVE",
"387 489 CURVE",
"432 600 LINE",
"266 600 LINE",
"212 465 LINE",
"24 465 LINE",
"24 312 LINE",
"124 312 LINE",
"129 319 OFFCURVE",
"136 324 OFFCURVE",
"145 324 CURVE SMOOTH",
"158 324 OFFCURVE",
"169 313 OFFCURVE",
"169 300 CURVE SMOOTH",
"169 287 OFFCURVE",
"158 276 OFFCURVE",
"145 276 CURVE SMOOTH",
"136 276 OFFCURVE",
"129 281 OFFCURVE",
"124 288 CURVE",
"24 288 LINE",
"24 135 LINE",
"79 135 LINE",
"24 0 LINE"
);
},
{
closed = 1;
nodes = (
"300 313 OFFCURVE",
"311 324 OFFCURVE",
"324 324 CURVE SMOOTH",
"337 324 OFFCURVE",
"348 313 OFFCURVE",
"348 300 CURVE SMOOTH",
"348 287 OFFCURVE",
"337 276 OFFCURVE",
"324 276 CURVE SMOOTH",
"311 276 OFFCURVE",
"300 287 OFFCURVE",
"300 300 CURVE SMOOTH"
);
},
{
closed = 1;
nodes = (
"312 307 OFFCURVE",
"318 312 OFFCURVE",
"324 312 CURVE SMOOTH",
"331 312 OFFCURVE",
"336 307 OFFCURVE",
"336 300 CURVE SMOOTH",
"336 294 OFFCURVE",
"331 288 OFFCURVE",
"324 288 CURVE SMOOTH",
"318 288 OFFCURVE",
"312 294 OFFCURVE",
"312 300 CURVE SMOOTH"
);
},
{
closed = 1;
nodes = (
"152 288 OFFCURVE",
"157 293 OFFCURVE",
"157 300 CURVE SMOOTH",
"157 307 OFFCURVE",
"152 312 OFFCURVE",
"145 312 CURVE SMOOTH",
"138 312 OFFCURVE",
"133 307 OFFCURVE",
"133 300 CURVE SMOOTH",
"133 293 OFFCURVE",
"138 288 OFFCURVE",
"145 288 CURVE SMOOTH"
);
},
{
closed = 1;
nodes = (
"397 453 OFFCURVE",
"402 458 OFFCURVE",
"402 465 CURVE SMOOTH",
"402 472 OFFCURVE",
"397 477 OFFCURVE",
"390 477 CURVE SMOOTH",
"383 477 OFFCURVE",
"378 472 OFFCURVE",
"378 465 CURVE SMOOTH",
"378 458 OFFCURVE",
"383 453 OFFCURVE",
"390 453 CURVE SMOOTH"
);
},
{
closed = 1;
nodes = (
"513 288 OFFCURVE",
"518 293 OFFCURVE",
"518 300 CURVE SMOOTH",
"518 307 OFFCURVE",
"513 312 OFFCURVE",
"506 312 CURVE SMOOTH",
"499 312 OFFCURVE",
"494 307 OFFCURVE",
"494 300 CURVE SMOOTH",
"494 293 OFFCURVE",
"499 288 OFFCURVE",
"506 288 CURVE SMOOTH"
);
},
{
closed = 1;
nodes = (
"264 123 OFFCURVE",
"269 128 OFFCURVE",
"269 135 CURVE SMOOTH",
"269 142 OFFCURVE",
"264 147 OFFCURVE",
"257 147 CURVE SMOOTH",
"250 147 OFFCURVE",
"245 142 OFFCURVE",
"245 135 CURVE SMOOTH",
"245 128 OFFCURVE",
"250 123 OFFCURVE",
"257 123 CURVE SMOOTH"
);
}
);
width = 648;
}
);
unicode = 0023;
},
{
glyphname = slash;
lastChange = "2021-08-16 19:06:09 +0000";
layers = (
{
layerId = "23C4FCBD-6BD7-473B-9A50-F233A862C235";
paths = (
{
closed = 1;
nodes = (
"224 0 LINE",
"224 40 LINE",
"24 40 LINE",
"24 0 LINE"
);
},
{
closed = 1;
nodes = (
"424 560 LINE",
"424 600 LINE",
"224 600 LINE",
"224 560 LINE"
);
},
{
closed = 1;
nodes = (
"224 40 LINE",
"424 560 LINE",
"224 560 LINE",
"24 40 LINE"
);
}
);
width = 448;
}
);
unicode = 002F;
},
{
glyphname = parenleft;
lastChange = "2021-11-01 10:07:11 +0000";
layers = (
{
layerId = "23C4FCBD-6BD7-473B-9A50-F233A862C235";
paths = (
{
closed = 1;
nodes = (
"244 -200 LINE",
"384 -200 LINE",
"384 -76 LINE",
"234 74 LINE",
"234 526 LINE",
"384 676 LINE",
"384 800 LINE",
"244 800 LINE",
"24 580 LINE",
"24 20 LINE"
);
}
);
width = 408;
}
);
unicode = 0028;
},
{
glyphname = braceleft;
lastChange = "2021-10-06 20:32:32 +0000";
layers = (
{
layerId = "23C4FCBD-6BD7-473B-9A50-F233A862C235";
paths = (
{
closed = 1;
nodes = (
"114 210 LINE",
"114 -60 LINE",
"254 -200 LINE",
"474 -200 LINE",
"474 -56 LINE",
"348 -56 LINE",
"348 -69 OFFCURVE",
"337 -80 OFFCURVE",
"324 -80 CURVE SMOOTH",
"311 -80 OFFCURVE",
"300 -69 OFFCURVE",
"300 -56 CURVE SMOOTH",
"300 -43 OFFCURVE",
"311 -32 OFFCURVE",
"324 -32 CURVE",
"324 228 LINE",
"252 300 LINE",
"324 372 LINE",
"324 632 LINE",
"311 632 OFFCURVE",
"300 643 OFFCURVE",
"300 656 CURVE SMOOTH",
"300 669 OFFCURVE",
"311 680 OFFCURVE",
"324 680 CURVE SMOOTH",
"337 680 OFFCURVE",
"348 669 OFFCURVE",
"348 656 CURVE",
"474 656 LINE",
"474 800 LINE",
"254 800 LINE",
"114 660 LINE",
"114 390 LINE",
"24 390 LINE",
"24 210 LINE"
);
},
{
closed = 1;
nodes = (
"312 -63 OFFCURVE",
"317 -68 OFFCURVE",
"324 -68 CURVE SMOOTH",
"331 -68 OFFCURVE",
"336 -63 OFFCURVE",
"336 -56 CURVE SMOOTH",
"336 -49 OFFCURVE",
"331 -44 OFFCURVE",
"324 -44 CURVE SMOOTH",
"317 -44 OFFCURVE",
"312 -49 OFFCURVE",
"312 -56 CURVE SMOOTH"
);
},
{
closed = 1;
nodes = (
"312 649 OFFCURVE",
"317 644 OFFCURVE",
"324 644 CURVE SMOOTH",
"331 644 OFFCURVE",
"336 649 OFFCURVE",
"336 656 CURVE SMOOTH",
"336 663 OFFCURVE",
"331 668 OFFCURVE",
"324 668 CURVE SMOOTH",
"317 668 OFFCURVE",
"312 663 OFFCURVE",
"312 656 CURVE SMOOTH"
);
}
);
width = 498;
}
);
unicode = 007B;
},
{
glyphname = bracketleft;
lastChange = "2021-10-04 16:14:53 +0000";
layers = (
{
layerId = "23C4FCBD-6BD7-473B-9A50-F233A862C235";
paths = (
{
closed = 1;
nodes = (
"164 -200 LINE",
"384 -200 LINE",
"384 -56 LINE",
"258 -56 LINE",
"258 -69 OFFCURVE",
"247 -80 OFFCURVE",
"234 -80 CURVE SMOOTH",
"221 -80 OFFCURVE",
"210 -69 OFFCURVE",
"210 -56 CURVE SMOOTH",
"210 -43 OFFCURVE",
"221 -32 OFFCURVE",
"234 -32 CURVE",
"234 632 LINE",
"221 632 OFFCURVE",
"210 643 OFFCURVE",
"210 656 CURVE SMOOTH",
"210 669 OFFCURVE",
"221 680 OFFCURVE",
"234 680 CURVE SMOOTH",
"247 680 OFFCURVE",
"258 669 OFFCURVE",
"258 656 CURVE",
"384 656 LINE",
"384 800 LINE",
"164 800 LINE",
"24 660 LINE",
"24 -60 LINE"
);
},
{
closed = 1;
nodes = (
"222 -63 OFFCURVE",
"227 -68 OFFCURVE",
"234 -68 CURVE SMOOTH",
"241 -68 OFFCURVE",
"246 -63 OFFCURVE",
"246 -56 CURVE SMOOTH",
"246 -49 OFFCURVE",
"241 -44 OFFCURVE",
"234 -44 CURVE SMOOTH",
"227 -44 OFFCURVE",
"222 -49 OFFCURVE",
"222 -56 CURVE SMOOTH"
);
},
{
closed = 1;
nodes = (
"222 649 OFFCURVE",
"227 644 OFFCURVE",
"234 644 CURVE SMOOTH",
"241 644 OFFCURVE",
"246 649 OFFCURVE",
"246 656 CURVE SMOOTH",
"246 663 OFFCURVE",
"241 668 OFFCURVE",
"234 668 CURVE SMOOTH",
"227 668 OFFCURVE",
"222 663 OFFCURVE",
"222 656 CURVE SMOOTH"
);
}
);
width = 408;
}
);
unicode = 005B;
},
{
glyphname = hyphen;
lastChange = "2021-09-01 19:59:53 +0000";
layers = (
{
anchors = (
{
name = top;
position = "{224, 400}";
}
);
layerId = "23C4FCBD-6BD7-473B-9A50-F233A862C235";
paths = (
{
closed = 1;
nodes = (
"24 200 LINE",
"424 200 LINE",
"424 400 LINE",
"24 400 LINE"
);
}
);
width = 448;
}
);
unicode = 002D;
},
{
glyphname = endash;
lastChange = "2021-10-06 14:28:57 +0000";
layers = (
{
layerId = "23C4FCBD-6BD7-473B-9A50-F233A862C235";
paths = (
{
closed = 1;
nodes = (
"480 228 LINE",
"480 372 LINE",
"0 372 LINE",
"0 228 LINE"
);
}
);
width = 480;
}
);
unicode = 2013;
},
{
glyphname = emdash;
lastChange = "2021-10-06 14:29:18 +0000";
layers = (
{
layerId = "23C4FCBD-6BD7-473B-9A50-F233A862C235";
paths = (
{
closed = 1;
nodes = (
"960 228 LINE",
"960 372 LINE",
"0 372 LINE",
"0 228 LINE"
);
}
);
width = 960;
}
);
unicode = 2014;
},
{
glyphname = horizontalbar;
lastChange = "2021-10-06 14:30:08 +0000";
layers = (
{
layerId = "23C4FCBD-6BD7-473B-9A50-F233A862C235";
paths = (
{
closed = 1;
nodes = (
"1440 228 LINE",
"1440 372 LINE",
"0 372 LINE",
"0 228 LINE"
);
}
);
width = 1440;
}
);
unicode = 2015;
},
{
glyphname = underscore;
lastChange = "2021-10-06 20:36:09 +0000";
layers = (
{
layerId = "23C4FCBD-6BD7-473B-9A50-F233A862C235";
paths = (
{
closed = 1;
nodes = (
"480 -200 LINE",
"480 -56 LINE",
"0 -56 LINE",
"0 -200 LINE"
);
}
);
width = 480;
}
);
unicode = 005F;
},
{
glyphname = guilsinglleft;
lastChange = "2021-10-05 16:27:29 +0000";
layers = (
{
layerId = "23C4FCBD-6BD7-473B-9A50-F233A862C235";
paths = (
{
closed = 1;
nodes = (
"260 144 LINE",
"260 248 LINE",
"208 300 LINE",
"260 352 LINE",
"260 456 LINE",
"228 488 LINE",
"40 300 LINE",
"228 112 LINE"
);
}
);
width = 300;
}
);
unicode = 2039;
},
{
glyphname = quotesingle;
lastChange = "2021-10-04 12:44:42 +0000";
layers = (
{
layerId = "23C4FCBD-6BD7-473B-9A50-F233A862C235";
paths = (
{
closed = 1;
nodes = (
"176 336 LINE",
"240 400 LINE",
"240 600 LINE",
"40 600 LINE",
"40 400 LINE",
"104 336 LINE"
);
}
);
width = 280;
}
);
unicode = 0027;
},
{
glyphname = .notdef;
lastChange = "2021-10-18 13:39:05 +0000";
layers = (
{
layerId = "23C4FCBD-6BD7-473B-9A50-F233A862C235";
paths = (
{
closed = 1;
nodes = (
"730 600 LINE",
"730 0 LINE",
"10 0 LINE",
"10 600 LINE"
);
},
{
closed = 1;
nodes = (
"547 53 LINE",
"617 123 LINE",
"193 547 LINE",
"123 477 LINE"
);
},
{
closed = 1;
nodes = (
"123 123 LINE",
"193 53 LINE",
"617 477 LINE",
"547 547 LINE"
);
}
);
width = 740;
}
);
},
{
glyphname = at;
lastChange = "2021-08-16 19:35:52 +0000";
layers = (
{
layerId = "23C4FCBD-6BD7-473B-9A50-F233A862C235";
paths = (
{
closed = 1;
nodes = (
"636 221 LINE",
"643 216 OFFCURVE",
"648 209 OFFCURVE",
"648 200 CURVE SMOOTH",
"648 187 OFFCURVE",
"637 176 OFFCURVE",
"624 176 CURVE SMOOTH",
"611 176 OFFCURVE",
"600 187 OFFCURVE",
"600 200 CURVE SMOOTH",
"600 209 OFFCURVE",
"605 216 OFFCURVE",
"612 221 CURVE",
"612 324 LINE",
"548 388 LINE",
"300 388 LINE",
"236 324 LINE",
"236 65 LINE",
"301 0 LINE",
"760 0 LINE",
"824 64 LINE",
"824 283 LINE",
"636 283 LINE"
);
},
{
closed = 1;
nodes = (
"359 207 OFFCURVE",
"370 218 OFFCURVE",
"383 218 CURVE SMOOTH",
"392 218 OFFCURVE",
"399 213 OFFCURVE",
"404 206 CURVE",
"454 206 LINE",
"459 213 OFFCURVE",
"466 218 OFFCURVE",
"475 218 CURVE SMOOTH",
"488 218 OFFCURVE",
"499 207 OFFCURVE",
"499 194 CURVE SMOOTH",
"499 181 OFFCURVE",
"488 170 OFFCURVE",
"475 170 CURVE SMOOTH",
"466 170 OFFCURVE",
"459 175 OFFCURVE",
"454 182 CURVE",
"404 182 LINE",
"399 175 OFFCURVE",
"392 170 OFFCURVE",
"383 170 CURVE SMOOTH",
"370 170 OFFCURVE",
"359 181 OFFCURVE",
"359 194 CURVE SMOOTH"
);
},
{
closed = 1;
nodes = (
"371 187 OFFCURVE",
"376 182 OFFCURVE",
"383 182 CURVE SMOOTH",
"390 182 OFFCURVE",
"395 187 OFFCURVE",
"395 194 CURVE SMOOTH",
"395 201 OFFCURVE",
"390 206 OFFCURVE",
"383 206 CURVE SMOOTH",
"376 206 OFFCURVE",
"371 201 OFFCURVE",
"371 194 CURVE SMOOTH"
);
},
{
closed = 1;
nodes = (
"463 187 OFFCURVE",
"468 182 OFFCURVE",
"475 182 CURVE SMOOTH",
"482 182 OFFCURVE",
"487 187 OFFCURVE",
"487 194 CURVE SMOOTH",
"487 201 OFFCURVE",
"482 206 OFFCURVE",
"475 206 CURVE SMOOTH",
"468 206 OFFCURVE",
"463 201 OFFCURVE",
"463 194 CURVE SMOOTH"
);
},
{
closed = 1;
nodes = (
"612 207 OFFCURVE",
"617 212 OFFCURVE",
"624 212 CURVE SMOOTH",
"631 212 OFFCURVE",
"636 207 OFFCURVE",
"636 200 CURVE SMOOTH",
"636 193 OFFCURVE",
"631 188 OFFCURVE",
"624 188 CURVE SMOOTH",
"617 188 OFFCURVE",
"612 193 OFFCURVE",
"612 200 CURVE SMOOTH"
);
},
{
closed = 1;
nodes = (
"624 419 OFFCURVE",
"629 424 OFFCURVE",
"636 424 CURVE SMOOTH",
"643 424 OFFCURVE",
"648 419 OFFCURVE",
"648 412 CURVE SMOOTH",
"648 405 OFFCURVE",
"643 400 OFFCURVE",
"636 400 CURVE SMOOTH",
"629 400 OFFCURVE",
"624 405 OFFCURVE",
"624 412 CURVE SMOOTH"
);
},
{
closed = 1;
nodes = (
"224 405 OFFCURVE",
"219 400 OFFCURVE",
"212 400 CURVE SMOOTH",
"205 400 OFFCURVE",
"200 405 OFFCURVE",
"200 412 CURVE SMOOTH",
"200 419 OFFCURVE",
"205 424 OFFCURVE",
"212 424 CURVE SMOOTH",
"219 424 OFFCURVE",
"224 419 OFFCURVE",
"224 412 CURVE SMOOTH"
);
},
{
closed = 1;
nodes = (
"212 -24 LINE",
"212 388 LINE",
"199 388 OFFCURVE",
"188 399 OFFCURVE",
"188 412 CURVE SMOOTH",
"188 425 OFFCURVE",
"199 436 OFFCURVE",
"212 436 CURVE SMOOTH",
"225 436 OFFCURVE",
"236 425 OFFCURVE",
"236 412 CURVE",
"612 412 LINE",
"612 425 OFFCURVE",
"623 436 OFFCURVE",
"636 436 CURVE SMOOTH",
"649 436 OFFCURVE",
"660 425 OFFCURVE",
"660 412 CURVE SMOOTH",
"660 399 OFFCURVE",
"649 388 OFFCURVE",
"636 388 CURVE",
"636 283 LINE",
"824 283 LINE",
"824 536 LINE",
"760 600 LINE",
"88 600 LINE",
"24 536 LINE",
"24 -24 LINE"
);
}
);
width = 848;
}
);
unicode = 0040;
},
{
glyphname = ampersand;
lastChange = "2021-08-17 09:12:02 +0000";
layers = (
{
guideLines = (
{
angle = -45;
position = "{347, 324}";
}
);
layerId = "23C4FCBD-6BD7-473B-9A50-F233A862C235";
paths = (
{
closed = 1;
nodes = (
"88 0 LINE",
"260 0 LINE",
"324 64 LINE",
"388 0 LINE",
"464 0 LINE",
"528 64 LINE",
"528 142 LINE",
"464 206 LINE",
"528 270 LINE",
"528 388 LINE",
"300 388 LINE",
"340 348 LINE",
"349 349 OFFCURVE",
"357 348 OFFCURVE",
"364 341 CURVE SMOOTH",
"374 331 OFFCURVE",
"374 317 OFFCURVE",
"364 307 CURVE SMOOTH",
"355 298 OFFCURVE",
"339 298 OFFCURVE",
"330 307 CURVE SMOOTH",
"323 314 OFFCURVE",
"322 322 OFFCURVE",
"323 331 CURVE",
"277.161 376.839 LINE",
"275.187 376.293 OFFCURVE",
"273.12 376 OFFCURVE",
"271 376 CURVE SMOOTH",
"258 376 OFFCURVE",
"247 387 OFFCURVE",
"247 400 CURVE SMOOTH",
"247 413 OFFCURVE",
"258 424 OFFCURVE",
"271 424 CURVE SMOOTH",
"279.667 424 OFFCURVE",
"287.444 419.111 OFFCURVE",
"291.667 412 CURVE",
"508 412 LINE",
"508 600 LINE",
"88 600 LINE",
"24 536 LINE",
"24 364 LINE",
"88 300 LINE",
"24 236 LINE",
"24 64 LINE"
);
},
{
closed = 1;
nodes = (
"124 119 OFFCURVE",
"124 133 OFFCURVE",
"134 143 CURVE SMOOTH",
"141 150 OFFCURVE",
"148 151 OFFCURVE",
"157 150 CURVE",
"182 175 LINE",
"181 184 OFFCURVE",
"182 191 OFFCURVE",
"189 198 CURVE SMOOTH",
"199 208 OFFCURVE",
"213 208 OFFCURVE",
"223 198 CURVE SMOOTH",
"232 189 OFFCURVE",
"232 174 OFFCURVE",
"223 165 CURVE SMOOTH",
"216 158 OFFCURVE",
"208 157 OFFCURVE",
"199 158 CURVE",
"174 133 LINE",
"175 124 OFFCURVE",
"174 116 OFFCURVE",
"167 109 CURVE SMOOTH",
"158 100 OFFCURVE",
"143 100 OFFCURVE",
"134 109 CURVE SMOOTH"
);
},
{
closed = 1;
nodes = (
"147 113 OFFCURVE",
"154 113 OFFCURVE",
"159 118 CURVE SMOOTH",
"164 123 OFFCURVE",
"164 130 OFFCURVE",
"159 135 CURVE SMOOTH",
"154 140 OFFCURVE",
"147 140 OFFCURVE",
"142 135 CURVE SMOOTH",
"137 130 OFFCURVE",
"137 123 OFFCURVE",
"142 118 CURVE SMOOTH"
);
},
{
closed = 1;
nodes = (
"202 168 OFFCURVE",
"209 168 OFFCURVE",
"214 173 CURVE SMOOTH",
"219 178 OFFCURVE",
"219 185 OFFCURVE",
"214 190 CURVE SMOOTH",
"209 195 OFFCURVE",
"202 195 OFFCURVE",
"197 190 CURVE SMOOTH",
"192 185 OFFCURVE",
"192 178 OFFCURVE",
"197 173 CURVE SMOOTH"
);
},
{
closed = 1;
nodes = (
"335 317 OFFCURVE",
"340 312 OFFCURVE",
"347 312 CURVE SMOOTH",
"354 312 OFFCURVE",
"359 317 OFFCURVE",
"359 324 CURVE SMOOTH",
"359 331 OFFCURVE",
"354 336 OFFCURVE",
"347 336 CURVE SMOOTH",
"340 336 OFFCURVE",
"335 331 OFFCURVE",
"335 324 CURVE SMOOTH"
);
},
{
closed = 1;
nodes = (
"278 388 OFFCURVE",
"283 393 OFFCURVE",
"283 400 CURVE SMOOTH",
"283 407 OFFCURVE",
"278 412 OFFCURVE",
"271 412 CURVE SMOOTH",
"264 412 OFFCURVE",
"259 407 OFFCURVE",
"259 400 CURVE SMOOTH",
"259 393 OFFCURVE",
"264 388 OFFCURVE",
"271 388 CURVE SMOOTH"
);
}
);
width = 552;
}
);
unicode = 0026;
},
{
glyphname = paragraph;
lastChange = "2021-10-06 09:53:31 +0000";
layers = (
{
layerId = "23C4FCBD-6BD7-473B-9A50-F233A862C235";
paths = (
{
closed = 1;
nodes = (
"253 388 OFFCURVE",
"258 393 OFFCURVE",
"258 400 CURVE SMOOTH",
"258 407 OFFCURVE",
"253 412 OFFCURVE",
"246 412 CURVE SMOOTH",
"239 412 OFFCURVE",
"234 407 OFFCURVE",
"234 400 CURVE SMOOTH",
"234 393 OFFCURVE",
"239 388 OFFCURVE",
"246 388 CURVE SMOOTH"
);
},
{
closed = 1;
nodes = (
"200 200 LINE",
"224 200 LINE",
"224 172 LINE",
"224 -165 LINE",
"504 -165 LINE",
"504 600 LINE",
"88 600 LINE",
"24 536 LINE",
"24 264 LINE",
"88 200 LINE"
);
},
{
closed = 1;
nodes = (
"270 387 OFFCURVE",
"259 376 OFFCURVE",
"246 376 CURVE SMOOTH",
"237 376 OFFCURVE",
"230 381 OFFCURVE",
"225 388 CURVE",
"187 388 LINE",
"182 381 OFFCURVE",
"175 376 OFFCURVE",
"166 376 CURVE SMOOTH",
"153 376 OFFCURVE",
"142 387 OFFCURVE",
"142 400 CURVE SMOOTH",
"142 413 OFFCURVE",
"153 424 OFFCURVE",
"166 424 CURVE SMOOTH",
"175 424 OFFCURVE",
"182 419 OFFCURVE",
"187 412 CURVE",
"225 412 LINE",
"230 419 OFFCURVE",
"237 424 OFFCURVE",
"246 424 CURVE SMOOTH",
"259 424 OFFCURVE",
"270 413 OFFCURVE",
"270 400 CURVE SMOOTH"
);
},
{
closed = 1;
nodes = (
"173 388 OFFCURVE",
"178 393 OFFCURVE",
"178 400 CURVE SMOOTH",
"178 407 OFFCURVE",
"173 412 OFFCURVE",
"166 412 CURVE SMOOTH",
"159 412 OFFCURVE",
"154 407 OFFCURVE",
"154 400 CURVE SMOOTH",
"154 393 OFFCURVE",
"159 388 OFFCURVE",
"166 388 CURVE SMOOTH"
);
},
{
closed = 1;
nodes = (
"352 -72 OFFCURVE",
"357 -77 OFFCURVE",
"364 -77 CURVE SMOOTH",
"371 -77 OFFCURVE",
"376 -72 OFFCURVE",
"376 -65 CURVE SMOOTH",
"376 -58 OFFCURVE",
"371 -53 OFFCURVE",
"364 -53 CURVE SMOOTH",
"357 -53 OFFCURVE",
"352 -58 OFFCURVE",
"352 -65 CURVE SMOOTH"
);
},
{
closed = 1;
nodes = (
"351 -89 OFFCURVE",
"340 -78 OFFCURVE",
"340 -65 CURVE SMOOTH",
"340 -56 OFFCURVE",
"345 -49 OFFCURVE",
"352 -44 CURVE",
"352 479 LINE",
"345 484 OFFCURVE",
"340 491 OFFCURVE",
"340 500 CURVE SMOOTH",
"340 513 OFFCURVE",
"351 524 OFFCURVE",
"364 524 CURVE SMOOTH",
"377 524 OFFCURVE",
"388 513 OFFCURVE",
"388 500 CURVE SMOOTH",
"388 491 OFFCURVE",
"383 484 OFFCURVE",
"376 479 CURVE",
"376 -44 LINE",
"383 -49 OFFCURVE",
"388 -56 OFFCURVE",
"388 -65 CURVE SMOOTH",
"388 -78 OFFCURVE",
"377 -89 OFFCURVE",
"364 -89 CURVE SMOOTH"
);
},
{
closed = 1;
nodes = (
"352 493 OFFCURVE",
"357 488 OFFCURVE",
"364 488 CURVE SMOOTH",
"371 488 OFFCURVE",
"376 493 OFFCURVE",
"376 500 CURVE SMOOTH",
"376 507 OFFCURVE",
"371 512 OFFCURVE",
"364 512 CURVE SMOOTH",
"357 512 OFFCURVE",
"352 507 OFFCURVE",
"352 500 CURVE SMOOTH"
);
}
);
width = 528;
}
);
unicode = 00B6;
},
{
glyphname = section;
lastChange = "2021-10-05 12:58:42 +0000";
layers = (
{
guideLines = (
{
angle = -17.5924;
position = "{333, 403}";
}
);
layerId = "23C4FCBD-6BD7-473B-9A50-F233A862C235";
paths = (
{
closed = 1;
nodes = (
"270 -7 LINE",
"277 -2 OFFCURVE",
"285 1 OFFCURVE",
"293 -2 CURVE",
"306 -6 OFFCURVE",
"313 -20 OFFCURVE",
"309 -32 CURVE SMOOTH",
"305 -45 OFFCURVE",
"291 -52 OFFCURVE",
"279 -48 CURVE SMOOTH",
"270 -45 OFFCURVE",
"265 -38 OFFCURVE",
"262 -30 CURVE",
"56 36 LINE",
"56 -165 LINE",
"423 -165 LINE",
"456 -132 LINE",
"456 364 LINE",
"210 442 LINE",
"203 437 OFFCURVE",
"195 434 OFFCURVE",
"187 437 CURVE",
"174 441 OFFCURVE",
"167 455 OFFCURVE",
"171 467 CURVE SMOOTH",
"175 480 OFFCURVE",
"189 487 OFFCURVE",
"201 483 CURVE SMOOTH",
"210 480 OFFCURVE",
"215 473 OFFCURVE",
"218 465 CURVE",
"424 399 LINE",
"424 600 LINE",
"57 600 LINE",
"24 567 LINE",
"24 71 LINE"
);
},
{
closed = 1;
nodes = (
"182 453 OFFCURVE",
"187 448 OFFCURVE",
"194 448 CURVE SMOOTH",
"201 448 OFFCURVE",
"206 453 OFFCURVE",
"206 460 CURVE SMOOTH",
"206 467 OFFCURVE",
"201 472 OFFCURVE",
"194 472 CURVE SMOOTH",
"187 472 OFFCURVE",
"182 467 OFFCURVE",
"182 460 CURVE SMOOTH"
);
},
{
closed = 1;
nodes = (
"274 -32 OFFCURVE",
"279 -37 OFFCURVE",
"286 -37 CURVE SMOOTH",
"293 -37 OFFCURVE",
"298 -32 OFFCURVE",
"298 -25 CURVE SMOOTH",
"298 -18 OFFCURVE",
"293 -13 OFFCURVE",
"286 -13 CURVE SMOOTH",
"279 -13 OFFCURVE",
"274 -18 OFFCURVE",
"274 -25 CURVE SMOOTH"
);
},
{
closed = 1;
nodes = (
"158 267 OFFCURVE",
"172 274 OFFCURVE",
"184 270 CURVE SMOOTH",
"193 267 OFFCURVE",
"198 260 OFFCURVE",
"201 252 CURVE",
"280 227 LINE",
"287 232 OFFCURVE",
"295 235 OFFCURVE",
"303 232 CURVE SMOOTH",
"316 228 OFFCURVE",
"323 214 OFFCURVE",
"319 202 CURVE SMOOTH",
"315 189 OFFCURVE",
"301 182 OFFCURVE",
"289 186 CURVE SMOOTH",
"280 189 OFFCURVE",
"275 196 OFFCURVE",
"272 204 CURVE",
"193 229 LINE",
"186 224 OFFCURVE",
"178 221 OFFCURVE",
"170 224 CURVE SMOOTH",
"157 228 OFFCURVE",
"150 242 OFFCURVE",
"154 254 CURVE SMOOTH"
);
},
{
closed = 1;
nodes = (
"163 244 OFFCURVE",
"167 238 OFFCURVE",
"173 235 CURVE SMOOTH",
"180 233 OFFCURVE",
"186 237 OFFCURVE",
"188 243 CURVE SMOOTH",
"190 250 OFFCURVE",
"187 256 OFFCURVE",
"181 258 CURVE SMOOTH",
"174 260 OFFCURVE",
"168 257 OFFCURVE",
"165 251 CURVE SMOOTH"
);
},
{
closed = 1;
nodes = (
"283 206 OFFCURVE",
"286 200 OFFCURVE",
"292 198 CURVE SMOOTH",
"299 196 OFFCURVE",
"305 199 OFFCURVE",
"308 205 CURVE SMOOTH",
"310 212 OFFCURVE",
"306 218 OFFCURVE",
"300 221 CURVE SMOOTH",
"293 223 OFFCURVE",
"287 219 OFFCURVE",
"285 213 CURVE SMOOTH"
);
}
);
width = 480;
}
);
unicode = 00A7;
},
{
glyphname = copyright;
lastChange = "2021-10-06 13:57:49 +0000";
layers = (
{
layerId = "23C4FCBD-6BD7-473B-9A50-F233A862C235";
paths = (
{
closed = 1;
nodes = (
"88 0 LINE",
"560 0 LINE",
"624 64 LINE",
"624 536 LINE",
"560 600 LINE",
"88 600 LINE",
"24 536 LINE",
"24 64 LINE"
);
},
{
closed = 1;
nodes = (
"168 423 LINE",
"201 456 LINE",
"447 456 LINE",
"480 423 LINE",
"480 177 LINE",
"447 144 LINE",
"201 144 LINE",
"168 177 LINE"
);
},
{
closed = 1;
nodes = (
"221 168 LINE",
"427 168 LINE",
"456 197 LINE",
"456 288 LINE",
"336 288 LINE",
"336 261 LINE",
"343 256 OFFCURVE",
"348 249 OFFCURVE",
"348 240 CURVE SMOOTH",
"348 227 OFFCURVE",
"337 216 OFFCURVE",
"324 216 CURVE SMOOTH",
"311 216 OFFCURVE",
"300 227 OFFCURVE",
"300 240 CURVE SMOOTH",
"300 249 OFFCURVE",
"305 256 OFFCURVE",
"312 261 CURVE",
"312 339 LINE",
"305 344 OFFCURVE",
"300 351 OFFCURVE",
"300 360 CURVE SMOOTH",
"300 373 OFFCURVE",
"311 384 OFFCURVE",
"324 384 CURVE SMOOTH",
"337 384 OFFCURVE",
"348 373 OFFCURVE",
"348 360 CURVE SMOOTH",
"348 351 OFFCURVE",
"343 344 OFFCURVE",
"336 339 CURVE",
"336 312 LINE",
"456 312 LINE",
"456 403 LINE",
"427 432 LINE",
"221 432 LINE",
"192 403 LINE",
"192 197 LINE"
);
},
{
closed = 1;
nodes = (
"331 228 OFFCURVE",
"336 233 OFFCURVE",
"336 240 CURVE SMOOTH",
"336 247 OFFCURVE",
"331 252 OFFCURVE",
"324 252 CURVE SMOOTH",
"317 252 OFFCURVE",
"312 247 OFFCURVE",
"312 240 CURVE SMOOTH",
"312 233 OFFCURVE",
"317 228 OFFCURVE",
"324 228 CURVE SMOOTH"
);
},
{
closed = 1;
nodes = (
"331 348 OFFCURVE",
"336 353 OFFCURVE",
"336 360 CURVE SMOOTH",
"336 367 OFFCURVE",
"331 372 OFFCURVE",
"324 372 CURVE SMOOTH",
"317 372 OFFCURVE",
"312 367 OFFCURVE",
"312 360 CURVE SMOOTH",
"312 353 OFFCURVE",
"317 348 OFFCURVE",
"324 348 CURVE SMOOTH"
);
}
);
width = 648;
}
);
unicode = 00A9;
},
{
glyphname = registered;
lastChange = "2021-10-06 14:01:32 +0000";
layers = (
{
layerId = "23C4FCBD-6BD7-473B-9A50-F233A862C235";
paths = (
{
closed = 1;
nodes = (
"88 0 LINE",
"560 0 LINE",
"624 64 LINE",
"624 536 LINE",
"560 600 LINE",
"88 600 LINE",
"24 536 LINE",
"24 64 LINE"
);
},
{
closed = 1;
nodes = (
"168 423 LINE",
"201 456 LINE",
"447 456 LINE",
"480 423 LINE",
"480 177 LINE",
"447 144 LINE",
"201 144 LINE",
"168 177 LINE"
);
},
{
closed = 1;
nodes = (
"221 168 LINE",
"312 168 LINE",
"312 319 LINE",
"305 324 OFFCURVE",
"300 331 OFFCURVE",
"300 340 CURVE SMOOTH",
"300 353 OFFCURVE",
"311 364 OFFCURVE",
"324 364 CURVE SMOOTH",
"337 364 OFFCURVE",
"348 353 OFFCURVE",
"348 340 CURVE",
"390 340 LINE",
"456 340 LINE",
"456 403 LINE",
"427 432 LINE",
"221 432 LINE",
"192 403 LINE",
"192 197 LINE"
);
},
{
closed = 1;
nodes = (
"331 328 OFFCURVE",
"336 333 OFFCURVE",
"336 340 CURVE SMOOTH",
"336 347 OFFCURVE",
"331 352 OFFCURVE",
"324 352 CURVE SMOOTH",
"317 352 OFFCURVE",
"312 347 OFFCURVE",
"312 340 CURVE SMOOTH",
"312 333 OFFCURVE",
"317 328 OFFCURVE",
"324 328 CURVE SMOOTH"
);
}
);
width = 648;
}
);
unicode = 00AE;
},
{
glyphname = degree;
lastChange = "2021-10-06 20:14:51 +0000";
layers = (
{
layerId = "23C4FCBD-6BD7-473B-9A50-F233A862C235";
paths = (
{
closed = 1;
nodes = (
"202 400 LINE",
"240 438 LINE",
"240 562 LINE",
"202 600 LINE",
"78 600 LINE",
"40 562 LINE",
"40 438 LINE",
"78 400 LINE"
);
},
{
closed = 1;
nodes = (
"127 476 OFFCURVE",
"116 487 OFFCURVE",
"116 500 CURVE SMOOTH",
"116 513 OFFCURVE",
"127 524 OFFCURVE",
"140 524 CURVE SMOOTH",
"153 524 OFFCURVE",
"164 513 OFFCURVE",
"164 500 CURVE SMOOTH",
"164 487 OFFCURVE",
"153 476 OFFCURVE",
"140 476 CURVE SMOOTH"
);
},
{
closed = 1;
nodes = (
"147 488 OFFCURVE",
"152 493 OFFCURVE",
"152 500 CURVE SMOOTH",
"152 507 OFFCURVE",
"147 512 OFFCURVE",
"140 512 CURVE SMOOTH",
"133 512 OFFCURVE",
"128 507 OFFCURVE",
"128 500 CURVE SMOOTH",
"128 493 OFFCURVE",
"133 488 OFFCURVE",
"140 488 CURVE SMOOTH"
);
}
);
width = 280;
}
);
unicode = 00B0;
},
{
glyphname = bar;
lastChange = "2021-10-07 09:23:52 +0000";
layers = (
{
layerId = "23C4FCBD-6BD7-473B-9A50-F233A862C235";
paths = (
{
closed = 1;
nodes = (
"40 -165 LINE",
"240 -165 LINE",
"240 684 LINE",
"40 684 LINE"
);
}
);
width = 280;
}
);
unicode = 007C;
},
{
glyphname = brokenbar;
lastChange = "2021-10-07 09:27:58 +0000";
layers = (
{
layerId = "23C4FCBD-6BD7-473B-9A50-F233A862C235";
paths = (
{
closed = 1;
nodes = (
"240 -165 LINE",
"240 240 LINE",
"40 240 LINE",
"40 -165 LINE"
);
},
{
closed = 1;
nodes = (
"40 360 LINE",
"240 360 LINE",
"240 684 LINE",
"40 684 LINE"
);
}
);
width = 280;
}
);
unicode = 00A6;
},
{
glyphname = cent;
lastChange = "2021-10-07 16:17:59 +0000";
layers = (
{
layerId = "23C4FCBD-6BD7-473B-9A50-F233A862C235";
paths = (
{
closed = 1;
nodes = (
"232 134 LINE",
"239 129 OFFCURVE",
"244 122 OFFCURVE",
"244 113 CURVE SMOOTH",
"244 100 OFFCURVE",
"233 89 OFFCURVE",
"220 89 CURVE SMOOTH",
"207 89 OFFCURVE",
"196 100 OFFCURVE",
"196 113 CURVE SMOOTH",
"196 122 OFFCURVE",
"201 129 OFFCURVE",
"208 134 CURVE",
"208 279 LINE",
"201 284 OFFCURVE",
"196 291 OFFCURVE",
"196 300 CURVE SMOOTH",
"196 313 OFFCURVE",
"207 324 OFFCURVE",
"220 324 CURVE SMOOTH",
"233 324 OFFCURVE",
"244 313 OFFCURVE",
"244 300 CURVE SMOOTH",
"244 291 OFFCURVE",
"239 284 OFFCURVE",
"232 279 CURVE",
"232 216 LINE",
"416 216 LINE",
"416 336 LINE",
"352 400 LINE",
"88 400 LINE",
"24 336 LINE",
"24 64 LINE",
"88 0 LINE",
"352 0 LINE",
"416 64 LINE",
"416 192 LINE",
"232 192 LINE"
);
},
{
closed = 1;
nodes = (
"227 288 OFFCURVE",
"232 293 OFFCURVE",
"232 300 CURVE SMOOTH",
"232 307 OFFCURVE",
"227 312 OFFCURVE",
"220 312 CURVE SMOOTH",
"213 312 OFFCURVE",
"208 307 OFFCURVE",
"208 300 CURVE SMOOTH",
"208 293 OFFCURVE",
"213 288 OFFCURVE",
"220 288 CURVE SMOOTH"
);
},
{
closed = 1;
nodes = (
"227 101 OFFCURVE",
"232 106 OFFCURVE",
"232 113 CURVE SMOOTH",
"232 120 OFFCURVE",
"227 125 OFFCURVE",
"220 125 CURVE SMOOTH",
"213 125 OFFCURVE",
"208 120 OFFCURVE",
"208 113 CURVE SMOOTH",
"208 106 OFFCURVE",
"213 101 OFFCURVE",
"220 101 CURVE SMOOTH"
);
},
{
closed = 1;
nodes = (
"148 -84 LINE",
"292 -84 LINE",
"292 0 LINE",
"148 0 LINE"
);
},
{
closed = 1;
nodes = (
"148 400 LINE",
"292 400 LINE",
"292 484 LINE",
"148 484 LINE"
);
}
);
width = 440;
}
);
unicode = 00A2;
},
{
glyphname = currency;
lastChange = "2021-10-13 13:22:23 +0000";
layers = (
{
layerId = "23C4FCBD-6BD7-473B-9A50-F233A862C235";
paths = (
{
closed = 1;
nodes = (
"376 400 LINE",
"376 416 LINE",
"440 480 LINE",
"440 600 LINE",
"320 600 LINE",
"256 536 LINE",
"240 536 LINE",
"240 480 LINE",
"297 457 LINE",
"320 400 LINE"
);
},
{
closed = 1;
nodes = (
"297 343 LINE",
"240 320 LINE",
"240 264 LINE",
"256 264 LINE",
"320 200 LINE",
"440 200 LINE",
"440 320 LINE",
"376 384 LINE",
"376 400 LINE",
"320 400 LINE"
);
},
{
closed = 1;
nodes = (
"183 457 LINE",
"240 480 LINE",
"240 536 LINE",
"224 536 LINE",
"160 600 LINE",
"40 600 LINE",
"40 480 LINE",
"104 416 LINE",
"104 400 LINE",
"160 400 LINE"
);
},
{
closed = 1;
nodes = (
"104 400 LINE",
"104 384 LINE",
"40 320 LINE",
"40 200 LINE",
"160 200 LINE",
"224 264 LINE",
"240 264 LINE",
"240 320 LINE",
"183 343 LINE",
"160 400 LINE"
);
}
);
width = 480;
}
);
unicode = 00A4;
},
{
glyphname = dollar;
lastChange = "2021-10-13 14:33:01 +0000";
layers = (
{
guideLines = (
{
angle = 162.3156;
position = "{24, 288}";
}
);
layerId = "23C4FCBD-6BD7-473B-9A50-F233A862C235";
paths = (
{
closed = 1;
nodes = (
"322 -84 LINE",
"322 0 LINE",
"424 0 LINE",
"456 32 LINE",
"456 364 LINE",
"322 407 LINE",
"322 432 LINE",
"424 399 LINE",
"424 600 LINE",
"322 600 LINE",
"322 684 LINE",
"178 684 LINE",
"178 600 LINE",
"57 600 LINE",
"24 567 LINE",
"24 288 LINE",
"178 239 LINE",
"178 209 LINE",
"24 258 LINE",
"24 0 LINE",
"178 0 LINE",
"178 -84 LINE"
);
},
{
closed = 1;
nodes = (
"328 148 OFFCURVE",
"317 159 OFFCURVE",
"317 172 CURVE SMOOTH",
"317 185 OFFCURVE",
"328 196 OFFCURVE",
"341 196 CURVE SMOOTH",
"354 196 OFFCURVE",
"365 185 OFFCURVE",
"365 172 CURVE SMOOTH",
"365 159 OFFCURVE",
"354 148 OFFCURVE",
"341 148 CURVE SMOOTH"
);
},
{
closed = 1;
nodes = (
"348 160 OFFCURVE",
"353 165 OFFCURVE",
"353 172 CURVE SMOOTH",
"353 179 OFFCURVE",
"348 184 OFFCURVE",
"341 184 CURVE SMOOTH",
"334 184 OFFCURVE",
"329 179 OFFCURVE",
"329 172 CURVE SMOOTH",
"329 165 OFFCURVE",
"334 160 OFFCURVE",
"341 160 CURVE SMOOTH"
);
},
{
closed = 1;
nodes = (
"149 447 OFFCURVE",
"138 458 OFFCURVE",
"138 471 CURVE SMOOTH",
"138 484 OFFCURVE",
"149 495 OFFCURVE",
"162 495 CURVE SMOOTH",
"175 495 OFFCURVE",
"186 484 OFFCURVE",
"186 471 CURVE SMOOTH",
"186 458 OFFCURVE",
"175 447 OFFCURVE",
"162 447 CURVE SMOOTH"
);
},
{
closed = 1;
nodes = (
"169 459 OFFCURVE",
"174 464 OFFCURVE",
"174 471 CURVE SMOOTH",
"174 478 OFFCURVE",
"169 483 OFFCURVE",
"162 483 CURVE SMOOTH",
"155 483 OFFCURVE",
"150 478 OFFCURVE",
"150 471 CURVE SMOOTH",
"150 464 OFFCURVE",
"155 459 OFFCURVE",
"162 459 CURVE SMOOTH"
);
}
);
width = 480;
}
);
unicode = 0024;
},
{
glyphname = euro;
lastChange = "2021-10-08 07:58:42 +0000";
layers = (
{
layerId = "23C4FCBD-6BD7-473B-9A50-F233A862C235";
paths = (
{
closed = 1;
nodes = (
"88 0 LINE",
"392 0 LINE",
"456 64 LINE",
"456 172 LINE",
"204 172 LINE",
"200 165 OFFCURVE",
"192 160 OFFCURVE",
"184 160 CURVE SMOOTH",
"171 160 OFFCURVE",
"160 171 OFFCURVE",
"160 184 CURVE SMOOTH",
"160 197 OFFCURVE",
"171 208 OFFCURVE",
"184 208 CURVE SMOOTH",
"192 208 OFFCURVE",
"200 203 OFFCURVE",
"204 196 CURVE",
"392 196 LINE",
"392 280 LINE",
"225 280 LINE",
"220 273 OFFCURVE",
"213 268 OFFCURVE",
"204 268 CURVE SMOOTH",
"191 268 OFFCURVE",
"180 279 OFFCURVE",
"180 292 CURVE SMOOTH",
"180 305 OFFCURVE",
"191 316 OFFCURVE",
"204 316 CURVE SMOOTH",
"213 316 OFFCURVE",
"220 311 OFFCURVE",
"225 304 CURVE",
"424 304 LINE",
"424 388 LINE",
"245 388 LINE",
"240 381 OFFCURVE",
"233 376 OFFCURVE",
"224 376 CURVE SMOOTH",
"211 376 OFFCURVE",
"200 387 OFFCURVE",
"200 400 CURVE SMOOTH",
"200 413 OFFCURVE",
"211 424 OFFCURVE",
"224 424 CURVE SMOOTH",
"233 424 OFFCURVE",
"240 419 OFFCURVE",
"245 412 CURVE",
"456 412 LINE",
"456 536 LINE",
"392 600 LINE",
"88 600 LINE",
"24 536 LINE",
"24 64 LINE"
);
},
{
closed = 1;
nodes = (
"172 177 OFFCURVE",
"177 172 OFFCURVE",
"184 172 CURVE SMOOTH",
"191 172 OFFCURVE",
"196 177 OFFCURVE",
"196 184 CURVE SMOOTH",
"196 191 OFFCURVE",
"191 196 OFFCURVE",
"184 196 CURVE SMOOTH",
"177 196 OFFCURVE",
"172 191 OFFCURVE",
"172 184 CURVE SMOOTH"
);
},
{
closed = 1;
nodes = (
"192 285 OFFCURVE",
"197 280 OFFCURVE",
"204 280 CURVE SMOOTH",
"211 280 OFFCURVE",
"216 285 OFFCURVE",
"216 292 CURVE SMOOTH",
"216 299 OFFCURVE",
"211 304 OFFCURVE",
"204 304 CURVE SMOOTH",
"197 304 OFFCURVE",
"192 299 OFFCURVE",
"192 292 CURVE SMOOTH"
);
},
{
closed = 1;
nodes = (
"212 393 OFFCURVE",
"217 388 OFFCURVE",
"224 388 CURVE SMOOTH",
"231 388 OFFCURVE",
"236 393 OFFCURVE",
"236 400 CURVE SMOOTH",
"236 407 OFFCURVE",
"231 412 OFFCURVE",
"224 412 CURVE SMOOTH",
"217 412 OFFCURVE",
"212 407 OFFCURVE",
"212 400 CURVE SMOOTH"
);
}
);
width = 480;
}
);
unicode = 20AC;
},
{
glyphname = sterling;
lastChange = "2021-08-19 14:36:37 +0000";
layers = (
{
guideLines = (
{
angle = 180;
position = "{224, 400}";
}
);
layerId = "23C4FCBD-6BD7-473B-9A50-F233A862C235";
paths = (
{
closed = 1;
nodes = (
"424 0 LINE",
"424 207 LINE",
"245 207 LINE",
"240 200 OFFCURVE",
"233 195 OFFCURVE",
"224 195 CURVE SMOOTH",
"211 195 OFFCURVE",
"200 206 OFFCURVE",
"200 219 CURVE SMOOTH",
"200 232 OFFCURVE",
"211 243 OFFCURVE",
"224 243 CURVE SMOOTH",
"233 243 OFFCURVE",
"240 238 OFFCURVE",
"245 231 CURVE",
"324 231 LINE",
"324 388 LINE",
"245 388 LINE",
"240 381 OFFCURVE",
"233 376 OFFCURVE",
"224 376 CURVE SMOOTH",
"211 376 OFFCURVE",
"200 387 OFFCURVE",
"200 400 CURVE SMOOTH",
"200 413 OFFCURVE",
"211 424 OFFCURVE",
"224 424 CURVE",
"324 600 LINE",
"24 600 LINE",
"24 413 LINE",
"65 413 LINE",
"70 420 OFFCURVE",
"77 425 OFFCURVE",
"86 425 CURVE SMOOTH",
"99 425 OFFCURVE",
"110 414 OFFCURVE",
"110 401 CURVE SMOOTH",
"110 388 OFFCURVE",
"99 377 OFFCURVE",
"86 377 CURVE SMOOTH",
"77 377 OFFCURVE",
"70 382 OFFCURVE",
"65 389 CURVE",
"24 389 LINE",
"24 231 LINE",
"65 231 LINE",
"70 238 OFFCURVE",
"77 243 OFFCURVE",
"86 243 CURVE SMOOTH",
"99 243 OFFCURVE",
"110 232 OFFCURVE",
"110 219 CURVE SMOOTH",
"110 206 OFFCURVE",
"99 195 OFFCURVE",
"86 195 CURVE SMOOTH",
"77 195 OFFCURVE",
"70 200 OFFCURVE",
"65 207 CURVE",
"24 207 LINE",
"24 0 LINE"
);
},
{
closed = 1;
nodes = (
"74 212 OFFCURVE",
"79 207 OFFCURVE",
"86 207 CURVE SMOOTH",
"93 207 OFFCURVE",
"98 212 OFFCURVE",
"98 219 CURVE SMOOTH",
"98 226 OFFCURVE",
"93 231 OFFCURVE",
"86 231 CURVE SMOOTH",
"79 231 OFFCURVE",
"74 226 OFFCURVE",
"74 219 CURVE SMOOTH"
);
},
{
closed = 1;
nodes = (
"74 394 OFFCURVE",
"79 389 OFFCURVE",
"86 389 CURVE SMOOTH",
"93 389 OFFCURVE",
"98 394 OFFCURVE",
"98 401 CURVE SMOOTH",
"98 408 OFFCURVE",
"93 413 OFFCURVE",
"86 413 CURVE SMOOTH",
"79 413 OFFCURVE",
"74 408 OFFCURVE",
"74 401 CURVE SMOOTH"
);
},
{
closed = 1;
nodes = (
"212 212 OFFCURVE",
"217 207 OFFCURVE",
"224 207 CURVE SMOOTH",
"231 207 OFFCURVE",
"236 212 OFFCURVE",
"236 219 CURVE SMOOTH",
"236 226 OFFCURVE",
"231 231 OFFCURVE",
"224 231 CURVE SMOOTH",
"217 231 OFFCURVE",
"212 226 OFFCURVE",
"212 219 CURVE SMOOTH"
);
},
{
closed = 1;
nodes = (
"212 394 OFFCURVE",
"217 389 OFFCURVE",
"224 389 CURVE SMOOTH",
"231 389 OFFCURVE",
"236 394 OFFCURVE",
"236 401 CURVE SMOOTH",
"236 408 OFFCURVE",
"231 413 OFFCURVE",
"224 413 CURVE SMOOTH",
"217 413 OFFCURVE",
"212 408 OFFCURVE",
"212 401 CURVE SMOOTH"
);
}
);
width = 448;
}
);
unicode = 00A3;
},
{
glyphname = yen;
lastChange = "2021-10-13 09:17:30 +0000";
layers = (
{
layerId = "23C4FCBD-6BD7-473B-9A50-F233A862C235";
paths = (
{
closed = 1;
nodes = (
"408 46 LINE",
"408 166 LINE",
"72 166 LINE",
"72 46 LINE"
);
},
{
closed = 1;
nodes = (
"408 190 LINE",
"408 310 LINE",
"72 310 LINE",
"72 190 LINE"
);
},
{
closed = 1;
nodes = (
"228 443 OFFCURVE",
"233 438 OFFCURVE",
"240 438 CURVE SMOOTH",
"247 438 OFFCURVE",
"252 443 OFFCURVE",
"252 450 CURVE SMOOTH",
"252 457 OFFCURVE",
"247 462 OFFCURVE",
"240 462 CURVE SMOOTH",
"233 462 OFFCURVE",
"228 457 OFFCURVE",
"228 450 CURVE SMOOTH"
);
},
{
closed = 1;
nodes = (
"72 334 LINE",
"152 334 LINE",
"152 0 LINE",
"328 0 LINE",
"328 334 LINE",
"408 334 LINE",
"456 382 LINE",
"456 600 LINE",
"252 600 LINE",
"252 471 LINE",
"259 466 OFFCURVE",
"264 459 OFFCURVE",
"264 450 CURVE SMOOTH",
"264 437 OFFCURVE",
"253 426 OFFCURVE",
"240 426 CURVE SMOOTH",
"227 426 OFFCURVE",
"216 437 OFFCURVE",
"216 450 CURVE SMOOTH",
"216 459 OFFCURVE",
"221 466 OFFCURVE",
"228 471 CURVE",
"228 600 LINE",
"24 600 LINE",
"24 382 LINE"
);
}
);
width = 480;
}
);
unicode = 00A5;
},
{
glyphname = plus;
lastChange = "2021-10-06 12:49:33 +0000";
layers = (
{
layerId = "23C4FCBD-6BD7-473B-9A50-F233A862C235";
paths = (
{
closed = 1;
nodes = (
"144 228 LINE",
"144 241 OFFCURVE",
"155 252 OFFCURVE",
"168 252 CURVE SMOOTH",
"181 252 OFFCURVE",
"192 241 OFFCURVE",
"192 228 CURVE SMOOTH",
"192 215 OFFCURVE",
"181 204 OFFCURVE",
"168 204 CURVE",
"168 100 LINE",
"312 100 LINE",
"312 204 LINE",
"299 204 OFFCURVE",
"288 215 OFFCURVE",
"288 228 CURVE SMOOTH",
"288 241 OFFCURVE",
"299 252 OFFCURVE",
"312 252 CURVE SMOOTH",
"325 252 OFFCURVE",
"336 241 OFFCURVE",
"336 228 CURVE",
"440 228 LINE",
"440 372 LINE",
"336 372 LINE",
"336 359 OFFCURVE",
"325 348 OFFCURVE",
"312 348 CURVE SMOOTH",
"299 348 OFFCURVE",
"288 359 OFFCURVE",
"288 372 CURVE SMOOTH",
"288 385 OFFCURVE",
"299 396 OFFCURVE",
"312 396 CURVE",
"312 500 LINE",
"168 500 LINE",
"168 396 LINE",
"181 396 OFFCURVE",
"192 385 OFFCURVE",
"192 372 CURVE SMOOTH",
"192 359 OFFCURVE",
"181 348 OFFCURVE",
"168 348 CURVE SMOOTH",
"155 348 OFFCURVE",
"144 359 OFFCURVE",
"144 372 CURVE",
"40 372 LINE",
"40 228 LINE"
);
},
{
closed = 1;
nodes = (
"156 221 OFFCURVE",
"161 216 OFFCURVE",
"168 216 CURVE SMOOTH",
"175 216 OFFCURVE",
"180 221 OFFCURVE",
"180 228 CURVE SMOOTH",
"180 235 OFFCURVE",
"175 240 OFFCURVE",
"168 240 CURVE SMOOTH",
"161 240 OFFCURVE",
"156 235 OFFCURVE",
"156 228 CURVE SMOOTH"
);
},
{
closed = 1;
nodes = (
"156 365 OFFCURVE",
"161 360 OFFCURVE",
"168 360 CURVE SMOOTH",
"175 360 OFFCURVE",
"180 365 OFFCURVE",
"180 372 CURVE SMOOTH",
"180 379 OFFCURVE",
"175 384 OFFCURVE",
"168 384 CURVE SMOOTH",
"161 384 OFFCURVE",
"156 379 OFFCURVE",
"156 372 CURVE SMOOTH"
);
},
{
closed = 1;
nodes = (
"300 221 OFFCURVE",
"305 216 OFFCURVE",
"312 216 CURVE SMOOTH",
"319 216 OFFCURVE",
"324 221 OFFCURVE",
"324 228 CURVE SMOOTH",
"324 235 OFFCURVE",
"319 240 OFFCURVE",
"312 240 CURVE SMOOTH",
"305 240 OFFCURVE",
"300 235 OFFCURVE",
"300 228 CURVE SMOOTH"
);
},
{
closed = 1;
nodes = (
"300 365 OFFCURVE",
"305 360 OFFCURVE",
"312 360 CURVE SMOOTH",
"319 360 OFFCURVE",
"324 365 OFFCURVE",
"324 372 CURVE SMOOTH",
"324 379 OFFCURVE",
"319 384 OFFCURVE",
"312 384 CURVE SMOOTH",
"305 384 OFFCURVE",
"300 379 OFFCURVE",
"300 372 CURVE SMOOTH"
);
}
);
width = 480;
}
);
unicode = 002B;
},
{
glyphname = minus;
lastChange = "2021-10-06 12:50:02 +0000";
layers = (
{
layerId = "23C4FCBD-6BD7-473B-9A50-F233A862C235";
paths = (
{
closed = 1;
nodes = (
"440 228 LINE",
"440 372 LINE",
"40 372 LINE",
"40 228 LINE"
);
}
);
width = 480;
}
);
unicode = 2212;
},
{
glyphname = multiply;
lastChange = "2021-10-06 12:51:35 +0000";
layers = (
{
layerId = "23C4FCBD-6BD7-473B-9A50-F233A862C235";
paths = (
{
closed = 1;
nodes = (
"121 317 LINE",
"130 326 OFFCURVE",
"146 326 OFFCURVE",
"155 317 CURVE SMOOTH",
"164 308 OFFCURVE",
"164 292 OFFCURVE",
"155 283 CURVE SMOOTH",
"146 274 OFFCURVE",
"130 274 OFFCURVE",
"121 283 CURVE",
"40 201 LINE",
"141 100 LINE",
"223 181 LINE",
"214 190 OFFCURVE",
"214 206 OFFCURVE",
"223 215 CURVE SMOOTH",
"232 224 OFFCURVE",
"248 224 OFFCURVE",
"257 215 CURVE SMOOTH",
"266 206 OFFCURVE",
"266 190 OFFCURVE",
"257 181 CURVE",
"339 100 LINE",
"440 201 LINE",
"359 283 LINE",
"350 274 OFFCURVE",
"334 274 OFFCURVE",
"325 283 CURVE SMOOTH",
"316 292 OFFCURVE",
"316 308 OFFCURVE",
"325 317 CURVE SMOOTH",
"334 326 OFFCURVE",
"350 326 OFFCURVE",
"359 317 CURVE",
"440 399 LINE",
"339 500 LINE",
"257 419 LINE",
"266 410 OFFCURVE",
"266 394 OFFCURVE",
"257 385 CURVE SMOOTH",
"248 376 OFFCURVE",
"232 376 OFFCURVE",
"223 385 CURVE SMOOTH",
"214 394 OFFCURVE",
"214 410 OFFCURVE",
"223 419 CURVE",
"141 500 LINE",
"40 399 LINE"
);
},
{
closed = 1;
nodes = (
"125 304 OFFCURVE",
"125 296 OFFCURVE",
"130 292 CURVE SMOOTH",
"135 287 OFFCURVE",
"142 287 OFFCURVE",
"147 292 CURVE SMOOTH",
"152 296 OFFCURVE",
"152 304 OFFCURVE",
"147 308 CURVE SMOOTH",
"142 313 OFFCURVE",
"135 313 OFFCURVE",
"130 308 CURVE SMOOTH"
);
},
{
closed = 1;
nodes = (
"227 405 OFFCURVE",
"227 398 OFFCURVE",
"232 393 CURVE SMOOTH",
"236 388 OFFCURVE",
"244 388 OFFCURVE",
"248 393 CURVE SMOOTH",
"253 398 OFFCURVE",
"253 405 OFFCURVE",
"248 410 CURVE SMOOTH",
"244 415 OFFCURVE",
"236 415 OFFCURVE",
"232 410 CURVE SMOOTH"
);
},
{
closed = 1;
nodes = (
"227 202 OFFCURVE",
"227 195 OFFCURVE",
"232 190 CURVE SMOOTH",
"236 185 OFFCURVE",
"244 185 OFFCURVE",
"248 190 CURVE SMOOTH",
"253 195 OFFCURVE",
"253 202 OFFCURVE",
"248 207 CURVE SMOOTH",
"244 212 OFFCURVE",
"236 212 OFFCURVE",
"232 207 CURVE SMOOTH"
);
},
{
closed = 1;
nodes = (
"328 304 OFFCURVE",
"328 296 OFFCURVE",
"333 292 CURVE SMOOTH",
"338 287 OFFCURVE",
"345 287 OFFCURVE",
"350 292 CURVE SMOOTH",
"355 296 OFFCURVE",
"355 304 OFFCURVE",
"350 308 CURVE SMOOTH",
"345 313 OFFCURVE",
"338 313 OFFCURVE",
"333 308 CURVE SMOOTH"
);
}
);
width = 480;
}
);
unicode = 00D7;
},
{
glyphname = divide;
lastChange = "2021-10-06 12:54:32 +0000";
layers = (
{
layerId = "23C4FCBD-6BD7-473B-9A50-F233A862C235";
paths = (
{
closed = 1;
nodes = (
"156 428 LINE",
"188 396 LINE",
"292 396 LINE",
"324 428 LINE",
"324 522 LINE",
"292 554 LINE",
"188 554 LINE",
"156 522 LINE"
);
},
{
closed = 1;
nodes = (
"440 228 LINE",
"440 372 LINE",
"40 372 LINE",
"40 228 LINE"
);
},
{
closed = 1;
nodes = (
"156 76 LINE",
"188 44 LINE",
"292 44 LINE",
"324 76 LINE",
"324 170 LINE",
"292 202 LINE",
"188 202 LINE",
"156 170 LINE"
);
}
);
width = 480;
}
);
unicode = 00F7;
},
{
glyphname = equal;
lastChange = "2021-10-06 19:35:34 +0000";
layers = (
{
layerId = "23C4FCBD-6BD7-473B-9A50-F233A862C235";
paths = (
{
closed = 1;
nodes = (
"440 350 LINE",
"440 494 LINE",
"40 494 LINE",
"40 350 LINE"
);
},
{
closed = 1;
nodes = (
"440 106 LINE",
"440 250 LINE",
"40 250 LINE",
"40 106 LINE"
);
}
);
width = 480;
}
);
unicode = 003D;
},
{
glyphname = less;
lastChange = "2021-10-05 10:56:29 +0000";
layers = (
{
layerId = "23C4FCBD-6BD7-473B-9A50-F233A862C235";
paths = (
{
closed = 1;
nodes = (
"464 -120 LINE",
"606 21 LINE",
"338.905 287.155 LINE",
"334.527 282.762 OFFCURVE",
"328.515 280 OFFCURVE",
"322 280 CURVE SMOOTH",
"309 280 OFFCURVE",
"298 291 OFFCURVE",
"298 304 CURVE SMOOTH",
"298 317 OFFCURVE",
"309 328 OFFCURVE",
"322 328 CURVE SMOOTH",
"328.515 328 OFFCURVE",
"334.527 325.238 OFFCURVE",
"338.905 320.845 CURVE",
"606 587 LINE",
"464 728 LINE",
"40 304 LINE"
);
},
{
closed = 1;
nodes = (
"329 292 OFFCURVE",
"334 297 OFFCURVE",
"334 304 CURVE SMOOTH",
"334 311 OFFCURVE",
"329 316 OFFCURVE",
"322 316 CURVE SMOOTH",
"315 316 OFFCURVE",
"310 311 OFFCURVE",
"310 304 CURVE SMOOTH",
"310 297 OFFCURVE",
"315 292 OFFCURVE",
"322 292 CURVE SMOOTH"
);
}
);
width = 646;
}
);
unicode = 003C;
},
{
glyphname = plusminus;
lastChange = "2021-10-06 14:06:13 +0000";
layers = (
{
layerId = "23C4FCBD-6BD7-473B-9A50-F233A862C235";
paths = (
{
closed = 1;
nodes = (
"144 328 LINE",
"144 341 OFFCURVE",
"155 352 OFFCURVE",
"168 352 CURVE SMOOTH",
"181 352 OFFCURVE",
"192 341 OFFCURVE",
"192 328 CURVE SMOOTH",
"192 315 OFFCURVE",
"181 304 OFFCURVE",
"168 304 CURVE",
"168 200 LINE",
"312 200 LINE",
"312 304 LINE",
"299 304 OFFCURVE",
"288 315 OFFCURVE",
"288 328 CURVE SMOOTH",
"288 341 OFFCURVE",
"299 352 OFFCURVE",
"312 352 CURVE SMOOTH",
"325 352 OFFCURVE",
"336 341 OFFCURVE",
"336 328 CURVE",
"440 328 LINE",
"440 472 LINE",
"336 472 LINE",
"336 459 OFFCURVE",
"325 448 OFFCURVE",
"312 448 CURVE SMOOTH",
"299 448 OFFCURVE",
"288 459 OFFCURVE",
"288 472 CURVE SMOOTH",
"288 485 OFFCURVE",
"299 496 OFFCURVE",
"312 496 CURVE",
"312 600 LINE",
"168 600 LINE",
"168 496 LINE",
"181 496 OFFCURVE",
"192 485 OFFCURVE",
"192 472 CURVE SMOOTH",
"192 459 OFFCURVE",
"181 448 OFFCURVE",
"168 448 CURVE SMOOTH",
"155 448 OFFCURVE",
"144 459 OFFCURVE",
"144 472 CURVE",
"40 472 LINE",
"40 328 LINE"
);
},
{
closed = 1;
nodes = (
"156 321 OFFCURVE",
"161 316 OFFCURVE",
"168 316 CURVE SMOOTH",
"175 316 OFFCURVE",
"180 321 OFFCURVE",
"180 328 CURVE SMOOTH",
"180 335 OFFCURVE",
"175 340 OFFCURVE",
"168 340 CURVE SMOOTH",
"161 340 OFFCURVE",
"156 335 OFFCURVE",
"156 328 CURVE SMOOTH"
);
},
{
closed = 1;
nodes = (
"156 465 OFFCURVE",
"161 460 OFFCURVE",
"168 460 CURVE SMOOTH",
"175 460 OFFCURVE",
"180 465 OFFCURVE",
"180 472 CURVE SMOOTH",
"180 479 OFFCURVE",
"175 484 OFFCURVE",
"168 484 CURVE SMOOTH",
"161 484 OFFCURVE",
"156 479 OFFCURVE",
"156 472 CURVE SMOOTH"
);
},
{
closed = 1;
nodes = (
"300 321 OFFCURVE",
"305 316 OFFCURVE",
"312 316 CURVE SMOOTH",
"319 316 OFFCURVE",
"324 321 OFFCURVE",
"324 328 CURVE SMOOTH",
"324 335 OFFCURVE",
"319 340 OFFCURVE",
"312 340 CURVE SMOOTH",
"305 340 OFFCURVE",
"300 335 OFFCURVE",
"300 328 CURVE SMOOTH"
);
},
{
closed = 1;
nodes = (
"300 465 OFFCURVE",
"305 460 OFFCURVE",
"312 460 CURVE SMOOTH",
"319 460 OFFCURVE",
"324 465 OFFCURVE",
"324 472 CURVE SMOOTH",
"324 479 OFFCURVE",
"319 484 OFFCURVE",
"312 484 CURVE SMOOTH",
"305 484 OFFCURVE",
"300 479 OFFCURVE",
"300 472 CURVE SMOOTH"
);
},
{
closed = 1;
nodes = (
"440 16 LINE",
"440 160 LINE",
"40 160 LINE",
"40 16 LINE"
);
}
);
width = 480;
}
);
unicode = 00B1;
},
{
glyphname = asciitilde;
lastChange = "2021-10-14 11:29:12 +0000";
layers = (
{
anchors = (
{
name = bottom;
position = "{280, 200}";
},
{
name = top;
position = "{280, 400}";
}
);
layerId = "23C4FCBD-6BD7-473B-9A50-F233A862C235";
paths = (
{
closed = 1;
nodes = (
"72 216 LINE",
"176 216 LINE",
"228 268 LINE",
"280 216 LINE",
"384 216 LINE",
"416 248 LINE",
"280 384 LINE",
"176 384 LINE",
"40 248 LINE"
);
},
{
closed = 1;
nodes = (
"280 216 LINE",
"384 216 LINE",
"520 352 LINE",
"488 384 LINE",
"384 384 LINE",
"332 332 LINE",
"280 384 LINE",
"176 384 LINE",
"144 352 LINE"
);
}
);
width = 560;
}
);
unicode = 007E;
},
{
glyphname = logicalnot;
lastChange = "2021-10-06 19:33:25 +0000";
layers = (
{
layerId = "23C4FCBD-6BD7-473B-9A50-F233A862C235";
paths = (
{
closed = 1;
nodes = (
"296 300 LINE",
"296 156 LINE",
"440 156 LINE",
"440 444 LINE",
"40 444 LINE",
"40 300 LINE"
);
}
);
width = 480;
}
);
unicode = 00AC;
},
{
glyphname = micro;
lastChange = "2021-10-06 10:13:16 +0000";
layers = (
{
guideLines = (
{
position = "{259, 208}";
},
{
angle = 84.8978;
position = "{521, 0}";
}
);
layerId = "23C4FCBD-6BD7-473B-9A50-F233A862C235";
paths = (
{
closed = 1;
nodes = (
"214 -165 LINE",
"229 0 LINE",
"521 0 LINE",
"527 64 LINE",
"462 64 LINE",
"492 400 LINE",
"60 400 LINE",
"10 -165 LINE"
);
},
{
closed = 1;
nodes = (
"235 217 OFFCURVE",
"241 226 OFFCURVE",
"249 230 CURVE",
"264 400 LINE",
"288 400 LINE",
"273 228 LINE",
"279 223 OFFCURVE",
"283 216 OFFCURVE",
"283 208 CURVE SMOOTH",
"283 195 OFFCURVE",
"272 184 OFFCURVE",
"259 184 CURVE SMOOTH",
"246 184 OFFCURVE",
"235 195 OFFCURVE",
"235 208 CURVE SMOOTH"
);
},
{
closed = 1;
nodes = (
"266 196 OFFCURVE",
"271 201 OFFCURVE",
"271 208 CURVE SMOOTH",
"271 215 OFFCURVE",
"266 220 OFFCURVE",
"259 220 CURVE SMOOTH",
"252 220 OFFCURVE",
"247 215 OFFCURVE",
"247 208 CURVE SMOOTH",
"247 201 OFFCURVE",
"252 196 OFFCURVE",
"259 196 CURVE SMOOTH"
);
}
);
width = 545;
}
);
unicode = 00B5;
},
{
glyphname = percent;
lastChange = "2021-10-06 18:48:53 +0000";
layers = (
{
guideLines = (
{
angle = -25.5329;
position = "{165, 293}";
}
);
layerId = "23C4FCBD-6BD7-473B-9A50-F233A862C235";
paths = (
{
closed = 1;
nodes = (
"224 400 LINE",
"224 600 LINE",
"24 600 LINE",
"24 400 LINE"
);
},
{
closed = 1;
nodes = (
"472 0 LINE",
"472 200 LINE",
"272 200 LINE",
"272 0 LINE"
);
},
{
closed = 1;
nodes = (
"111 476 OFFCURVE",
"100 487 OFFCURVE",
"100 500 CURVE SMOOTH",
"100 513 OFFCURVE",
"111 524 OFFCURVE",
"124 524 CURVE SMOOTH",
"137 524 OFFCURVE",
"148 513 OFFCURVE",
"148 500 CURVE SMOOTH",
"148 487 OFFCURVE",
"137 476 OFFCURVE",
"124 476 CURVE SMOOTH"
);
},
{
closed = 1;
nodes = (
"131 488 OFFCURVE",
"136 493 OFFCURVE",
"136 500 CURVE SMOOTH",
"136 507 OFFCURVE",
"131 512 OFFCURVE",
"124 512 CURVE SMOOTH",
"117 512 OFFCURVE",
"112 507 OFFCURVE",
"112 500 CURVE SMOOTH",
"112 493 OFFCURVE",
"117 488 OFFCURVE",
"124 488 CURVE SMOOTH"
);
},
{
closed = 1;
nodes = (
"359 76 OFFCURVE",
"348 87 OFFCURVE",
"348 100 CURVE SMOOTH",
"348 113 OFFCURVE",
"359 124 OFFCURVE",
"372 124 CURVE SMOOTH",
"385 124 OFFCURVE",
"396 113 OFFCURVE",
"396 100 CURVE SMOOTH",
"396 87 OFFCURVE",
"385 76 OFFCURVE",
"372 76 CURVE SMOOTH"
);
},
{
closed = 1;
nodes = (
"379 88 OFFCURVE",
"384 93 OFFCURVE",
"384 100 CURVE SMOOTH",
"384 107 OFFCURVE",
"379 112 OFFCURVE",
"372 112 CURVE SMOOTH",
"365 112 OFFCURVE",
"360 107 OFFCURVE",
"360 100 CURVE SMOOTH",
"360 93 OFFCURVE",
"365 88 OFFCURVE",
"372 88 CURVE SMOOTH"
);
},
{
closed = 1;
nodes = (
"248 0 LINE",
"248 40 LINE",
"448 560 LINE",
"448 600 LINE",
"248 600 LINE",
"248 560 LINE",
"48 40 LINE",
"48 0 LINE"
);
}
);
width = 496;
}
);
unicode = 0025;
},
{
glyphname = perthousand;
lastChange = "2021-10-06 18:52:50 +0000";
layers = (
{
components = (
{
name = percent;
}
);
layerId = "23C4FCBD-6BD7-473B-9A50-F233A862C235";
paths = (
{
closed = 1;
nodes = (
"696 0 LINE",
"696 200 LINE",
"496 200 LINE",
"496 124 LINE",
"472 124 LINE",
"472 76 LINE",
"496 76 LINE",
"496 0 LINE"
);
},
{
closed = 1;
nodes = (
"583 76 OFFCURVE",
"572 87 OFFCURVE",
"572 100 CURVE SMOOTH",
"572 113 OFFCURVE",
"583 124 OFFCURVE",
"596 124 CURVE SMOOTH",
"609 124 OFFCURVE",
"620 113 OFFCURVE",
"620 100 CURVE SMOOTH",
"620 87 OFFCURVE",
"609 76 OFFCURVE",
"596 76 CURVE SMOOTH"
);
},
{
closed = 1;
nodes = (
"603 88 OFFCURVE",
"608 93 OFFCURVE",
"608 100 CURVE SMOOTH",
"608 107 OFFCURVE",
"603 112 OFFCURVE",
"596 112 CURVE SMOOTH",
"589 112 OFFCURVE",
"584 107 OFFCURVE",
"584 100 CURVE SMOOTH",
"584 93 OFFCURVE",
"589 88 OFFCURVE",
"596 88 CURVE SMOOTH"
);
}
);
width = 720;
}
);
unicode = 2030;
},
{
glyphname = percent.001;
layers = (
{
guideLines = (
{
angle = -25.5329;
position = "{224, 400}";
}
);
layerId = "23C4FCBD-6BD7-473B-9A50-F233A862C235";
paths = (
{
closed = 1;
nodes = (
"224 400 LINE",
"224 600 LINE",
"24 600 LINE",
"24 400 LINE"
);
},
{
closed = 1;
nodes = (
"248 0 LINE",
"248 187 LINE",
"235 187 OFFCURVE",
"224 198 OFFCURVE",
"224 211 CURVE SMOOTH",
"224 224 OFFCURVE",
"235 235 OFFCURVE",
"248 235 CURVE SMOOTH",
"257.809 235 OFFCURVE",
"266.479 228.738 OFFCURVE",
"270.144 220.079 CURVE",
"448 293 LINE",
"448 600 LINE",
"248 600 LINE",
"248 413 LINE",
"261 413 OFFCURVE",
"272 402 OFFCURVE",
"272 389 CURVE SMOOTH",
"272 376 OFFCURVE",
"261 365 OFFCURVE",
"248 365 CURVE SMOOTH",
"238.191 365 OFFCURVE",
"229.521 371.262 OFFCURVE",
"225.856 379.921 CURVE",
"48 307 LINE",
"48 0 LINE"
);
},
{
closed = 1;
nodes = (
"255 199 OFFCURVE",
"260 204 OFFCURVE",
"260 211 CURVE SMOOTH",
"260 218 OFFCURVE",
"255 223 OFFCURVE",
"248 223 CURVE SMOOTH",
"241 223 OFFCURVE",
"236 218 OFFCURVE",
"236 211 CURVE SMOOTH",
"236 204 OFFCURVE",
"241 199 OFFCURVE",
"248 199 CURVE SMOOTH"
);
},
{
closed = 1;
nodes = (
"255 377 OFFCURVE",
"260 382 OFFCURVE",
"260 389 CURVE SMOOTH",
"260 396 OFFCURVE",
"255 401 OFFCURVE",
"248 401 CURVE SMOOTH",
"241 401 OFFCURVE",
"236 396 OFFCURVE",
"236 389 CURVE SMOOTH",
"236 382 OFFCURVE",
"241 377 OFFCURVE",
"248 377 CURVE SMOOTH"
);
},
{
closed = 1;
nodes = (
"472 0 LINE",
"472 200 LINE",
"272 200 LINE",
"272 0 LINE"
);
},
{
closed = 1;
nodes = (
"111 476 OFFCURVE",
"100 487 OFFCURVE",
"100 500 CURVE SMOOTH",
"100 513 OFFCURVE",
"111 524 OFFCURVE",
"124 524 CURVE SMOOTH",
"137 524 OFFCURVE",
"148 513 OFFCURVE",
"148 500 CURVE SMOOTH",
"148 487 OFFCURVE",
"137 476 OFFCURVE",
"124 476 CURVE SMOOTH"
);
},
{
closed = 1;
nodes = (
"131 488 OFFCURVE",
"136 493 OFFCURVE",
"136 500 CURVE SMOOTH",
"136 507 OFFCURVE",
"131 512 OFFCURVE",
"124 512 CURVE SMOOTH",
"117 512 OFFCURVE",
"112 507 OFFCURVE",
"112 500 CURVE SMOOTH",
"112 493 OFFCURVE",
"117 488 OFFCURVE",
"124 488 CURVE SMOOTH"
);
},
{
closed = 1;
nodes = (
"359 76 OFFCURVE",
"348 87 OFFCURVE",
"348 100 CURVE SMOOTH",
"348 113 OFFCURVE",
"359 124 OFFCURVE",
"372 124 CURVE SMOOTH",
"385 124 OFFCURVE",
"396 113 OFFCURVE",
"396 100 CURVE SMOOTH",
"396 87 OFFCURVE",
"385 76 OFFCURVE",
"372 76 CURVE SMOOTH"
);
},
{
closed = 1;
nodes = (
"379 88 OFFCURVE",
"384 93 OFFCURVE",
"384 100 CURVE SMOOTH",
"384 107 OFFCURVE",
"379 112 OFFCURVE",
"372 112 CURVE SMOOTH",
"365 112 OFFCURVE",
"360 107 OFFCURVE",
"360 100 CURVE SMOOTH",
"360 93 OFFCURVE",
"365 88 OFFCURVE",
"372 88 CURVE SMOOTH"
);
}
);
width = 496;
}
);
},
{
glyphname = dieresiscomb;
lastChange = "2021-09-01 19:39:03 +0000";
layers = (
{
anchors = (
{
name = _top;
position = "{208, 600}";
},
{
name = top;
position = "{208, 800}";
}
);
layerId = "23C4FCBD-6BD7-473B-9A50-F233A862C235";
paths = (
{
closed = 1;
nodes = (
"24 664 LINE",
"56 632 LINE",
"160 632 LINE",
"192 664 LINE",
"192 768 LINE",
"160 800 LINE",
"56 800 LINE",
"24 768 LINE"
);
},
{
closed = 1;
nodes = (
"224 664 LINE",
"256 632 LINE",
"360 632 LINE",
"392 664 LINE",
"392 768 LINE",
"360 800 LINE",
"256 800 LINE",
"224 768 LINE"
);
}
);
width = 416;
}
);
unicode = 0308;
},
{
glyphname = dotaccentcomb;
lastChange = "2021-09-01 20:31:30 +0000";
layers = (
{
anchors = (
{
name = _top;
position = "{108, 600}";
},
{
name = top;
position = "{108, 800}";
}
);
layerId = "23C4FCBD-6BD7-473B-9A50-F233A862C235";
paths = (
{
closed = 1;
nodes = (
"24 664 LINE",
"56 632 LINE",
"160 632 LINE",
"192 664 LINE",
"192 768 LINE",
"160 800 LINE",
"56 800 LINE",
"24 768 LINE"
);
}
);
width = 216;
}
);
unicode = 0307;
},
{
glyphname = gravecomb;
lastChange = "2021-09-01 21:01:12 +0000";
layers = (
{
anchors = (
{
name = _top;
position = "{188, 600}";
},
{
name = top;
position = "{188, 800}";
}
);
layerId = "23C4FCBD-6BD7-473B-9A50-F233A862C235";
paths = (
{
closed = 1;
nodes = (
"160 632 LINE",
"264 632 LINE",
"296 664 LINE",
"160 800 LINE",
"56 800 LINE",
"24 768 LINE"
);
}
);
width = 320;
}
);
unicode = 0300;
},
{
glyphname = acutecomb;
lastChange = "2021-09-01 21:09:09 +0000";
layers = (
{
anchors = (
{
name = _top;
position = "{132, 600}";
},
{
name = top;
position = "{132, 800}";
}
);
layerId = "23C4FCBD-6BD7-473B-9A50-F233A862C235";
paths = (
{
closed = 1;
nodes = (
"264 800 LINE",
"160 800 LINE",
"24 664 LINE",
"56 632 LINE",
"160 632 LINE",
"296 768 LINE"
);
}
);
width = 320;
}
);
unicode = 0301;
},
{
glyphname = circumflexcomb;
lastChange = "2021-09-05 22:49:08 +0000";
layers = (
{
anchors = (
{
name = _top;
position = "{212, 600}";
},
{
name = top;
position = "{212, 800}";
}
);
layerId = "23C4FCBD-6BD7-473B-9A50-F233A862C235";
paths = (
{
closed = 1;
nodes = (
"264 632 LINE",
"368 632 LINE",
"400 664 LINE",
"264 800 LINE",
"160 800 LINE",
"128 768 LINE"
);
},
{
closed = 1;
nodes = (
"264 800 LINE",
"160 800 LINE",
"24 664 LINE",
"56 632 LINE",
"160 632 LINE",
"296 768 LINE"
);
}
);
width = 424;
}
);
unicode = 0302;
},
{
glyphname = caroncomb;
lastChange = "2021-09-07 21:02:44 +0000";
layers = (
{
anchors = (
{
name = _top;
position = "{212, 600}";
},
{
name = top;
position = "{212, 800}";
}
);
layerId = "23C4FCBD-6BD7-473B-9A50-F233A862C235";
paths = (
{
closed = 1;
nodes = (
"160 632 LINE",
"264 632 LINE",
"400 768 LINE",
"368 800 LINE",
"264 800 LINE",
"128 664 LINE"
);
},
{
closed = 1;
nodes = (
"160 800 LINE",
"56 800 LINE",
"24 768 LINE",
"160 632 LINE",
"264 632 LINE",
"296 664 LINE"
);
}
);
width = 424;
}
);
unicode = 030C;
},
{
glyphname = brevecomb;
lastChange = "2021-11-01 11:02:02 +0000";
layers = (
{
anchors = (
{
name = _top;
position = "{192, 600}";
},
{
name = top;
position = "{192, 800}";
}
);
background = {
paths = (
{
closed = 1;
nodes = (
"140 632 LINE",
"244 632 LINE",
"380 768 LINE",
"348 800 LINE",
"244 800 LINE",
"108 664 LINE"
);
},
{
closed = 1;
nodes = (
"140 800 LINE",
"36 800 LINE",
"4 768 LINE",
"140 632 LINE",
"244 632 LINE",
"276 664 LINE"
);
}
);
};
layerId = "23C4FCBD-6BD7-473B-9A50-F233A862C235";
paths = (
{
closed = 1;
nodes = (
"88 632 LINE",
"296 632 LINE",
"360 696 LINE",
"360 768 LINE",
"328 800 LINE",
"296 800 LINE",
"264 768 LINE",
"264 742 LINE",
"240 718 LINE",
"144 718 LINE",
"120 742 LINE",
"120 768 LINE",
"88 800 LINE",
"56 800 LINE",
"24 768 LINE",
"24 696 LINE"
);
}
);
width = 384;
}
);
unicode = 0306;
},
{
glyphname = ringcomb;
lastChange = "2021-09-07 21:25:30 +0000";
layers = (
{
anchors = (
{
name = _top;
position = "{108, 600}";
},
{
name = top;
position = "{108, 800}";
}
);
layerId = "23C4FCBD-6BD7-473B-9A50-F233A862C235";
paths = (
{
closed = 1;
nodes = (
"160 632 LINE",
"192 664 LINE",
"192 768 LINE",
"160 800 LINE",
"56 800 LINE",
"24 768 LINE",
"24 664 LINE",
"56 632 LINE"
);
},
{
closed = 1;
nodes = (
"95 692 OFFCURVE",
"84 703 OFFCURVE",
"84 716 CURVE SMOOTH",
"84 729 OFFCURVE",
"95 740 OFFCURVE",
"108 740 CURVE SMOOTH",
"121 740 OFFCURVE",
"132 729 OFFCURVE",
"132 716 CURVE SMOOTH",
"132 703 OFFCURVE",
"121 692 OFFCURVE",
"108 692 CURVE SMOOTH"
);
},
{
closed = 1;
nodes = (
"115 704 OFFCURVE",
"120 709 OFFCURVE",
"120 716 CURVE SMOOTH",
"120 723 OFFCURVE",
"115 728 OFFCURVE",
"108 728 CURVE SMOOTH",
"101 728 OFFCURVE",
"96 723 OFFCURVE",
"96 716 CURVE SMOOTH",
"96 709 OFFCURVE",
"101 704 OFFCURVE",
"108 704 CURVE SMOOTH"
);
}
);
width = 216;
}
);
unicode = 030A;
},
{
glyphname = tildecomb;
lastChange = "2021-10-13 21:41:21 +0000";
layers = (
{
anchors = (
{
name = _top;
position = "{244, 600}";
},
{
name = top;
position = "{244, 800}";
}
);
guideLines = (
{
angle = 135;
position = "{276, 664}";
}
);
layerId = "23C4FCBD-6BD7-473B-9A50-F233A862C235";
paths = (
{
closed = 1;
nodes = (
"56 632 LINE",
"128 632 LINE",
"180 684 LINE",
"232 632 LINE",
"328 632 LINE",
"464 768 LINE",
"432 800 LINE",
"360 800 LINE",
"308 748 LINE",
"256 800 LINE",
"160 800 LINE",
"24 664 LINE"
);
}
);
width = 488;
}
);
unicode = 0303;
},
{
glyphname = macroncomb;
lastChange = "2021-09-08 10:22:01 +0000";
layers = (
{
anchors = (
{
name = _top;
position = "{208, 600}";
},
{
name = top;
position = "{208, 800}";
}
);
layerId = "23C4FCBD-6BD7-473B-9A50-F233A862C235";
paths = (
{
closed = 1;
nodes = (
"56 632 LINE",
"360 632 LINE",
"392 664 LINE",
"392 768 LINE",
"360 800 LINE",
"56 800 LINE",
"24 768 LINE",
"24 664 LINE"
);
}
);
width = 416;
}
);
unicode = 0304;
},
{
glyphname = commaaccentcomb;
lastChange = "2021-11-01 12:47:32 +0000";
layers = (
{
anchors = (
{
name = _bottom;
position = "{182, 0}";
},
{
name = bottom;
position = "{124, -148}";
}
);
layerId = "23C4FCBD-6BD7-473B-9A50-F233A862C235";
paths = (
{
closed = 1;
nodes = (
"250 -20 LINE",
"114 -20 LINE",
"114 -52 LINE",
"50 -116 LINE",
"82 -148 LINE",
"154 -148 LINE",
"250 -52 LINE"
);
}
);
width = 300;
}
);
unicode = 0326;
},
{
glyphname = cedillacomb;
lastChange = "2021-09-08 15:45:28 +0000";
layers = (
{
anchors = (
{
name = _bottom;
position = "{188, 0}";
},
{
name = bottom;
position = "{188, -200}";
}
);
layerId = "23C4FCBD-6BD7-473B-9A50-F233A862C235";
paths = (
{
closed = 1;
nodes = (
"276 0 LINE",
"140 0 LINE",
"24 -116 LINE",
"56 -148 LINE",
"160 -148 LINE",
"276 -32 LINE"
);
}
);
width = 300;
}
);
unicode = 0327;
},
{
glyphname = strokeshortcomb;
lastChange = "2021-11-01 16:51:21 +0000";
layers = (
{
anchors = (
{
name = _center;
position = "{237, 251}";
}
);
layerId = "23C4FCBD-6BD7-473B-9A50-F233A862C235";
paths = (
{
closed = 1;
nodes = (
"79 311 LINE",
"79 191 LINE",
"395 191 LINE",
"395 311 LINE"
);
}
);
width = 600;
}
);
unicode = 0335;
},
{
glyphname = strokelongcomb;
lastChange = "2021-11-01 16:33:24 +0000";
layers = (
{
anchors = (
{
name = _center;
position = "{300, 486}";
}
);
layerId = "23C4FCBD-6BD7-473B-9A50-F233A862C235";
paths = (
{
closed = 1;
nodes = (
"60 426 LINE",
"540 426 LINE",
"540 546 LINE",
"60 546 LINE"
);
}
);
width = 600;
}
);
unicode = 0336;
},
{
glyphname = slashshortcomb;
lastChange = "2021-11-01 14:52:39 +0000";
layers = (
{
anchors = (
{
name = _center;
position = "{232, 350}";
}
);
guideLines = (
{
angle = 29;
position = "{72, 178}";
}
);
layerId = "23C4FCBD-6BD7-473B-9A50-F233A862C235";
paths = (
{
closed = 1;
nodes = (
"72 178 LINE",
"402 362 LINE",
"402 522 LINE",
"72 338 LINE"
);
}
);
width = 600;
}
);
unicode = 0337;
},
